<svg width="24" height="24" viewBox="0 0 24 24" fill="none" xmlns="http://www.w3.org/2000/svg">
<g clip-path="url(#clip0_3_64)">
<path d="M21 6H13.41L16.7 2.71L16 2L12 6L8 2L7.29 2.71L10.59 6H3C1.9 6 1 6.89 1 8V20C1 21.1 1.9 22 3 22H21C22.1 22 23 21.1 23 20V8C23 6.89 22.1 6 21 6ZM21 20H3V8H21V20Z"/>
<path d="M8.99998 16.5C8.99998 16.7292 9.18748 16.9167 9.41665 16.9167H9.83331V18.375C9.83331 18.7208 10.1125 19 10.4583 19C10.8041 19 11.0833 18.7208 11.0833 18.375V16.9167H11.9166V18.375C11.9166 18.7208 12.1958 19 12.5416 19C12.8875 19 13.1666 18.7208 13.1666 18.375V16.9167H13.5833C13.8125 16.9167 14 16.7292 14 16.5V12.3333H8.99998V16.5ZM7.95831 12.3333C7.61248 12.3333 7.33331 12.6125 7.33331 12.9583V15.875C7.33331 16.2208 7.61248 16.5 7.95831 16.5C8.30415 16.5 8.58331 16.2208 8.58331 15.875V12.9583C8.58331 12.6125 8.30415 12.3333 7.95831 12.3333ZM15.0416 12.3333C14.6958 12.3333 14.4166 12.6125 14.4166 12.9583V15.875C14.4166 16.2208 14.6958 16.5 15.0416 16.5C15.3875 16.5 15.6666 16.2208 15.6666 15.875V12.9583C15.6666 12.6125 15.3875 12.3333 15.0416 12.3333ZM12.9708 9.9L13.5125 9.35833C13.5958 9.275 13.5958 9.14583 13.5125 9.0625C13.4291 8.97917 13.3 8.97917 13.2166 9.0625L12.6 9.67917C12.2708 9.5125 11.8958 9.41667 11.5 9.41667C11.1 9.41667 10.725 9.5125 10.3916 9.67917L9.77081 9.0625C9.68748 8.97917 9.55831 8.97917 9.47498 9.0625C9.39165 9.14583 9.39165 9.275 9.47498 9.35833L10.0208 9.90417C9.40415 10.3583 8.99998 11.0875 8.99998 11.9167H14C14 11.0875 13.5958 10.3542 12.9708 9.9ZM10.6666 11.0833H10.25V10.6667H10.6666V11.0833ZM12.75 11.0833H12.3333V10.6667H12.75V11.0833Z"/>
</g>
<defs>
<clipPath id="clip0_3_64">
<rect width="24" height="24" fill="white"/>
</clipPath>
</defs>
</svg>
