<svg width="28" height="28" viewBox="0 0 28 28" fill="none" xmlns="http://www.w3.org/2000/svg">
<path d="M16.333 9.33398H4.66634C3.37951 9.33398 2.33301 10.3805 2.33301 11.6673V23.334C2.33301 24.6208 3.37951 25.6673 4.66634 25.6673H16.333C17.6198 25.6673 18.6663 24.6208 18.6663 23.334V11.6673C18.6663 10.3805 17.6198 9.33398 16.333 9.33398Z" fill="#AFC1CE"/>
<path d="M23.333 2.33398H11.6663C10.3783 2.33398 9.33301 3.37932 9.33301 4.66732V7.00065H10.4997H18.6663C19.9543 7.00065 20.9997 8.04598 20.9997 9.33398V17.5007V18.6673H23.333C24.621 18.6673 25.6663 17.622 25.6663 16.334V4.66732C25.6663 3.37932 24.621 2.33398 23.333 2.33398Z" fill="#AFC1CE"/>
</svg>
