<svg width="16" height="16" viewBox="0 0 16 16" fill="none" xmlns="http://www.w3.org/2000/svg">
<g clip-path="url(#clip0_95_25565)">
<path fill-rule="evenodd" clip-rule="evenodd" d="M13 11V2C12.9984 1.47005 12.7872 0.962255 12.4125 0.587524C12.0377 0.212794 11.5299 0.00158273 11 0H2C1.47005 0.00158273 0.962255 0.212794 0.587524 0.587524C0.212794 0.962255 0.00158273 1.47005 0 2V11C0.00158273 11.5299 0.212794 12.0377 0.587524 12.4125C0.962255 12.7872 1.47005 12.9984 2 13H11C11.5299 12.9984 12.0377 12.7872 12.4125 12.4125C12.7872 12.0377 12.9984 11.5299 13 11ZM2 2H11V11H2V2ZM15 3C14.8583 2.99892 14.7182 3.0297 14.59 3.09003C14.4146 3.16889 14.2656 3.29666 14.1609 3.45807C14.0563 3.61947 14.0004 3.80764 14 4V14H4C3.80764 14.0004 3.61947 14.0563 3.45807 14.1609C3.29666 14.2656 3.16889 14.4146 3.09003 14.59C3.0297 14.7182 2.99892 14.8583 3 15C3 15.2652 3.10537 15.5196 3.29291 15.7071C3.48044 15.8946 3.73478 16 4 16H14C14.5299 15.9984 15.0377 15.7872 15.4125 15.4125C15.7872 15.0377 15.9984 14.5299 16 14V4C16 3.73478 15.8946 3.48044 15.7071 3.29291C15.5196 3.10537 15.2652 3 15 3Z"/>
</g>
</svg>
