<svg width="24" height="24" viewBox="0 0 24 24" fill="none" xmlns="http://www.w3.org/2000/svg">
<path d="M17.2821 13.6326H16.2565C17.7949 14.9591 18.8206 17 18.8206 19.2448C18.8206 19.7551 18.718 20.1632 18.6154 20.5714C19.9488 20.3673 20.7693 20.0612 21.2821 19.7551C21.7949 19.4489 22.0001 18.9387 22.0001 18.3265C22.0001 15.7755 19.8462 13.6326 17.2821 13.6326Z" fill="#4467FB"/>
<path d="M12.1538 13.9389C11.8462 13.9389 11.641 13.8369 11.3333 13.8369H7.4359C4.46154 13.8369 2 16.2859 2 19.245C2 19.9593 2.30769 20.4695 2.82051 20.8777C3.64103 21.3879 5.58974 22.0001 9.38461 22.0001C13.1795 22.0001 15.0256 21.3879 15.9487 20.8777C15.9487 20.8777 16.0513 20.7757 16.1538 20.7757C16.5641 20.4695 16.8718 19.9593 16.8718 19.245C16.7692 16.592 14.8205 14.3471 12.1538 13.9389Z" fill="#4467FB"/>
<path d="M15.5385 11.4899C17.7949 11.4899 19.641 9.65319 19.641 7.40829C19.641 5.16339 17.7949 3.32666 15.5385 3.32666C15.4359 3.32666 15.3334 3.32666 15.2308 3.32666C15.8462 4.34707 16.2564 5.57156 16.2564 6.79605C16.2564 8.53074 15.5385 10.1634 14.4103 11.3879C14.718 11.4899 15.1282 11.4899 15.5385 11.4899Z" fill="#4467FB"/>
<path d="M9.38459 11.4898C10.6154 11.4898 11.641 11.0817 12.5641 10.2654C13.5897 9.44904 14.1025 8.12251 14.1025 6.79598C14.1025 5.77557 13.7948 4.75516 13.1795 4.04088C12.3589 2.81639 11.0256 2.00006 9.38459 2.00006C6.82049 2.00006 4.66664 4.14292 4.66664 6.69394C4.66664 9.347 6.82049 11.4898 9.38459 11.4898Z" fill="#4467FB"/>
</svg>
