<svg width="249" height="60" viewBox="0 0 249 60" fill="none" xmlns="http://www.w3.org/2000/svg">
<mask id="path-1-inside-1_57_42839" fill="white">
<path d="M30 7.5C30 3.35786 26.5912 -0.092149 22.5778 0.932635C21.1977 1.28504 19.8414 1.73608 18.5195 2.28361C14.8797 3.79126 11.5726 6.00104 8.78679 8.7868C6.00104 11.5726 3.79125 14.8797 2.28361 18.5195C0.775971 22.1593 -1.65576e-06 26.0603 -1.31134e-06 30C-9.66926e-07 33.9397 0.775972 37.8407 2.28361 41.4805C3.79126 45.1203 6.00104 48.4274 8.7868 51.2132C11.5726 53.999 14.8797 56.2087 18.5195 57.7164C19.8414 58.2639 21.1977 58.715 22.5778 59.0674C26.5912 60.0921 30 56.6421 30 52.5L30 50.8904C30 47.6372 27.2653 45.1031 24.2597 43.8582C22.4399 43.1044 20.7863 41.9995 19.3934 40.6066C18.0005 39.2137 16.8956 37.5601 16.1418 35.7403C15.388 33.9204 15 31.9698 15 30C15 28.0302 15.388 26.0796 16.1418 24.2597C16.8956 22.4399 18.0005 20.7863 19.3934 19.3934C20.7863 18.0005 22.4399 16.8956 24.2597 16.1418C27.2653 14.8969 30 12.3628 30 9.10955L30 7.5Z"/>
</mask>
<path d="M30 7.5C30 3.35786 26.5912 -0.092149 22.5778 0.932635C21.1977 1.28504 19.8414 1.73608 18.5195 2.28361C14.8797 3.79126 11.5726 6.00104 8.78679 8.7868C6.00104 11.5726 3.79125 14.8797 2.28361 18.5195C0.775971 22.1593 -1.65576e-06 26.0603 -1.31134e-06 30C-9.66926e-07 33.9397 0.775972 37.8407 2.28361 41.4805C3.79126 45.1203 6.00104 48.4274 8.7868 51.2132C11.5726 53.999 14.8797 56.2087 18.5195 57.7164C19.8414 58.2639 21.1977 58.715 22.5778 59.0674C26.5912 60.0921 30 56.6421 30 52.5L30 50.8904C30 47.6372 27.2653 45.1031 24.2597 43.8582C22.4399 43.1044 20.7863 41.9995 19.3934 40.6066C18.0005 39.2137 16.8956 37.5601 16.1418 35.7403C15.388 33.9204 15 31.9698 15 30C15 28.0302 15.388 26.0796 16.1418 24.2597C16.8956 22.4399 18.0005 20.7863 19.3934 19.3934C20.7863 18.0005 22.4399 16.8956 24.2597 16.1418C27.2653 14.8969 30 12.3628 30 9.10955L30 7.5Z" stroke="#27A3BE" stroke-width="21.6727" mask="url(#path-1-inside-1_57_42839)"/>
<mask id="path-2-inside-2_57_42839" fill="white">
<path d="M38 7.5C38 3.35786 41.4088 -0.092149 45.4222 0.932635C46.8023 1.28504 48.1586 1.73608 49.4805 2.28361C53.1203 3.79126 56.4274 6.00104 59.2132 8.7868C61.999 11.5726 64.2087 14.8797 65.7164 18.5195C67.224 22.1593 68 26.0603 68 30C68 33.9397 67.224 37.8407 65.7164 41.4805C64.2087 45.1203 61.999 48.4274 59.2132 51.2132C56.4274 53.999 53.1203 56.2087 49.4805 57.7164C48.1586 58.2639 46.8023 58.715 45.4222 59.0674C41.4088 60.0921 38 56.6421 38 52.5L38 50.8904C38 47.6372 40.7347 45.1031 43.7403 43.8582C45.5601 43.1044 47.2137 41.9995 48.6066 40.6066C49.9995 39.2137 51.1044 37.5601 51.8582 35.7403C52.612 33.9204 53 31.9698 53 30C53 28.0302 52.612 26.0796 51.8582 24.2597C51.1044 22.4399 49.9995 20.7863 48.6066 19.3934C47.2137 18.0005 45.5601 16.8956 43.7403 16.1418C40.7347 14.8969 38 12.3628 38 9.10955L38 7.5Z"/>
</mask>
<path d="M38 7.5C38 3.35786 41.4088 -0.092149 45.4222 0.932635C46.8023 1.28504 48.1586 1.73608 49.4805 2.28361C53.1203 3.79126 56.4274 6.00104 59.2132 8.7868C61.999 11.5726 64.2087 14.8797 65.7164 18.5195C67.224 22.1593 68 26.0603 68 30C68 33.9397 67.224 37.8407 65.7164 41.4805C64.2087 45.1203 61.999 48.4274 59.2132 51.2132C56.4274 53.999 53.1203 56.2087 49.4805 57.7164C48.1586 58.2639 46.8023 58.715 45.4222 59.0674C41.4088 60.0921 38 56.6421 38 52.5L38 50.8904C38 47.6372 40.7347 45.1031 43.7403 43.8582C45.5601 43.1044 47.2137 41.9995 48.6066 40.6066C49.9995 39.2137 51.1044 37.5601 51.8582 35.7403C52.612 33.9204 53 31.9698 53 30C53 28.0302 52.612 26.0796 51.8582 24.2597C51.1044 22.4399 49.9995 20.7863 48.6066 19.3934C47.2137 18.0005 45.5601 16.8956 43.7403 16.1418C40.7347 14.8969 38 12.3628 38 9.10955L38 7.5Z" stroke="#27A3BE" stroke-width="21.6727" mask="url(#path-2-inside-2_57_42839)"/>
<circle cx="34" cy="30" r="11" fill="#64BEB0"/>
<path d="M91.0522 42V17.7627H106.855V22.7655H96.8316V27.5154H105.808V32.4459H96.8316V42H91.0522ZM117.432 17.7627V36.943H126.589V42H111.653V17.7627H117.432ZM130.488 42V17.7627H146.689V22.7655H136.268V27.4251H146.039V32.4459H136.268V36.943H146.689V42H130.488ZM150.258 42L158.818 29.9175L150.258 17.7627H157.428L162.701 25.3842L166.928 17.7627H173.899L165.952 29.8091L175.236 42H167.921L162.16 34.4145L157.265 42H150.258Z" fill="#64BEB0"/>
<path d="M194.632 39.8327L201.711 19.6952H203.969L195.86 42H193.71L185.655 19.6952H187.895L194.957 39.8327H194.632ZM208.356 42V19.6952H215.165C217.585 19.6952 219.416 20.3152 220.656 21.5554C221.896 22.7956 222.516 24.433 222.516 26.4679C222.516 28.4786 221.896 30.0981 220.656 31.3262C219.416 32.5423 217.585 33.1503 215.165 33.1503H210.488V42H208.356ZM210.488 31.3262H215.165C216.863 31.3262 218.151 30.8987 219.03 30.0439C219.921 29.177 220.367 27.985 220.367 26.4679C220.367 24.9267 219.921 23.7106 219.03 22.8196C218.151 21.9286 216.863 21.4832 215.165 21.4832H210.488V31.3262ZM227.899 19.6952H230.609L242.565 39.3451H242.348V19.6952H244.443V42H241.896L229.687 21.9347H229.994V42H227.899V19.6952Z" fill="#27A3BE"/>
</svg>
