<svg width="85" height="20" viewBox="0 0 85 20" fill="none" xmlns="http://www.w3.org/2000/svg">
<path d="M42.6798 10.9568C42.0637 10.9597 41.4623 11.145 40.9514 11.4894C40.4405 11.8338 40.0432 12.3218 39.8094 12.8919C39.5756 13.4619 39.516 14.0884 39.6379 14.6923C39.7599 15.2962 40.058 15.8505 40.4947 16.2851C40.9314 16.7197 41.487 17.0153 42.0915 17.1344C42.696 17.2535 43.3222 17.1909 43.8911 16.9545C44.4601 16.7181 44.9462 16.3184 45.2882 15.8059C45.6302 15.2934 45.8127 14.6912 45.8127 14.075C45.8187 13.6627 45.7416 13.2533 45.5861 12.8713C45.4306 12.4893 45.1998 12.1425 44.9075 11.8516C44.6152 11.5606 44.2673 11.3314 43.8846 11.1777C43.5019 11.024 43.0922 10.9489 42.6798 10.9568ZM42.6798 15.968C42.3009 15.9945 41.9228 15.9064 41.5946 15.7152C41.2665 15.5239 41.0034 15.2384 40.8397 14.8957C40.6759 14.5529 40.6191 14.1689 40.6765 13.7934C40.734 13.418 40.903 13.0685 41.1617 12.7904C41.4204 12.5122 41.7568 12.3184 42.1271 12.234C42.4975 12.1496 42.8846 12.1786 43.2383 12.3171C43.5919 12.4557 43.8957 12.6975 44.1102 13.011C44.3246 13.3245 44.4398 13.6952 44.4407 14.075C44.4525 14.3157 44.416 14.5563 44.3334 14.7826C44.2507 15.009 44.1236 15.2165 43.9595 15.3929C43.7954 15.5693 43.5976 15.7111 43.3778 15.8099C43.158 15.9087 42.9207 15.9624 42.6798 15.968ZM35.849 10.9568C35.2326 10.9582 34.6304 11.1424 34.1186 11.4859C33.6068 11.8294 33.2082 12.3169 32.9733 12.8868C32.7384 13.4567 32.6777 14.0835 32.7989 14.6879C32.92 15.2923 33.2176 15.8472 33.654 16.2826C34.0904 16.7179 34.646 17.0142 35.2507 17.1339C35.8554 17.2536 36.482 17.1915 37.0513 16.9552C37.6207 16.719 38.1072 16.3193 38.4496 15.8067C38.7919 15.2941 38.9746 14.6915 38.9746 14.075C38.9806 13.6627 38.9035 13.2533 38.748 12.8713C38.5925 12.4893 38.3617 12.1425 38.0694 11.8516C37.7771 11.5606 37.4292 11.3314 37.0465 11.1777C36.6637 11.024 36.254 10.9489 35.8417 10.9568H35.849ZM35.849 15.968C35.4699 15.996 35.0912 15.9092 34.7621 15.719C34.433 15.5287 34.1689 15.2438 34.004 14.9013C33.8391 14.5588 33.7811 14.1746 33.8377 13.7987C33.8942 13.4228 34.0626 13.0726 34.3209 12.7938C34.5792 12.5149 34.9155 12.3203 35.286 12.2352C35.6565 12.1502 36.044 12.1786 36.3981 12.3169C36.7521 12.4551 37.0564 12.6968 37.2712 13.0103C37.4861 13.3239 37.6015 13.6949 37.6025 14.075C37.6144 14.3157 37.5779 14.5563 37.4952 14.7826C37.4126 15.009 37.2855 15.2165 37.1213 15.3929C36.9572 15.5693 36.7594 15.7111 36.5397 15.8099C36.3199 15.9087 36.0825 15.9624 35.8417 15.968H35.849ZM27.7122 11.9179V13.2386H30.8818C30.8321 13.8607 30.5735 14.4476 30.1481 14.9041C29.831 15.2271 29.4498 15.4802 29.029 15.647C28.6082 15.8138 28.1571 15.8906 27.7048 15.8726C26.7708 15.8726 25.875 15.5016 25.2146 14.8411C24.5541 14.1807 24.1831 13.2849 24.1831 12.3508C24.1831 11.4168 24.5541 10.521 25.2146 9.86055C25.875 9.20009 26.7708 8.82904 27.7048 8.82904C28.5984 8.81447 29.4612 9.15485 30.1041 9.77552L31.0359 8.84372C30.6019 8.40425 30.0841 8.05636 29.5131 7.82069C28.9422 7.58501 28.3298 7.46633 27.7122 7.47169C27.0599 7.4463 26.4092 7.55285 25.7991 7.78496C25.189 8.01706 24.6321 8.36994 24.1616 8.82245C23.6911 9.27496 23.3169 9.81778 23.0612 10.4184C22.8056 11.019 22.6738 11.6651 22.6738 12.3178C22.6738 12.9706 22.8056 13.6166 23.0612 14.2172C23.3169 14.8179 23.6911 15.3607 24.1616 15.8132C24.6321 16.2657 25.189 16.6186 25.7991 16.8507C26.4092 17.0828 27.0599 17.1893 27.7122 17.1639C28.3402 17.1923 28.967 17.0859 29.5504 16.8517C30.1339 16.6176 30.6604 16.2612 31.0946 15.8066C31.8633 14.962 32.2737 13.8518 32.2392 12.7104C32.2415 12.4323 32.2169 12.1546 32.1658 11.8813L27.7122 11.9179ZM60.9564 12.9451C60.7651 12.3822 60.4073 11.8906 59.9303 11.5356C59.4534 11.1805 58.8799 10.9787 58.2857 10.9568C57.8844 10.956 57.4872 11.0375 57.1186 11.1964C56.75 11.3552 56.4179 11.5879 56.1429 11.8802C55.8678 12.1724 55.6556 12.518 55.5194 12.8955C55.3832 13.273 55.3258 13.6745 55.3509 14.075C55.342 14.4851 55.4158 14.8928 55.568 15.2737C55.7201 15.6546 55.9475 16.0009 56.2365 16.292C56.5255 16.5831 56.8702 16.8129 57.2501 16.9677C57.6299 17.1226 58.037 17.1993 58.4471 17.1933C58.9604 17.1961 59.4663 17.0715 59.9196 16.8308C60.3728 16.5901 60.7593 16.2407 61.0445 15.8139L59.9806 15.0802C59.8218 15.3449 59.597 15.5639 59.3282 15.7156C59.0594 15.8674 58.7558 15.9468 58.4471 15.946C58.1293 15.9581 57.8152 15.8743 57.5457 15.7055C57.2761 15.5367 57.0636 15.2907 56.9357 14.9995L61.1105 13.2753L60.9564 12.9451ZM56.7009 13.987C56.6861 13.7601 56.7166 13.5324 56.7908 13.3175C56.865 13.1025 56.9814 12.9045 57.1331 12.735C57.2847 12.5655 57.4687 12.4281 57.6742 12.3306C57.8797 12.2331 58.1026 12.1777 58.3298 12.1674C58.5664 12.1518 58.8025 12.2061 59.0086 12.3235C59.2146 12.4409 59.3817 12.6162 59.489 12.8277L56.7009 13.987ZM53.3112 17.0099H54.6832V7.83854H53.3112V17.0099ZM51.0661 11.6538H51.0147C50.8079 11.4226 50.5546 11.2377 50.2714 11.1113C49.9881 10.9849 49.6814 10.9197 49.3712 10.9201C48.5694 10.959 47.8133 11.3049 47.2596 11.8861C46.7059 12.4673 46.397 13.2393 46.397 14.042C46.397 14.8448 46.7059 15.6168 47.2596 16.198C47.8133 16.7792 48.5694 17.1251 49.3712 17.1639C49.6821 17.1692 49.9904 17.1062 50.2743 16.9794C50.5583 16.8527 50.811 16.6652 51.0147 16.4302H51.0587V16.8778C51.0587 18.0737 50.4204 18.7121 49.3932 18.7121C49.0511 18.7041 48.7191 18.5944 48.4395 18.3971C48.1599 18.1998 47.9453 17.9238 47.8231 17.6042L46.6271 18.1031C46.8523 18.6507 47.2358 19.1186 47.7287 19.4467C48.2215 19.7748 48.8011 19.9482 49.3932 19.9447C51 19.9447 52.328 18.9982 52.328 16.6944V11.1402H51.0661V11.6538ZM49.4959 15.968C49.0227 15.9263 48.5822 15.7088 48.2613 15.3584C47.9404 15.008 47.7625 14.5502 47.7625 14.075C47.7625 13.5999 47.9404 13.1421 48.2613 12.7917C48.5822 12.4413 49.0227 12.2238 49.4959 12.1821C49.7306 12.1941 49.9605 12.253 50.172 12.3553C50.3836 12.4575 50.5725 12.6011 50.7277 12.7775C50.8829 12.9539 51.0013 13.1596 51.0757 13.3824C51.1502 13.6053 51.1794 13.8408 51.1614 14.075C51.1815 14.3103 51.1535 14.5472 51.0794 14.7714C51.0052 14.9956 50.8864 15.2025 50.73 15.3794C50.5736 15.5564 50.383 15.6998 50.1696 15.8009C49.9562 15.9021 49.7246 15.9589 49.4886 15.968H49.4959ZM67.3837 7.83854H64.104V17.0099H65.4761V13.5321H67.391C67.7821 13.5602 68.1747 13.5074 68.5444 13.3771C68.9142 13.2468 69.2531 13.0416 69.5401 12.7745C69.827 12.5074 70.0559 12.1841 70.2124 11.8246C70.3689 11.4652 70.4497 11.0774 70.4497 10.6853C70.4497 10.2933 70.3689 9.90545 70.2124 9.546C70.0559 9.18655 69.827 8.86319 69.5401 8.5961C69.2531 8.329 68.9142 8.12389 68.5444 7.99355C68.1747 7.86322 67.7821 7.81045 67.391 7.83854H67.3837ZM67.3837 12.2408H65.4687V9.11519H67.413C67.8304 9.11519 68.2307 9.281 68.5259 9.57614C68.821 9.87129 68.9868 10.2716 68.9868 10.689C68.9868 11.1064 68.821 11.5067 68.5259 11.8018C68.2307 12.097 67.8304 12.2628 67.413 12.2628L67.3837 12.2408ZM75.8433 10.9201C75.3438 10.8903 74.8465 11.007 74.4124 11.2559C73.9784 11.5049 73.6265 11.8753 73.4001 12.3215L74.618 12.8277C74.7381 12.6064 74.92 12.4248 75.1414 12.3049C75.3629 12.1851 75.6144 12.1322 75.8653 12.1527C76.0395 12.1324 76.216 12.1469 76.3845 12.1955C76.553 12.2441 76.7101 12.3258 76.8467 12.4357C76.9833 12.5457 77.0966 12.6818 77.1801 12.836C77.2635 12.9902 77.3154 13.1595 77.3328 13.334V13.4294C76.8921 13.1961 76.4006 13.0751 75.902 13.0772C74.5887 13.0772 73.2607 13.8109 73.2607 15.1389C73.2736 15.4221 73.3432 15.6998 73.4654 15.9556C73.5875 16.2114 73.7597 16.4401 73.9717 16.6282C74.1838 16.8163 74.4314 16.96 74.6999 17.0507C74.9685 17.1415 75.2525 17.1775 75.5352 17.1566C75.8807 17.1814 76.2265 17.1128 76.5363 16.9579C76.8462 16.8029 77.1086 16.5675 77.2961 16.2762H77.3401V17.0099H78.6608V13.4807C78.6608 11.8739 77.4428 10.9421 75.88 10.9421L75.8433 10.9201ZM75.6746 15.946C75.227 15.946 74.6034 15.7185 74.6034 15.1683C74.6034 14.4346 75.3811 14.1924 76.0708 14.1924C76.5066 14.1817 76.9374 14.2881 77.3181 14.5006C77.2722 14.8978 77.0843 15.2651 76.789 15.5347C76.4938 15.8044 76.111 15.9583 75.7113 15.968L75.6746 15.946ZM83.4739 11.1402L81.9037 15.1169H81.8597L80.2309 11.1402H78.7635L81.2067 16.7017L79.8127 19.7906H81.2434L85 11.1402H83.4739ZM71.1403 17.0099H72.5123V7.83854H71.1403V17.0099Z" fill="white"/>
<path d="M27.4316 2.55768C27.444 2.82679 27.4017 3.09563 27.3071 3.34789C27.2125 3.60014 27.0676 3.83053 26.8813 4.02509C26.6732 4.24123 26.4219 4.4111 26.1438 4.52361C25.8657 4.63613 25.567 4.68876 25.2671 4.67809C24.8122 4.67453 24.3685 4.53679 23.9915 4.28214C23.6145 4.02749 23.3211 3.66725 23.148 3.24656C22.9748 2.82587 22.9297 2.36344 23.0182 1.91722C23.1068 1.47099 23.325 1.06081 23.6456 0.738085C23.8564 0.52295 24.109 0.353345 24.3879 0.239763C24.6668 0.126182 24.9661 0.0710398 25.2671 0.0777495C25.5773 0.076716 25.8844 0.139137 26.1696 0.261176C26.4351 0.368263 26.6714 0.536725 26.8593 0.75276L26.4704 1.14162C26.324 0.967437 26.139 0.829696 25.9302 0.739286C25.7214 0.648876 25.4944 0.608276 25.2671 0.620692C25.038 0.619568 24.8109 0.664734 24.5996 0.753484C24.3883 0.842235 24.1971 0.972741 24.0375 1.13718C23.8778 1.30161 23.753 1.49659 23.6706 1.71043C23.5881 1.92426 23.5497 2.15254 23.5576 2.38159C23.5528 2.72359 23.6494 3.05936 23.8352 3.34654C24.021 3.63371 24.2877 3.85942 24.6016 3.9952C24.9156 4.13098 25.2627 4.17073 25.5992 4.10946C25.9357 4.04818 26.2465 3.88862 26.4924 3.6509C26.7182 3.40624 26.8484 3.08852 26.8593 2.75578H25.2671V2.22751H27.4022C27.4218 2.33648 27.4316 2.44697 27.4316 2.55768ZM30.7919 0.723411H28.8109V2.11745H30.6159V2.64572H28.8109V4.03976H30.7919V4.58271H28.224V0.180468H30.7919V0.723411ZM33.1985 4.58271H32.6336V0.723411H31.4009V0.180468H34.4605V0.723411H33.1985V4.58271ZM36.6176 4.58271V0.180468H37.1825V4.58271H36.6176ZM39.6918 4.58271H39.1269V0.723411H37.8942V0.180468H40.9171V0.723411H39.6918V4.58271ZM46.6474 4.01042C46.2184 4.43695 45.6381 4.67638 45.0332 4.67638C44.4283 4.67638 43.848 4.43695 43.419 4.01042C43.0021 3.56911 42.7699 2.98502 42.7699 2.37792C42.7699 1.77082 43.0021 1.18673 43.419 0.745422C43.6305 0.532459 43.8819 0.363436 44.159 0.248094C44.436 0.132752 44.7331 0.0733707 45.0332 0.0733707C45.3333 0.0733707 45.6304 0.132752 45.9074 0.248094C46.1845 0.363436 46.4359 0.532459 46.6474 0.745422C47.0659 1.18589 47.2993 1.7703 47.2993 2.37792C47.2993 2.98554 47.0659 3.56995 46.6474 4.01042ZM43.8373 3.64356C44.1549 3.95988 44.5849 4.13747 45.0332 4.13747C45.4815 4.13747 45.9115 3.95988 46.2291 3.64356C46.5426 3.298 46.7162 2.84814 46.7162 2.38159C46.7162 1.91503 46.5426 1.46517 46.2291 1.11961C45.9115 0.803295 45.4815 0.625701 45.0332 0.625701C44.5849 0.625701 44.1549 0.803295 43.8373 1.11961C43.5238 1.46517 43.3501 1.91503 43.3501 2.38159C43.3501 2.84814 43.5238 3.298 43.8373 3.64356ZM48.0928 4.58271V0.180468H48.7824L50.9249 3.60688V0.180468H51.4898V4.58271H50.9029L48.665 0.994883V4.58271H48.0928Z" fill="white"/>
<path fill-rule="evenodd" clip-rule="evenodd" d="M45.0332 0.146741C44.7428 0.146741 44.4553 0.204207 44.1872 0.315829C43.9193 0.427333 43.6762 0.590679 43.4718 0.796468C43.0681 1.22408 42.8432 1.78986 42.8432 2.37792C42.8432 2.9659 43.068 3.53161 43.4716 3.9592C43.8867 4.37156 44.4481 4.60301 45.0332 4.60301C45.6184 4.60301 46.1798 4.37153 46.5949 3.95911C47 3.53237 47.2259 2.96638 47.2259 2.37792C47.2259 1.78939 47 1.22332 46.5947 0.796564C46.3903 0.59073 46.1471 0.427351 45.8792 0.315829C45.6111 0.204207 45.3236 0.146741 45.0332 0.146741ZM44.1308 0.18036C44.4167 0.0612971 44.7234 0 45.0332 0C45.343 0 45.6497 0.0612971 45.9356 0.18036C46.2216 0.299423 46.4812 0.473898 46.6994 0.693731L46.7005 0.694869C47.1321 1.14897 47.3727 1.75149 47.3727 2.37792C47.3727 3.00435 47.1321 3.60686 46.7005 4.06096L46.6991 4.06246C46.2564 4.50267 45.6575 4.74975 45.0332 4.74975C44.4089 4.74975 43.81 4.50265 43.3673 4.06244L43.3657 4.06083C42.9359 3.6059 42.6965 3.00375 42.6965 2.37792C42.6965 1.75209 42.9359 1.14996 43.3657 0.695037L43.367 0.693715C43.5852 0.473882 43.8448 0.299423 44.1308 0.18036ZM25.2655 0.151102C24.9745 0.144616 24.6852 0.19792 24.4156 0.307715C24.146 0.417511 23.9018 0.581463 23.6981 0.789426L23.6977 0.789797C23.3873 1.10228 23.1759 1.49943 23.0902 1.93149C23.0045 2.36356 23.0482 2.81131 23.2158 3.21864C23.3835 3.62598 23.6676 3.97478 24.0326 4.22135C24.3976 4.46791 24.8272 4.60127 25.2677 4.60472L25.2698 4.60474C25.5593 4.61504 25.8477 4.56425 26.1163 4.4556C26.3848 4.34696 26.6275 4.18296 26.8284 3.97428C27.0078 3.78691 27.1473 3.56504 27.2384 3.32212C27.3295 3.07918 27.3703 2.82026 27.3583 2.56107L27.4316 2.55768L27.3582 2.55765C27.3582 2.4717 27.3521 2.38589 27.3398 2.30088H25.3405V2.68241H26.9351L26.9326 2.75817C26.9212 3.10852 26.7841 3.44305 26.5464 3.70066L26.5435 3.70374C26.2872 3.95153 25.9631 4.11777 25.6123 4.18164C25.2616 4.24551 24.8997 4.20407 24.5725 4.06254C24.2453 3.92101 23.9673 3.68573 23.7736 3.38639C23.5802 3.08755 23.4796 2.73822 23.4842 2.38234C23.4762 2.14402 23.5163 1.90652 23.6021 1.68403C23.6881 1.46098 23.8183 1.25759 23.9848 1.08607C24.1514 0.914546 24.3508 0.778414 24.5712 0.685839C24.7909 0.593544 25.027 0.546437 25.2653 0.547313C25.5032 0.534654 25.7407 0.577313 25.9593 0.671954C26.1542 0.756295 26.3292 0.879864 26.4736 1.03465L26.7581 0.750216C26.5858 0.567175 26.3757 0.42344 26.1422 0.32922L26.1407 0.328644C25.8648 0.210542 25.5676 0.15012 25.2674 0.15112L25.2655 0.151102ZM27.5049 2.55599C27.5176 2.83447 27.4737 3.11262 27.3758 3.37365C27.2777 3.63521 27.1275 3.87411 26.9343 4.07584C26.7191 4.29941 26.459 4.47525 26.1713 4.59163C25.884 4.70788 25.5753 4.76234 25.2655 4.75145C24.7966 4.74758 24.3391 4.60549 23.9504 4.34294C23.5615 4.08021 23.2587 3.70853 23.0801 3.27449C22.9015 2.84044 22.8549 2.36333 22.9463 1.90294C23.0376 1.44263 23.2627 1.0195 23.5934 0.686556C23.8111 0.464339 24.0721 0.289146 24.3602 0.171811C24.6482 0.0545618 24.957 -0.00242154 25.2678 0.00437629C25.5874 0.00343926 25.9039 0.0677679 26.1978 0.193422C26.4737 0.304858 26.7194 0.480031 26.9147 0.704618L26.9595 0.756255L26.4657 1.25007L26.4143 1.18884C26.2751 1.02336 26.0994 0.892507 25.901 0.806617C25.7027 0.720728 25.487 0.682158 25.2711 0.693954L25.2668 0.694192C25.0475 0.693116 24.8302 0.736206 24.628 0.82113C24.4258 0.906055 24.2429 1.03094 24.0901 1.18828C23.9374 1.34563 23.8179 1.53221 23.739 1.73682C23.6601 1.94144 23.6234 2.15988 23.6309 2.37906L23.6311 2.38262C23.6264 2.71013 23.7189 3.03167 23.8968 3.30668C24.0747 3.58168 24.3301 3.79783 24.6307 3.92786C24.9314 4.05788 25.2638 4.09595 25.586 4.03728C25.9076 3.97872 26.2047 3.82645 26.4399 3.59961C26.6357 3.38676 26.7553 3.1158 26.7813 2.82915H25.1938V2.15414H27.4636L27.4744 2.21454C27.4947 2.32723 27.5049 2.4415 27.5049 2.55599ZM28.1506 0.107097H30.8653V0.796781H28.8843V2.04408H30.6892V2.71909H28.8843V3.96639H30.8653V4.65608H28.1506V0.107097ZM28.2973 0.253839V4.50934H30.7186V4.11314H28.7376V2.57235H30.5425V2.19082H28.7376V0.65004H30.7186V0.253839H28.2973ZM31.3276 0.107097H34.5339V0.796781H33.2719V4.65608H32.5602V0.796781H31.3276V0.107097ZM31.4743 0.253839V0.65004H32.7069V4.50934H33.1251V0.65004H34.3871V0.253839H31.4743ZM36.5442 0.107097H37.2559V4.65608H36.5442V0.107097ZM36.691 0.253839V4.50934H37.1092V0.253839H36.691ZM37.8209 0.107097H40.9905V0.796781H39.7652V4.65608H39.0535V0.796781H37.8209V0.107097ZM37.9676 0.253839V0.65004H39.2002V4.50934H39.6184V0.65004H40.8437V0.253839H37.9676ZM48.0194 0.107097H48.8231L50.8515 3.35114V0.107097H51.5632V4.65608H50.8621L48.7384 1.25116V4.65608H48.0194V0.107097ZM48.1661 0.253839V4.50934H48.5917V0.73861L50.9436 4.50934H51.4164V0.253839H50.9982V3.86261L48.7418 0.253839H48.1661ZM43.7855 1.06762C44.1169 0.737613 44.5655 0.55233 45.0332 0.55233C45.5009 0.55233 45.9495 0.737613 46.2809 1.06762L46.2835 1.07025C46.6093 1.42931 46.7896 1.89681 46.7896 2.38159C46.7896 2.86637 46.6092 3.3338 46.2835 3.69286L46.281 3.69562C45.9496 4.02563 45.5009 4.21084 45.0332 4.21084C44.5655 4.21084 44.1169 4.02556 43.7855 3.69555L43.8373 3.64356L43.7829 3.69286C43.4572 3.3338 43.2768 2.86637 43.2768 2.38159C43.2768 1.89681 43.4572 1.42938 43.7829 1.07032L43.7855 1.06762ZM43.8903 3.59289C44.1941 3.89469 44.6049 4.0641 45.0332 4.0641C45.4614 4.0641 45.8723 3.89469 46.176 3.59289C46.4765 3.26101 46.6429 2.8293 46.6429 2.38159C46.6429 1.93387 46.4765 1.50216 46.176 1.17028C45.8723 0.868484 45.4614 0.699071 45.0332 0.699071C44.6049 0.699071 44.1941 0.868484 43.8903 1.17028C43.5899 1.50216 43.4235 1.93387 43.4235 2.38159C43.4235 2.8293 43.5899 3.26101 43.8903 3.59289Z" fill="white"/>
<path d="M0.344818 0.530792C0.105678 0.817751 -0.015026 1.18511 0.00731273 1.55798V17.7876C-0.015026 18.1604 0.105678 18.5278 0.344818 18.8148L0.396178 18.8661L9.4868 9.78283V9.57006L0.396178 0.479431L0.344818 0.530792Z" fill="url(#paint0_linear_10_127)"/>
<path d="M12.495 12.8131L9.4868 9.78285V9.57008L12.495 6.53253L12.561 6.56922L16.1635 8.61626C17.1907 9.19589 17.1907 10.1497 16.1635 10.7367L12.5757 12.7764L12.495 12.8131Z" fill="url(#paint1_linear_10_127)"/>
<path d="M12.5831 12.769L9.48682 9.67279L0.344833 18.8148C0.554206 18.9988 0.821296 19.104 1.09995 19.112C1.3786 19.12 1.65131 19.0305 1.87094 18.8588L12.5904 12.769" fill="url(#paint2_linear_10_127)"/>
<path d="M12.5831 6.57655L1.8636 0.486788C1.64397 0.315111 1.37126 0.225553 1.09261 0.233591C0.813958 0.241629 0.546866 0.346759 0.337494 0.530811L9.48682 9.67279L12.5831 6.57655Z" fill="url(#paint3_linear_10_127)"/>
<path opacity="0.2" d="M12.495 12.703L1.86361 18.7561C1.65178 18.9145 1.39439 19 1.1299 19C0.86541 19 0.608021 18.9145 0.396193 18.7561L0.344833 18.8074L0.396193 18.8588C0.607541 19.0183 0.865114 19.1046 1.1299 19.1046C1.39468 19.1046 1.65226 19.0183 1.86361 18.8588L12.5831 12.769L12.495 12.703Z" fill="black"/>
<path opacity="0.12" d="M0.344818 18.7121C0.105678 18.4251 -0.015026 18.0577 0.00731273 17.6849V17.7949C-0.015026 18.1678 0.105678 18.5352 0.344818 18.8221L0.396178 18.7708L0.344818 18.7121ZM16.1635 10.6266L12.495 12.703L12.561 12.769L16.1635 10.7293C16.3679 10.6333 16.5434 10.4851 16.6722 10.2996C16.801 10.1141 16.8787 9.89787 16.8972 9.67279C16.856 9.87728 16.7684 10.0696 16.6412 10.2349C16.514 10.4003 16.3506 10.5343 16.1635 10.6266Z" fill="black"/>
<path opacity="0.25" d="M1.86358 0.58919L16.1635 8.71866C16.3506 8.81099 16.514 8.94498 16.6412 9.11033C16.7684 9.27568 16.856 9.46799 16.8972 9.67248C16.8787 9.4474 16.801 9.2312 16.6722 9.0457C16.5434 8.8602 16.3679 8.71196 16.1635 8.61594L1.86358 0.48647C0.836396 -0.0931584 -3.05176e-05 0.391089 -3.05176e-05 1.56502V1.67507C0.0219807 0.493807 0.843733 0.00956149 1.86358 0.58919Z" fill="white"/>
<defs>
<linearGradient id="paint0_linear_10_127" x1="8.67972" y1="1.38923" x2="-3.63187" y2="13.7008" gradientUnits="userSpaceOnUse">
<stop stop-color="#00A0FF"/>
<stop offset="0.01" stop-color="#00A1FF"/>
<stop offset="0.26" stop-color="#00BEFF"/>
<stop offset="0.51" stop-color="#00D2FF"/>
<stop offset="0.76" stop-color="#00DFFF"/>
<stop offset="1" stop-color="#00E3FF"/>
</linearGradient>
<linearGradient id="paint1_linear_10_127" x1="17.5062" y1="9.6728" x2="-0.242145" y2="9.6728" gradientUnits="userSpaceOnUse">
<stop stop-color="#FFE000"/>
<stop offset="0.41" stop-color="#FFBD00"/>
<stop offset="0.78" stop-color="#FFA500"/>
<stop offset="1" stop-color="#FF9C00"/>
</linearGradient>
<linearGradient id="paint2_linear_10_127" x1="10.9029" y1="11.3603" x2="-5.79629" y2="28.0521" gradientUnits="userSpaceOnUse">
<stop stop-color="#FF3A44"/>
<stop offset="1" stop-color="#C31162"/>
</linearGradient>
<linearGradient id="paint3_linear_10_127" x1="-1.95901" y1="-4.86927" x2="5.49545" y2="2.58519" gradientUnits="userSpaceOnUse">
<stop stop-color="#32A071"/>
<stop offset="0.07" stop-color="#2DA771"/>
<stop offset="0.48" stop-color="#15CF74"/>
<stop offset="0.8" stop-color="#06E775"/>
<stop offset="1" stop-color="#00F076"/>
</linearGradient>
</defs>
</svg>
