<svg width="50" height="21" viewBox="0 0 50 21" fill="none" xmlns="http://www.w3.org/2000/svg">
<path fill-rule="evenodd" clip-rule="evenodd" d="M23.0603 16.5161V10.4741H26.1786C27.4564 10.4741 28.535 10.046 29.4142 9.20154L29.6252 8.98746C31.2313 7.23911 31.1258 4.51549 29.4142 2.89797C28.5584 2.04164 27.3861 1.57779 26.1786 1.60158H21.1729V16.5161H23.0603ZM23.0605 8.64252V3.43316H26.2262C26.9063 3.43316 27.5512 3.69481 28.0319 4.17055C29.052 5.16961 29.0754 6.8347 28.0905 7.86944C27.6098 8.38086 26.9297 8.66631 26.2262 8.64252H23.0605ZM38.4296 7.10829C37.6207 6.359 36.5187 5.97841 35.1237 5.97841C33.33 5.97841 31.9819 6.64445 31.0909 7.96463L32.7556 9.02315C33.3652 8.11924 34.1976 7.66729 35.2526 7.66729C35.9209 7.66729 36.5656 7.91705 37.0697 8.36901C37.5621 8.79717 37.8434 9.41564 37.8434 10.0698V10.5098C37.1166 10.1055 36.2022 9.89138 35.0768 9.89138C33.7638 9.89138 32.7087 10.2006 31.9233 10.831C31.1378 11.4613 30.7392 12.2939 30.7392 13.3524C30.7158 14.3158 31.1261 15.2316 31.8529 15.85C32.5915 16.5161 33.5293 16.8491 34.6313 16.8491C35.9326 16.8491 36.9642 16.2663 37.7497 15.1007H37.8317V16.5161H39.6371V10.2244C39.6371 8.90422 39.2385 7.85759 38.4296 7.10829ZM33.3069 14.6369C32.92 14.3514 32.6855 13.8876 32.6855 13.3881C32.6855 12.8291 32.9435 12.3652 33.4476 11.9965C33.9635 11.6278 34.6084 11.4375 35.3705 11.4375C36.4258 11.4256 37.2465 11.6635 37.8328 12.1392C37.8328 12.948 37.5162 13.6497 36.8948 14.2444C36.332 14.8153 35.5698 15.1364 34.7725 15.1364C34.2449 15.1483 33.729 14.9699 33.3069 14.6369ZM43.693 20.9999L50.0001 6.31143H47.9485L45.0295 13.6378H44.9943L42.0049 6.31143H39.9534L44.0916 15.8619L41.747 20.9999H43.693Z" fill="#3C4043"/>
<path d="M16.544 9.1659C16.544 8.58312 16.4971 8.00033 16.4034 7.42944H8.44336V10.7239H13.0037C12.8161 11.7825 12.2065 12.734 11.3155 13.3286V15.4695H14.0353C15.6296 13.9828 16.544 11.7825 16.544 9.1659Z" fill="#4285F4"/>
<path d="M8.44421 17.5389C10.7185 17.5389 12.6411 16.7777 14.0361 15.4694L11.3164 13.3286C10.5544 13.8519 9.58136 14.1493 8.44421 14.1493C6.24027 14.1493 4.37629 12.6388 3.70807 10.6169H0.90625V12.8291C2.33647 15.7192 5.25553 17.5389 8.44421 17.5389Z" fill="#34A853"/>
<path d="M3.70803 10.6169C3.35628 9.55842 3.35628 8.40475 3.70803 7.33433V5.13403H0.905755C-0.301918 7.54842 -0.301918 10.4029 0.905755 12.8172L3.70803 10.6169Z" fill="#FBBC04"/>
<path d="M8.44421 3.80191C9.65169 3.77813 10.8123 4.24198 11.6798 5.08642L14.0948 2.63635C12.559 1.18534 10.5427 0.388474 8.44421 0.412261C5.25553 0.412261 2.33647 2.24386 0.90625 5.13399L3.70807 7.34618C4.37629 5.31239 6.24027 3.80191 8.44421 3.80191Z" fill="#EA4335"/>
</svg>
