<svg width="17" height="19" viewBox="0 0 17 19" fill="none" xmlns="http://www.w3.org/2000/svg">
<path d="M0.344773 0.297721C0.105632 0.58468 -0.0150717 0.952037 0.00726695 1.32491V17.5545C-0.0150717 17.9274 0.105632 18.2947 0.344773 18.5817L0.396132 18.633L9.48676 9.54976V9.33699L0.396132 0.246361L0.344773 0.297721Z" fill="url(#paint0_linear_91_24)"/>
<path d="M12.495 12.58L9.48682 9.54976V9.33698L12.495 6.29944L12.561 6.33612L16.1635 8.38316C17.1907 8.96279 17.1907 9.91661 16.1635 10.5036L12.5757 12.5433L12.495 12.58Z" fill="url(#paint1_linear_91_24)"/>
<path d="M12.5829 12.536L9.48671 9.43973L0.344727 18.5817C0.554099 18.7658 0.821189 18.8709 1.09984 18.8789C1.37849 18.887 1.6512 18.7974 1.87084 18.6257L12.5903 12.536" fill="url(#paint2_linear_91_24)"/>
<path d="M12.583 6.34344L1.86351 0.253679C1.64388 0.082002 1.37117 -0.00755572 1.09252 0.000482343C0.813866 0.0085204 0.546775 0.11365 0.337402 0.297703L9.48672 9.43968L12.583 6.34344Z" fill="url(#paint3_linear_91_24)"/>
<path opacity="0.2" d="M12.4949 12.4699L1.8635 18.523C1.65167 18.6814 1.39428 18.767 1.12979 18.767C0.865303 18.767 0.607914 18.6814 0.396086 18.523L0.344727 18.5744L0.396086 18.6257C0.607434 18.7852 0.865007 18.8715 1.12979 18.8715C1.39458 18.8715 1.65215 18.7852 1.8635 18.6257L12.583 12.536L12.4949 12.4699Z" fill="black"/>
<g opacity="0.12">
<mask id="path-6-inside-1_91_24" fill="white">
<path d="M0.344773 18.479C0.105632 18.192 -0.0150717 17.8247 0.00726695 17.4518V17.5619C-0.0150717 17.9347 0.105632 18.3021 0.344773 18.589L0.396132 18.5377L0.344773 18.479ZM16.1635 10.3935L12.495 12.4699L12.561 12.536L16.1635 10.4963C16.3679 10.4002 16.5434 10.252 16.6722 10.0665C16.801 9.881 16.8786 9.6648 16.8972 9.43973C16.8559 9.64422 16.7683 9.83653 16.6411 10.0019C16.514 10.1672 16.3505 10.3012 16.1635 10.3935Z"/>
</mask>
<path d="M0.344773 18.479C0.105632 18.192 -0.0150717 17.8247 0.00726695 17.4518V17.5619C-0.0150717 17.9347 0.105632 18.3021 0.344773 18.589L0.396132 18.5377L0.344773 18.479ZM16.1635 10.3935L12.495 12.4699L12.561 12.536L16.1635 10.4963C16.3679 10.4002 16.5434 10.252 16.6722 10.0665C16.801 9.881 16.8786 9.6648 16.8972 9.43973C16.8559 9.64422 16.7683 9.83653 16.6411 10.0019C16.514 10.1672 16.3505 10.3012 16.1635 10.3935Z" fill="black"/>
<path d="M0.344773 18.479L-0.21999 18.9496L-0.214328 18.9564L-0.208504 18.9631L0.344773 18.479ZM0.00726695 17.4518H0.742434L-0.726585 17.4078L0.00726695 17.4518ZM0.00726695 17.5619L0.741118 17.6058L0.742434 17.5839V17.5619H0.00726695ZM0.344773 18.589L-0.21999 19.0597L0.29538 19.6781L0.864614 19.1089L0.344773 18.589ZM0.396132 18.5377L0.915974 19.0575L1.40231 18.5712L0.949408 18.0536L0.396132 18.5377ZM16.1635 10.3935L15.8381 9.73431L15.8195 9.74351L15.8014 9.75375L16.1635 10.3935ZM12.495 12.4699L12.1328 11.8301L11.2916 12.3063L11.9751 12.9898L12.495 12.4699ZM12.561 12.536L12.0411 13.0558L12.4366 13.4512L12.9232 13.1757L12.561 12.536ZM16.1635 10.4963L15.8509 9.83086L15.8256 9.84275L15.8013 9.85652L16.1635 10.4963ZM16.8972 9.43973L17.6299 9.5002L16.1765 9.29432L16.8972 9.43973ZM0.909536 18.0083C0.790203 17.8651 0.729971 17.6818 0.741118 17.4958L-0.726585 17.4078C-0.760115 17.9675 -0.578939 18.5189 -0.21999 18.9496L0.909536 18.0083ZM-0.7279 17.4518V17.5619H0.742434V17.4518H-0.7279ZM-0.726585 17.5179C-0.760115 18.0776 -0.578939 18.629 -0.21999 19.0597L0.909536 18.1184C0.790203 17.9752 0.729971 17.7919 0.741118 17.6058L-0.726585 17.5179ZM0.864614 19.1089L0.915974 19.0575L-0.12371 18.0178L-0.175069 18.0692L0.864614 19.1089ZM0.949408 18.0536L0.898049 17.9949L-0.208504 18.9631L-0.157144 19.0218L0.949408 18.0536ZM15.8014 9.75375L12.1328 11.8301L12.8571 13.1097L16.5256 11.0333L15.8014 9.75375ZM11.9751 12.9898L12.0411 13.0558L13.0808 12.0161L13.0148 11.9501L11.9751 12.9898ZM12.9232 13.1757L16.5257 11.136L15.8013 9.85652L12.1988 11.8962L12.9232 13.1757ZM16.4761 11.1617C16.7975 11.0107 17.0734 10.7775 17.276 10.4858L16.0683 9.64716C16.0133 9.72645 15.9383 9.78982 15.8509 9.83086L16.4761 11.1617ZM17.276 10.4858C17.4786 10.1941 17.6007 9.85415 17.6299 9.5002L16.1645 9.37926C16.1566 9.47546 16.1234 9.56787 16.0683 9.64716L17.276 10.4858ZM16.1765 9.29432C16.1575 9.38865 16.1171 9.47736 16.0584 9.55364L17.2239 10.4501C17.4196 10.1957 17.5543 9.89978 17.6178 9.58514L16.1765 9.29432ZM16.0584 9.55364C15.9998 9.62991 15.9244 9.69172 15.8381 9.73431L16.4889 11.0528C16.7767 10.9107 17.0281 10.7045 17.2239 10.4501L16.0584 9.55364Z" fill="#EDF3FB" mask="url(#path-6-inside-1_91_24)"/>
</g>
<path opacity="0.25" d="M1.86362 0.356104L16.1636 8.48557C16.3506 8.5779 16.514 8.71189 16.6412 8.87724C16.7684 9.04259 16.856 9.2349 16.8973 9.43939C16.8787 9.21431 16.8011 8.99812 16.6723 8.81262C16.5434 8.62712 16.368 8.47888 16.1636 8.38285L1.86362 0.253384C0.836426 -0.326244 0 0.158003 0 1.33193V1.44199C0.0220112 0.260722 0.843763 -0.223524 1.86362 0.356104Z" fill="white"/>
<defs>
<linearGradient id="paint0_linear_91_24" x1="8.67968" y1="1.15616" x2="-3.63192" y2="13.4678" gradientUnits="userSpaceOnUse">
<stop stop-color="#00A0FF"/>
<stop offset="0.01" stop-color="#00A1FF"/>
<stop offset="0.26" stop-color="#00BEFF"/>
<stop offset="0.51" stop-color="#00D2FF"/>
<stop offset="0.76" stop-color="#00DFFF"/>
<stop offset="1" stop-color="#00E3FF"/>
</linearGradient>
<linearGradient id="paint1_linear_91_24" x1="17.5062" y1="9.4397" x2="-0.24213" y2="9.4397" gradientUnits="userSpaceOnUse">
<stop stop-color="#FFE000"/>
<stop offset="0.41" stop-color="#FFBD00"/>
<stop offset="0.78" stop-color="#FFA500"/>
<stop offset="1" stop-color="#FF9C00"/>
</linearGradient>
<linearGradient id="paint2_linear_91_24" x1="10.9028" y1="11.1273" x2="-5.79639" y2="27.8191" gradientUnits="userSpaceOnUse">
<stop stop-color="#FF3A44"/>
<stop offset="1" stop-color="#C31162"/>
</linearGradient>
<linearGradient id="paint3_linear_91_24" x1="-1.9591" y1="-5.10238" x2="5.49536" y2="2.35208" gradientUnits="userSpaceOnUse">
<stop stop-color="#32A071"/>
<stop offset="0.07" stop-color="#2DA771"/>
<stop offset="0.48" stop-color="#15CF74"/>
<stop offset="0.8" stop-color="#06E775"/>
<stop offset="1" stop-color="#00F076"/>
</linearGradient>
</defs>
</svg>
