<svg width="18" height="18" viewBox="0 0 18 18" fill="none" xmlns="http://www.w3.org/2000/svg">
<path d="M8.16669 14H9.83335V12.3333H8.16669V14ZM9.00002 0.666626C4.40002 0.666626 0.666687 4.39996 0.666687 8.99996C0.666687 13.6 4.40002 17.3333 9.00002 17.3333C13.6 17.3333 17.3334 13.6 17.3334 8.99996C17.3334 4.39996 13.6 0.666626 9.00002 0.666626ZM9.00002 15.6666C5.32502 15.6666 2.33335 12.675 2.33335 8.99996C2.33335 5.32496 5.32502 2.33329 9.00002 2.33329C12.675 2.33329 15.6667 5.32496 15.6667 8.99996C15.6667 12.675 12.675 15.6666 9.00002 15.6666ZM9.00002 3.99996C7.15835 3.99996 5.66669 5.49163 5.66669 7.33329H7.33335C7.33335 6.41663 8.08335 5.66663 9.00002 5.66663C9.91669 5.66663 10.6667 6.41663 10.6667 7.33329C10.6667 8.99996 8.16669 8.79163 8.16669 11.5H9.83335C9.83335 9.62496 12.3334 9.41663 12.3334 7.33329C12.3334 5.49163 10.8417 3.99996 9.00002 3.99996Z"/>
</svg>
