<svg width="17" height="20" viewBox="0 0 17 20" fill="none" xmlns="http://www.w3.org/2000/svg">
<path d="M16.665 14.811C16.378 15.475 16.038 16.086 15.644 16.648C15.107 17.415 14.666 17.945 14.328 18.24C13.803 18.722 13.239 18.97 12.636 18.984C12.204 18.984 11.682 18.861 11.074 18.611C10.464 18.362 9.904 18.24 9.391 18.24C8.854 18.24 8.278 18.362 7.661 18.611C7.045 18.861 6.547 18.992 6.166 19.004C5.589 19.029 5.012 18.775 4.437 18.24C4.07 17.92 3.611 17.37 3.06 16.592C2.47 15.763 1.985 14.798 1.605 13.701C1.198 12.514 0.993999 11.366 0.993999 10.254C0.993999 8.98102 1.269 7.88202 1.82 6.96202C2.254 6.22202 2.83 5.63902 3.55 5.21102C4.271 4.78202 5.051 4.56302 5.89 4.54902C6.35 4.54902 6.953 4.69102 7.7 4.97102C8.447 5.25102 8.927 5.39302 9.136 5.39302C9.294 5.39302 9.825 5.22602 10.729 4.89502C11.582 4.58802 12.302 4.46102 12.892 4.51102C14.492 4.64002 15.693 5.27002 16.492 6.40602C15.062 7.27302 14.355 8.48602 14.369 10.043C14.381 11.256 14.822 12.265 15.686 13.066C16.078 13.438 16.515 13.725 17.001 13.929C16.895 14.236 16.783 14.529 16.665 14.811ZM12.998 0.380024C12.998 1.33002 12.65 2.21802 11.959 3.03902C11.123 4.01502 10.113 4.58002 9.018 4.49102C9.004 4.37702 8.997 4.25702 8.997 4.13102C8.997 3.21802 9.393 2.24202 10.1 1.44302C10.452 1.03902 10.9 0.702024 11.443 0.434023C11.985 0.170024 12.497 0.0240234 12.979 -0.000976562C12.992 0.127023 12.998 0.254024 12.998 0.380024Z" >
</svg>
