<svg width="18" height="18" viewBox="0 0 18 18" fill="none" xmlns="http://www.w3.org/2000/svg">
<g clip-path="url(#clip0_86_679)">
<path d="M13.5 6C13.5 3.51375 11.4862 1.5 9 1.5C6.51375 1.5 4.5 3.51375 4.5 6C4.5 9.375 9 14.25 9 14.25C9 14.25 13.5 9.375 13.5 6ZM7.5 6C7.5 5.17125 8.17125 4.5 9 4.5C9.82875 4.5 10.5 5.17125 10.5 6C10.5 6.82875 9.82875 7.5 9 7.5C8.17125 7.5 7.5 6.82875 7.5 6ZM3.75 15V16.5H14.25V15H3.75Z" fill="#8C8D96"/>
</g>
<defs>
<clipPath id="clip0_86_679">
<rect width="18" height="18" fill="white"/>
</clipPath>
</defs>
</svg>
