<svg width="40" height="40" viewBox="0 0 40 40" fill="none" xmlns="http://www.w3.org/2000/svg">
<path fill-rule="evenodd" clip-rule="evenodd" d="M20 40C16.0444 40 12.1775 38.827 8.88854 36.6294C5.59956 34.4318 3.03616 31.3082 1.52241 27.6537C0.00865629 23.9992 -0.387398 19.9778 0.384307 16.0982C1.15601 12.2186 3.06079 8.65493 5.85784 5.85787C8.65489 3.06082 12.2186 1.15601 16.0982 0.384304C19.9778 -0.387401 23.9992 0.00866572 27.6537 1.52242C31.3082 3.03617 34.4318 5.59963 36.6294 8.88861C38.8271 12.1776 40 16.0444 40 20C40 25.3043 37.8929 30.3914 34.1422 34.1422C30.3914 37.8929 25.3043 40 20 40ZM20 3.33335C16.7036 3.33335 13.4813 4.31083 10.7405 6.14218C7.99963 7.97354 5.8635 10.5765 4.60204 13.622C3.34058 16.6674 3.01047 20.0185 3.65355 23.2515C4.29664 26.4845 5.88404 29.4543 8.21492 31.7851C10.5458 34.116 13.5154 35.7034 16.7484 36.3464C19.9815 36.9895 23.3326 36.6595 26.3781 35.398C29.4235 34.1365 32.0265 32.0003 33.8578 29.2595C35.6892 26.5187 36.6667 23.2964 36.6667 20C36.6667 15.5797 34.9107 11.3405 31.7851 8.2149C28.6595 5.08929 24.4203 3.33335 20 3.33335ZM19.8666 27.2217C19.8074 27.4688 19.6805 27.6945 19.5 27.8734C19.3445 28.0298 19.1562 28.1497 18.9487 28.2244C18.7411 28.2991 18.5195 28.3266 18.3 28.305C17.9534 28.3292 17.6091 28.2341 17.3241 28.0355C17.0391 27.8369 16.8306 27.5468 16.7333 27.2134L12.0333 22.5167C11.7796 22.2308 11.6447 21.8588 11.656 21.4767C11.6673 21.0946 11.824 20.7313 12.0942 20.4609C12.3644 20.1905 12.7277 20.0334 13.1097 20.0218C13.4918 20.0102 13.8639 20.1449 14.15 20.3983L17.7833 24.0383L25.2167 10.86C25.3234 10.6647 25.4681 10.4928 25.6424 10.3543C25.8167 10.2159 26.0169 10.1137 26.2313 10.0539C26.4457 9.99413 26.6698 9.97787 26.8906 10.0061C27.1113 10.0343 27.3243 10.1065 27.5167 10.2183C27.9037 10.4571 28.1826 10.837 28.2946 11.2778C28.4065 11.7185 28.3427 12.1855 28.1167 12.58L19.8666 27.2217Z" fill="#37A44E"/>
</svg>
