<svg width="40" height="40" viewBox="0 0 40 40" fill="none" xmlns="http://www.w3.org/2000/svg">
<path fill-rule="evenodd" clip-rule="evenodd" d="M20 40C16.0444 40 12.1775 38.827 8.88854 36.6294C5.59956 34.4318 3.03616 31.3082 1.52241 27.6537C0.00865628 23.9992 -0.387398 19.9778 0.384307 16.0982C1.15601 12.2186 3.06079 8.65492 5.85784 5.85787C8.65489 3.06082 12.2186 1.15601 16.0982 0.384303C19.9778 -0.387401 23.9992 0.00866572 27.6537 1.52242C31.3082 3.03617 34.4318 5.59963 36.6294 8.88861C38.8271 12.1776 40 16.0444 40 20C40 25.3043 37.8929 30.3914 34.1421 34.1421C30.3914 37.8929 25.3043 40 20 40ZM20 3.33334C16.7036 3.33334 13.4813 4.31082 10.7404 6.14218C7.99963 7.97354 5.8635 10.5765 4.60204 13.622C3.34058 16.6674 3.01047 20.0185 3.65355 23.2515C4.29664 26.4845 5.88404 29.4542 8.21491 31.7851C10.5458 34.116 13.5154 35.7033 16.7484 36.3464C19.9815 36.9895 23.3326 36.6595 26.3781 35.398C29.4235 34.1365 32.0265 32.0003 33.8578 29.2595C35.6892 26.5187 36.6667 23.2964 36.6667 20C36.6667 15.5797 34.9107 11.3405 31.7851 8.2149C28.6595 5.08929 24.4203 3.33334 20 3.33334ZM27.8433 27.8433C27.6961 27.9905 27.5214 28.1073 27.3291 28.187C27.1368 28.2666 26.9307 28.3076 26.7225 28.3076C26.5143 28.3076 26.3082 28.2666 26.1159 28.187C25.9236 28.1073 25.7489 27.9905 25.6017 27.8433L19.975 22.2167L14.3483 27.8433C14.2031 27.9973 14.0285 28.1206 13.8347 28.2058C13.641 28.2911 13.4321 28.3366 13.2205 28.3396C13.0089 28.3427 12.7988 28.3032 12.6027 28.2236C12.4066 28.144 12.2284 28.0258 12.0788 27.8761C11.9292 27.7264 11.8112 27.5482 11.7318 27.352C11.6523 27.1558 11.613 26.9457 11.6162 26.7341C11.6194 26.5225 11.6651 26.3137 11.7505 26.12C11.8359 25.9263 11.9593 25.7518 12.1133 25.6067L17.74 19.98L12.1133 14.3533C11.9593 14.2082 11.8359 14.0337 11.7505 13.84C11.6651 13.6464 11.6194 13.4375 11.6162 13.2259C11.613 13.0143 11.6523 12.8042 11.7318 12.608C11.8112 12.4118 11.9292 12.2336 12.0788 12.0839C12.2284 11.9342 12.4066 11.816 12.6027 11.7364C12.7988 11.6568 13.0089 11.6173 13.2205 11.6204C13.4321 11.6235 13.641 11.669 13.8347 11.7542C14.0285 11.8394 14.2031 11.9627 14.3483 12.1167L19.975 17.7434L25.6017 12.1167C25.7479 11.967 25.9224 11.8479 26.115 11.7662C26.3076 11.6844 26.5145 11.6417 26.7237 11.6405C26.933 11.6393 27.1403 11.6796 27.3339 11.7591C27.5274 11.8387 27.7033 11.9558 27.8512 12.1038C27.9992 12.2517 28.1164 12.4275 28.1959 12.6211C28.2754 12.8146 28.3157 13.022 28.3145 13.2312C28.3133 13.4405 28.2706 13.6474 28.1889 13.84C28.1071 14.0326 27.988 14.2071 27.8383 14.3533L22.2117 19.98L27.8383 25.6067C28.1352 25.9028 28.3024 26.3047 28.3033 26.724C28.3043 27.1433 28.1388 27.5459 27.8433 27.8433Z" fill="#E74C3C"/>
</svg>
