<svg width="40" height="36" viewBox="0 0 40 36" fill="none" xmlns="http://www.w3.org/2000/svg">
<path fill-rule="evenodd" clip-rule="evenodd" d="M4.80001 24.4819H1.68878C1.47588 24.4819 1.2948 24.6366 1.2616 24.8467L0.00326376 32.8248C-0.0217468 32.9823 0.10017 33.1242 0.259855 33.1242H1.74519C1.95809 33.1242 2.13916 32.9695 2.17236 32.7589L2.51175 30.6072C2.54449 30.3964 2.72601 30.2419 2.93847 30.2419H3.92338C5.97286 30.2419 7.1556 29.2501 7.46465 27.2848C7.60381 26.425 7.47054 25.7495 7.06781 25.2762C6.6257 24.7568 5.84128 24.4819 4.80001 24.4819ZM5.15896 27.3958C4.98885 28.5122 4.13584 28.5122 3.31106 28.5122H2.84157L3.17094 26.4271C3.19049 26.3012 3.29967 26.2084 3.42706 26.2084H3.64224C4.20407 26.2084 4.73412 26.2084 5.00801 26.5286C5.17117 26.7198 5.22128 27.0036 5.15896 27.3958ZM14.1002 27.36H12.6103C12.4834 27.36 12.3737 27.4528 12.3541 27.5789L12.2882 27.9956L12.184 27.8446C11.8615 27.3764 11.1423 27.22 10.4244 27.22C8.77792 27.22 7.37181 28.4669 7.09791 30.2162C6.9556 31.0886 7.15791 31.9229 7.65286 32.5048C8.10697 33.0398 8.75665 33.2627 9.5295 33.2627C10.856 33.2627 11.5918 32.4097 11.5918 32.4097L11.5253 32.8238C11.5002 32.9821 11.6221 33.124 11.7809 33.124H13.123C13.3365 33.124 13.5165 32.9693 13.5501 32.7587L14.3554 27.6594C14.3809 27.5025 14.2594 27.36 14.1002 27.36ZM12.0234 30.2598C11.8796 31.1109 11.204 31.6823 10.3426 31.6823C9.90992 31.6823 9.56402 31.5436 9.34213 31.2806C9.12192 31.0196 9.03813 30.6478 9.10823 30.2339C9.24255 29.3899 9.9295 28.8 10.7779 28.8C11.2009 28.8 11.5449 28.9404 11.7714 29.2057C11.9983 29.4737 12.0885 29.8476 12.0234 30.2598ZM20.5379 27.3598H22.0352C22.2449 27.3598 22.3672 27.5949 22.2481 27.7669L17.2685 34.9547C17.1878 35.0712 17.055 35.1404 16.9131 35.1404H15.4177C15.2072 35.1404 15.0842 34.9034 15.2061 34.7309L16.7567 32.5423L15.1076 27.7027C15.0506 27.5345 15.1748 27.3598 15.3537 27.3598H16.8249C17.016 27.3598 17.1847 27.4852 17.2398 27.6682L18.115 30.5911L20.1801 27.5495C20.2609 27.4307 20.3952 27.3598 20.5379 27.3598Z" fill="#253B80"/>
<path fill-rule="evenodd" clip-rule="evenodd" d="M36.7713 32.8248L38.0481 24.7008C38.0677 24.5746 38.177 24.4818 38.3039 24.4814H39.7414C39.9001 24.4814 40.022 24.6237 39.997 24.7812L38.7378 32.7589C38.705 32.9694 38.5239 33.1241 38.3106 33.1241H37.0269C36.8681 33.1241 36.7462 32.9822 36.7713 32.8248ZM26.9925 24.4818H23.8807C23.6683 24.4818 23.4872 24.6365 23.454 24.8466L22.1957 32.8248C22.1706 32.9822 22.2925 33.1241 22.4514 33.1241H24.0481C24.1965 33.1241 24.3235 33.0159 24.3466 32.8686L24.7037 30.6071C24.7365 30.3963 24.918 30.2418 25.1304 30.2418H26.1148C28.1647 30.2418 29.3473 29.25 29.6565 27.2848C29.7961 26.425 29.662 25.7494 29.2595 25.2761C28.8176 24.7568 28.0338 24.4818 26.9925 24.4818ZM27.3515 27.3957C27.1818 28.5121 26.3287 28.5121 25.5035 28.5121H25.0344L25.3643 26.4271C25.3839 26.3012 25.4921 26.2083 25.6199 26.2083H25.835C26.3965 26.2083 26.927 26.2083 27.2007 26.5285C27.3641 26.7197 27.4138 27.0035 27.3515 27.3957ZM36.2919 27.3599H34.8031C34.6751 27.3599 34.5664 27.4528 34.5473 27.5789L34.4814 27.9955L34.3767 27.8445C34.0542 27.3763 33.3355 27.2199 32.6176 27.2199C30.971 27.2199 29.5654 28.4669 29.2915 30.2161C29.1496 31.0886 29.351 31.9229 29.846 32.5048C30.3009 33.0397 30.9498 33.2627 31.7226 33.2627C33.0492 33.2627 33.7847 32.4096 33.7847 32.4096L33.7184 32.8237C33.6934 32.982 33.8153 33.1239 33.9751 33.1239H35.3165C35.529 33.1239 35.71 32.9692 35.7433 32.7587L36.549 27.6593C36.5736 27.5024 36.4517 27.3599 36.2919 27.3599ZM34.2153 30.2597C34.0723 31.1109 33.3959 31.6822 32.5342 31.6822C32.1024 31.6822 31.7559 31.5435 31.5338 31.2806C31.3136 31.0195 31.2308 30.6477 31.3001 30.2338C31.435 29.3898 32.1212 28.7999 32.9696 28.7999C33.3927 28.7999 33.7365 28.9403 33.9633 29.2056C34.1911 29.4736 34.2812 29.8475 34.2153 30.2597Z" fill="#179BD7"/>
<path d="M16.3143 21.6277L16.6968 19.1983L15.8448 19.1785H11.7764L14.6037 1.25081C14.6124 1.19668 14.641 1.14622 14.6827 1.11039C14.7244 1.07456 14.7778 1.05481 14.8334 1.05481H21.6934C23.9709 1.05481 25.5425 1.52873 26.3631 2.46412C26.7478 2.90294 26.9928 3.36149 27.1114 3.86612C27.2356 4.39564 27.2379 5.02825 27.1164 5.79983L27.1076 5.85615V6.35053L27.4924 6.56849C27.8164 6.74034 28.0737 6.93708 28.2711 7.16234C28.6004 7.53752 28.8133 8.01436 28.9031 8.57969C28.996 9.16112 28.9653 9.85298 28.8133 10.6363C28.6377 11.5373 28.3539 12.322 27.9707 12.9642C27.6181 13.5558 27.169 14.0465 26.636 14.4269C26.1269 14.7881 25.5221 15.0625 24.8383 15.238C24.1756 15.4105 23.4202 15.4976 22.5915 15.4976H22.0577C21.676 15.4976 21.305 15.6351 21.0141 15.8816C20.7223 16.1332 20.529 16.4768 20.4699 16.8528L20.4297 17.0715L19.7539 21.3534L19.7231 21.5107C19.7151 21.5606 19.7012 21.5854 19.6808 21.6023C19.6625 21.6174 19.6362 21.6277 19.6105 21.6277H16.3143Z" fill="#253B80"/>
<path d="M27.8567 5.91339C27.8363 6.0443 27.813 6.17813 27.7866 6.31562C26.8818 10.9605 23.7868 12.565 19.8338 12.565H17.8211C17.3378 12.565 16.9304 12.9161 16.855 13.3929L15.8245 19.9284L15.5327 21.7808C15.4837 22.0938 15.7251 22.3762 16.0409 22.3762H19.6108C20.0336 22.3762 20.3925 22.069 20.459 21.6522L20.4942 21.4707L21.1664 17.2054L21.2096 16.9715C21.2753 16.5532 21.635 16.246 22.0578 16.246H22.5917C26.0502 16.246 28.7578 14.8418 29.5492 10.7783C29.8797 9.08087 29.7085 7.66352 28.8338 6.66668C28.5692 6.36609 28.2407 6.1167 27.8567 5.91339Z" fill="#179BD7"/>
<path d="M26.9099 5.53633C26.7718 5.49609 26.629 5.45953 26.4827 5.42662C26.3358 5.39445 26.185 5.36593 26.0301 5.34106C25.4874 5.25329 24.8928 5.21161 24.2558 5.21161H18.8789C18.7465 5.21161 18.6208 5.24159 18.5082 5.29571C18.2602 5.41491 18.076 5.64969 18.0313 5.93711L16.8873 13.1819L16.8545 13.3932C16.9299 12.9164 17.3372 12.5654 17.8206 12.5654H19.8332C23.7863 12.5654 26.8815 10.96 27.7861 6.31595C27.813 6.17845 27.8358 6.04462 27.8562 5.91372C27.6274 5.7923 27.3794 5.68845 27.1124 5.59995C27.0467 5.57801 26.9787 5.55681 26.9099 5.53633Z" fill="#222D65"/>
<path d="M18.0311 5.93696C18.0758 5.64953 18.2602 5.41477 18.508 5.29629C18.6215 5.24216 18.7465 5.21218 18.8787 5.21218H24.2558C24.8928 5.21218 25.4874 5.25387 26.0299 5.34163C26.185 5.3665 26.3358 5.39502 26.4827 5.42719C26.629 5.46012 26.7716 5.49669 26.9099 5.5369C26.9785 5.55738 27.0465 5.57858 27.1131 5.5998C27.38 5.68829 27.628 5.79288 27.8568 5.91355C28.1261 4.19706 27.8547 3.02837 26.9267 1.97009C25.9036 0.805054 24.0568 0.306274 21.6939 0.306274H14.8337C14.3509 0.306274 13.9393 0.657307 13.8646 1.13489L11.0073 19.2468C10.9509 19.6052 11.2273 19.9285 11.5886 19.9285H15.824L16.8873 13.1817L18.0311 5.93696Z" fill="#253B80"/>
</svg>
