<svg width="24" height="24" viewBox="0 0 24 24" fill="none" xmlns="http://www.w3.org/2000/svg">
<g clip-path="url(#clip0_10_167)">
<path fill-rule="evenodd" clip-rule="evenodd" d="M12 18L7.91562 20.1473C7.42678 20.4043 6.82215 20.2163 6.56515 19.7275C6.46281 19.5328 6.4275 19.3099 6.46467 19.0931L7.24472 14.5451L3.94039 11.3242C3.5449 10.9387 3.53681 10.3056 3.92231 9.91007C4.07582 9.75258 4.27696 9.6501 4.4946 9.61847L9.06108 8.95493L11.1033 4.817C11.3477 4.32174 11.9473 4.1184 12.4426 4.36283C12.6398 4.46016 12.7994 4.61978 12.8967 4.817L14.9389 8.95493L19.5054 9.61847C20.0519 9.69789 20.4306 10.2053 20.3512 10.7519C20.3196 10.9695 20.2171 11.1707 20.0596 11.3242L16.7553 14.5451L17.5353 19.0931C17.6287 19.6375 17.2631 20.1544 16.7188 20.2478C16.502 20.2849 16.279 20.2496 16.0844 20.1473L12 18Z" fill="#4467FB"/>
</g>
<defs>
<clipPath id="clip0_10_167">
<rect width="24" height="24" fill="white"/>
</clipPath>
</defs>
</svg>
