<svg width="12" height="12" viewBox="0 0 12 12" fill="none" xmlns="http://www.w3.org/2000/svg">
<path d="M9.98438 0.75H2.01562C1.8082 0.75 1.64062 0.917578 1.64062 1.125V8.85938C1.64062 9.0668 1.8082 9.23438 2.01562 9.23438H9.98438C10.1918 9.23438 10.3594 9.0668 10.3594 8.85938V1.125C10.3594 0.917578 10.1918 0.75 9.98438 0.75ZM3.51562 3.84375C3.51562 3.45586 3.83086 3.14062 4.21875 3.14062C4.60664 3.14062 4.92188 3.45586 4.92188 3.84375C4.92188 4.23164 4.60664 4.54688 4.21875 4.54688C3.83086 4.54688 3.51562 4.23164 3.51562 3.84375ZM7.875 6.75C7.875 6.80156 7.83281 6.84375 7.78125 6.84375H4.21875C4.16719 6.84375 4.125 6.80156 4.125 6.75V6.04688C4.125 5.99531 4.16719 5.95312 4.21875 5.95312H7.78125C7.83281 5.95312 7.875 5.99531 7.875 6.04688V6.75ZM7.78125 4.54688C7.39336 4.54688 7.07812 4.23164 7.07812 3.84375C7.07812 3.45586 7.39336 3.14062 7.78125 3.14062C8.16914 3.14062 8.48438 3.45586 8.48438 3.84375C8.48438 4.23164 8.16914 4.54688 7.78125 4.54688ZM9.36328 10.125H2.63672C2.475 10.125 2.34375 10.2926 2.34375 10.5V11.1562C2.34375 11.2078 2.37656 11.25 2.41641 11.25H9.58242C9.62227 11.25 9.65508 11.2078 9.65508 11.1562V10.5C9.65625 10.2926 9.525 10.125 9.36328 10.125Z" fill="#8C8D96"/>
</svg>
