<svg width="303" height="300" viewBox="0 0 303 300" fill="none" xmlns="http://www.w3.org/2000/svg">
<path d="M302.073 0.926758H0.751953V299.996H302.073V0.926758Z" fill="white"/>
<path d="M23.0523 12.0046H11.8921V23.0812H23.0523V12.0046Z" fill="black"/>
<path d="M34.2482 12.0046H23.0884V23.0812H34.2482V12.0046Z" fill="black"/>
<path d="M45.3884 12.0046H34.2285V23.0812H45.3884V12.0046Z" fill="black"/>
<path d="M56.5576 12.0046H45.3977V23.0812H56.5576V12.0046Z" fill="black"/>
<path d="M67.6977 12.0046H56.5378V23.0812H67.6977V12.0046Z" fill="black"/>
<path d="M78.8944 12.0046H67.7341V23.0812H78.8944V12.0046Z" fill="black"/>
<path d="M90.0345 12.0046H78.8743V23.0812H90.0345V12.0046Z" fill="black"/>
<path d="M123.511 12.0046H112.351V23.0812H123.511V12.0046Z" fill="black"/>
<path d="M134.679 12.0046H123.519V23.0812H134.679V12.0046Z" fill="black"/>
<path d="M145.821 12.0046H134.66V23.0812H145.821V12.0046Z" fill="black"/>
<path d="M179.324 12.0046H168.164V23.0812H179.324V12.0046Z" fill="black"/>
<path d="M201.633 12.0046H190.474V23.0812H201.633V12.0046Z" fill="black"/>
<path d="M223.943 12.0046H212.783V23.0812H223.943V12.0046Z" fill="black"/>
<path d="M235.11 12.0046H223.95V23.0812H235.11V12.0046Z" fill="black"/>
<path d="M246.25 12.0046H235.091V23.0812H246.25V12.0046Z" fill="black"/>
<path d="M257.447 12.0046H246.287V23.0812H257.447V12.0046Z" fill="black"/>
<path d="M268.587 12.0046H257.427V23.0812H268.587V12.0046Z" fill="black"/>
<path d="M279.756 12.0046H268.596V23.0812H279.756V12.0046Z" fill="black"/>
<path d="M290.897 12.0046H279.736V23.0812H290.897V12.0046Z" fill="black"/>
<path d="M23.0523 23.0793H11.8921V34.1561H23.0523V23.0793Z" fill="black"/>
<path d="M90.0345 23.0793H78.8743V34.1561H90.0345V23.0793Z" fill="black"/>
<path d="M145.821 23.0793H134.66V34.1561H145.821V23.0793Z" fill="black"/>
<path d="M156.988 23.0793H145.828V34.1561H156.988V23.0793Z" fill="black"/>
<path d="M168.157 23.0793H156.997V34.1561H168.157V23.0793Z" fill="black"/>
<path d="M179.324 23.0793H168.164V34.1561H179.324V23.0793Z" fill="black"/>
<path d="M201.633 23.0793H190.474V34.1561H201.633V23.0793Z" fill="black"/>
<path d="M223.943 23.0793H212.783V34.1561H223.943V23.0793Z" fill="black"/>
<path d="M290.897 23.0793H279.736V34.1561H290.897V23.0793Z" fill="black"/>
<path d="M23.0523 34.1572H11.8921V45.2339H23.0523V34.1572Z" fill="black"/>
<path d="M45.3884 34.1572H34.2285V45.2339H45.3884V34.1572Z" fill="black"/>
<path d="M56.5576 34.1572H45.3977V45.2339H56.5576V34.1572Z" fill="black"/>
<path d="M67.6977 34.1572H56.5378V45.2339H67.6977V34.1572Z" fill="black"/>
<path d="M90.0345 34.1572H78.8743V45.2339H90.0345V34.1572Z" fill="black"/>
<path d="M123.511 34.1572H112.351V45.2339H123.511V34.1572Z" fill="black"/>
<path d="M134.679 34.1572H123.519V45.2339H134.679V34.1572Z" fill="black"/>
<path d="M145.821 34.1572H134.66V45.2339H145.821V34.1572Z" fill="black"/>
<path d="M179.324 34.1572H168.164V45.2339H179.324V34.1572Z" fill="black"/>
<path d="M201.633 34.1572H190.474V45.2339H201.633V34.1572Z" fill="black"/>
<path d="M223.943 34.1572H212.783V45.2339H223.943V34.1572Z" fill="black"/>
<path d="M246.25 34.1572H235.091V45.2339H246.25V34.1572Z" fill="black"/>
<path d="M257.447 34.1572H246.287V45.2339H257.447V34.1572Z" fill="black"/>
<path d="M268.587 34.1572H257.427V45.2339H268.587V34.1572Z" fill="black"/>
<path d="M290.897 34.1572H279.736V45.2339H290.897V34.1572Z" fill="black"/>
<path d="M23.0523 45.2319H11.8921V56.3086H23.0523V45.2319Z" fill="black"/>
<path d="M45.3884 45.2319H34.2285V56.3086H45.3884V45.2319Z" fill="black"/>
<path d="M56.5576 45.2319H45.3977V56.3086H56.5576V45.2319Z" fill="black"/>
<path d="M67.6977 45.2319H56.5378V56.3086H67.6977V45.2319Z" fill="black"/>
<path d="M90.0345 45.2319H78.8743V56.3086H90.0345V45.2319Z" fill="black"/>
<path d="M112.343 45.2319H101.184V56.3086H112.343V45.2319Z" fill="black"/>
<path d="M134.679 45.2319H123.519V56.3086H134.679V45.2319Z" fill="black"/>
<path d="M145.821 45.2319H134.66V56.3086H145.821V45.2319Z" fill="black"/>
<path d="M168.157 45.2319H156.997V56.3086H168.157V45.2319Z" fill="black"/>
<path d="M190.466 45.2319H179.306V56.3086H190.466V45.2319Z" fill="black"/>
<path d="M201.633 45.2319H190.474V56.3086H201.633V45.2319Z" fill="black"/>
<path d="M223.943 45.2319H212.783V56.3086H223.943V45.2319Z" fill="black"/>
<path d="M246.25 45.2319H235.091V56.3086H246.25V45.2319Z" fill="black"/>
<path d="M257.447 45.2319H246.287V56.3086H257.447V45.2319Z" fill="black"/>
<path d="M268.587 45.2319H257.427V56.3086H268.587V45.2319Z" fill="black"/>
<path d="M290.897 45.2319H279.736V56.3086H290.897V45.2319Z" fill="black"/>
<path d="M23.0523 56.3098H11.8921V67.3863H23.0523V56.3098Z" fill="black"/>
<path d="M45.3884 56.3098H34.2285V67.3863H45.3884V56.3098Z" fill="black"/>
<path d="M56.5576 56.3098H45.3977V67.3863H56.5576V56.3098Z" fill="black"/>
<path d="M67.6977 56.3098H56.5378V67.3863H67.6977V56.3098Z" fill="black"/>
<path d="M90.0345 56.3098H78.8743V67.3863H90.0345V56.3098Z" fill="black"/>
<path d="M112.343 56.3098H101.184V67.3863H112.343V56.3098Z" fill="black"/>
<path d="M134.679 56.3098H123.519V67.3863H134.679V56.3098Z" fill="black"/>
<path d="M156.988 56.3098H145.828V67.3863H156.988V56.3098Z" fill="black"/>
<path d="M179.324 56.3098H168.164V67.3863H179.324V56.3098Z" fill="black"/>
<path d="M201.633 56.3098H190.474V67.3863H201.633V56.3098Z" fill="black"/>
<path d="M223.943 56.3098H212.783V67.3863H223.943V56.3098Z" fill="black"/>
<path d="M246.25 56.3098H235.091V67.3863H246.25V56.3098Z" fill="black"/>
<path d="M257.447 56.3098H246.287V67.3863H257.447V56.3098Z" fill="black"/>
<path d="M268.587 56.3098H257.427V67.3863H268.587V56.3098Z" fill="black"/>
<path d="M290.897 56.3098H279.736V67.3863H290.897V56.3098Z" fill="black"/>
<path d="M23.0523 67.3838H11.8921V78.4605H23.0523V67.3838Z" fill="black"/>
<path d="M90.0345 67.3838H78.8743V78.4605H90.0345V67.3838Z" fill="black"/>
<path d="M123.511 67.3838H112.351V78.4605H123.511V67.3838Z" fill="black"/>
<path d="M134.679 67.3838H123.519V78.4605H134.679V67.3838Z" fill="black"/>
<path d="M168.157 67.3838H156.997V78.4605H168.157V67.3838Z" fill="black"/>
<path d="M179.324 67.3838H168.164V78.4605H179.324V67.3838Z" fill="black"/>
<path d="M223.943 67.3838H212.783V78.4605H223.943V67.3838Z" fill="black"/>
<path d="M290.897 67.3838H279.736V78.4605H290.897V67.3838Z" fill="black"/>
<path d="M23.0523 78.4656H11.8921V89.5422H23.0523V78.4656Z" fill="black"/>
<path d="M34.2482 78.4656H23.0884V89.5422H34.2482V78.4656Z" fill="black"/>
<path d="M45.3884 78.4656H34.2285V89.5422H45.3884V78.4656Z" fill="black"/>
<path d="M56.5576 78.4656H45.3977V89.5422H56.5576V78.4656Z" fill="black"/>
<path d="M67.6977 78.4656H56.5378V89.5422H67.6977V78.4656Z" fill="black"/>
<path d="M78.8944 78.4656H67.7341V89.5422H78.8944V78.4656Z" fill="black"/>
<path d="M90.0345 78.4656H78.8743V89.5422H90.0345V78.4656Z" fill="black"/>
<path d="M112.343 78.4656H101.184V89.5422H112.343V78.4656Z" fill="black"/>
<path d="M134.679 78.4656H123.519V89.5422H134.679V78.4656Z" fill="black"/>
<path d="M156.988 78.4656H145.828V89.5422H156.988V78.4656Z" fill="black"/>
<path d="M179.324 78.4656H168.164V89.5422H179.324V78.4656Z" fill="black"/>
<path d="M201.633 78.4656H190.474V89.5422H201.633V78.4656Z" fill="black"/>
<path d="M223.943 78.4656H212.783V89.5422H223.943V78.4656Z" fill="black"/>
<path d="M235.11 78.4656H223.95V89.5422H235.11V78.4656Z" fill="black"/>
<path d="M246.25 78.4656H235.091V89.5422H246.25V78.4656Z" fill="black"/>
<path d="M257.447 78.4656H246.287V89.5422H257.447V78.4656Z" fill="black"/>
<path d="M268.587 78.4656H257.427V89.5422H268.587V78.4656Z" fill="black"/>
<path d="M279.756 78.4656H268.596V89.5422H279.756V78.4656Z" fill="black"/>
<path d="M290.897 78.4656H279.736V89.5422H290.897V78.4656Z" fill="black"/>
<path d="M123.511 89.5396H112.351V100.616H123.511V89.5396Z" fill="black"/>
<path d="M156.988 89.5396H145.828V100.616H156.988V89.5396Z" fill="black"/>
<path d="M179.324 89.5396H168.164V100.616H179.324V89.5396Z" fill="black"/>
<path d="M201.633 89.5396H190.474V100.616H201.633V89.5396Z" fill="black"/>
<path d="M23.0523 100.617H11.8921V111.694H23.0523V100.617Z" fill="black"/>
<path d="M34.2482 100.617H23.0884V111.694H34.2482V100.617Z" fill="black"/>
<path d="M78.8944 100.617H67.7341V111.694H78.8944V100.617Z" fill="black"/>
<path d="M90.0345 100.617H78.8743V111.694H90.0345V100.617Z" fill="black"/>
<path d="M101.202 100.617H90.0417V111.694H101.202V100.617Z" fill="black"/>
<path d="M123.511 100.617H112.351V111.694H123.511V100.617Z" fill="black"/>
<path d="M134.679 100.617H123.519V111.694H134.679V100.617Z" fill="black"/>
<path d="M156.988 100.617H145.828V111.694H156.988V100.617Z" fill="black"/>
<path d="M168.157 100.617H156.997V111.694H168.157V100.617Z" fill="black"/>
<path d="M179.324 100.617H168.164V111.694H179.324V100.617Z" fill="black"/>
<path d="M190.466 100.617H179.306V111.694H190.466V100.617Z" fill="black"/>
<path d="M201.633 100.617H190.474V111.694H201.633V100.617Z" fill="black"/>
<path d="M246.25 100.617H235.091V111.694H246.25V100.617Z" fill="black"/>
<path d="M257.447 100.617H246.287V111.694H257.447V100.617Z" fill="black"/>
<path d="M45.3884 111.695H34.2285V122.772H45.3884V111.695Z" fill="black"/>
<path d="M67.6977 111.695H56.5378V122.772H67.6977V111.695Z" fill="black"/>
<path d="M134.679 111.695H123.519V122.772H134.679V111.695Z" fill="black"/>
<path d="M179.324 111.695H168.164V122.772H179.324V111.695Z" fill="black"/>
<path d="M190.466 111.695H179.306V122.772H190.466V111.695Z" fill="black"/>
<path d="M235.11 111.695H223.95V122.772H235.11V111.695Z" fill="black"/>
<path d="M246.25 111.695H235.091V122.772H246.25V111.695Z" fill="black"/>
<path d="M257.447 111.695H246.287V122.772H257.447V111.695Z" fill="black"/>
<path d="M268.587 111.695H257.427V122.772H268.587V111.695Z" fill="black"/>
<path d="M279.756 111.695H268.596V122.772H279.756V111.695Z" fill="black"/>
<path d="M34.2482 122.77H23.0884V133.847H34.2482V122.77Z" fill="black"/>
<path d="M67.6977 122.77H56.5378V133.847H67.6977V122.77Z" fill="black"/>
<path d="M78.8944 122.77H67.7341V133.847H78.8944V122.77Z" fill="black"/>
<path d="M90.0345 122.77H78.8743V133.847H90.0345V122.77Z" fill="black"/>
<path d="M101.202 122.77H90.0417V133.847H101.202V122.77Z" fill="black"/>
<path d="M123.511 122.77H112.351V133.847H123.511V122.77Z" fill="black"/>
<path d="M145.821 122.77H134.66V133.847H145.821V122.77Z" fill="black"/>
<path d="M156.988 122.77H145.828V133.847H156.988V122.77Z" fill="black"/>
<path d="M168.157 122.77H156.997V133.847H168.157V122.77Z" fill="black"/>
<path d="M179.324 122.77H168.164V133.847H179.324V122.77Z" fill="black"/>
<path d="M190.466 122.77H179.306V133.847H190.466V122.77Z" fill="black"/>
<path d="M212.801 122.77H201.641V133.847H212.801V122.77Z" fill="black"/>
<path d="M223.943 122.77H212.783V133.847H223.943V122.77Z" fill="black"/>
<path d="M246.25 122.77H235.091V133.847H246.25V122.77Z" fill="black"/>
<path d="M257.447 122.77H246.287V133.847H257.447V122.77Z" fill="black"/>
<path d="M279.756 122.77H268.596V133.847H279.756V122.77Z" fill="black"/>
<path d="M290.897 122.77H279.736V133.847H290.897V122.77Z" fill="black"/>
<path d="M56.5576 133.848H45.3977V144.924H56.5576V133.848Z" fill="black"/>
<path d="M112.343 133.848H101.184V144.924H112.343V133.848Z" fill="black"/>
<path d="M134.679 133.848H123.519V144.924H134.679V133.848Z" fill="black"/>
<path d="M145.821 133.848H134.66V144.924H145.821V133.848Z" fill="black"/>
<path d="M190.466 133.848H179.306V144.924H190.466V133.848Z" fill="black"/>
<path d="M201.633 133.848H190.474V144.924H201.633V133.848Z" fill="black"/>
<path d="M212.801 133.848H201.641V144.924H212.801V133.848Z" fill="black"/>
<path d="M223.943 133.848H212.783V144.924H223.943V133.848Z" fill="black"/>
<path d="M235.11 133.848H223.95V144.924H235.11V133.848Z" fill="black"/>
<path d="M246.25 133.848H235.091V144.924H246.25V133.848Z" fill="black"/>
<path d="M257.447 133.848H246.287V144.924H257.447V133.848Z" fill="black"/>
<path d="M290.897 133.848H279.736V144.924H290.897V133.848Z" fill="black"/>
<path d="M23.0523 144.923H11.8921V155.999H23.0523V144.923Z" fill="black"/>
<path d="M34.2482 144.923H23.0884V155.999H34.2482V144.923Z" fill="black"/>
<path d="M45.3884 144.923H34.2285V155.999H45.3884V144.923Z" fill="black"/>
<path d="M56.5576 144.923H45.3977V155.999H56.5576V144.923Z" fill="black"/>
<path d="M67.6977 144.923H56.5378V155.999H67.6977V144.923Z" fill="black"/>
<path d="M90.0345 144.923H78.8743V155.999H90.0345V144.923Z" fill="black"/>
<path d="M112.343 144.923H101.184V155.999H112.343V144.923Z" fill="black"/>
<path d="M123.511 144.923H112.351V155.999H123.511V144.923Z" fill="black"/>
<path d="M134.679 144.923H123.519V155.999H134.679V144.923Z" fill="black"/>
<path d="M179.324 144.923H168.164V155.999H179.324V144.923Z" fill="black"/>
<path d="M201.633 144.923H190.474V155.999H201.633V144.923Z" fill="black"/>
<path d="M223.943 144.923H212.783V155.999H223.943V144.923Z" fill="black"/>
<path d="M235.11 144.923H223.95V155.999H235.11V144.923Z" fill="black"/>
<path d="M290.897 144.923H279.736V155.999H290.897V144.923Z" fill="black"/>
<path d="M23.0523 156H11.8921V167.077H23.0523V156Z" fill="black"/>
<path d="M34.2482 156H23.0884V167.077H34.2482V156Z" fill="black"/>
<path d="M67.6977 156H56.5378V167.077H67.6977V156Z" fill="black"/>
<path d="M78.8944 156H67.7341V167.077H78.8944V156Z" fill="black"/>
<path d="M123.511 156H112.351V167.077H123.511V156Z" fill="black"/>
<path d="M134.679 156H123.519V167.077H134.679V156Z" fill="black"/>
<path d="M156.988 156H145.828V167.077H156.988V156Z" fill="black"/>
<path d="M179.324 156H168.164V167.077H179.324V156Z" fill="black"/>
<path d="M190.466 156H179.306V167.077H190.466V156Z" fill="black"/>
<path d="M235.11 156H223.95V167.077H235.11V156Z" fill="black"/>
<path d="M279.756 156H268.596V167.077H279.756V156Z" fill="black"/>
<path d="M23.0523 167.075H11.8921V178.152H23.0523V167.075Z" fill="black"/>
<path d="M45.3884 167.075H34.2285V178.152H45.3884V167.075Z" fill="black"/>
<path d="M56.5576 167.075H45.3977V178.152H56.5576V167.075Z" fill="black"/>
<path d="M90.0345 167.075H78.8743V178.152H90.0345V167.075Z" fill="black"/>
<path d="M112.343 167.075H101.184V178.152H112.343V167.075Z" fill="black"/>
<path d="M168.157 167.075H156.997V178.152H168.157V167.075Z" fill="black"/>
<path d="M179.324 167.075H168.164V178.152H179.324V167.075Z" fill="black"/>
<path d="M190.466 167.075H179.306V178.152H190.466V167.075Z" fill="black"/>
<path d="M201.633 167.075H190.474V178.152H201.633V167.075Z" fill="black"/>
<path d="M212.801 167.075H201.641V178.152H212.801V167.075Z" fill="black"/>
<path d="M235.11 167.075H223.95V178.152H235.11V167.075Z" fill="black"/>
<path d="M246.25 167.075H235.091V178.152H246.25V167.075Z" fill="black"/>
<path d="M257.447 167.075H246.287V178.152H257.447V167.075Z" fill="black"/>
<path d="M279.756 167.075H268.596V178.152H279.756V167.075Z" fill="black"/>
<path d="M290.897 167.075H279.736V178.152H290.897V167.075Z" fill="black"/>
<path d="M23.0523 178.153H11.8921V189.23H23.0523V178.153Z" fill="black"/>
<path d="M45.3884 178.153H34.2285V189.23H45.3884V178.153Z" fill="black"/>
<path d="M56.5576 178.153H45.3977V189.23H56.5576V178.153Z" fill="black"/>
<path d="M78.8944 178.152H67.7341V189.229H78.8944V178.152Z" fill="black"/>
<path d="M156.988 178.153H145.828V189.23H156.988V178.153Z" fill="black"/>
<path d="M190.466 178.152H179.306V189.229H190.466V178.152Z" fill="black"/>
<path d="M201.633 178.153H190.474V189.23H201.633V178.153Z" fill="black"/>
<path d="M223.943 178.153H212.783V189.23H223.943V178.153Z" fill="black"/>
<path d="M235.11 178.153H223.95V189.23H235.11V178.153Z" fill="black"/>
<path d="M268.587 178.153H257.427V189.23H268.587V178.153Z" fill="black"/>
<path d="M290.897 178.153H279.736V189.23H290.897V178.153Z" fill="black"/>
<path d="M23.0523 189.227H11.8921V200.304H23.0523V189.227Z" fill="black"/>
<path d="M90.0345 189.227H78.8743V200.304H90.0345V189.227Z" fill="black"/>
<path d="M101.202 189.227H90.0417V200.304H101.202V189.227Z" fill="black"/>
<path d="M134.679 189.227H123.519V200.304H134.679V189.227Z" fill="black"/>
<path d="M156.988 189.227H145.828V200.304H156.988V189.227Z" fill="black"/>
<path d="M168.157 189.227H156.997V200.304H168.157V189.227Z" fill="black"/>
<path d="M179.324 189.227H168.164V200.304H179.324V189.227Z" fill="black"/>
<path d="M201.633 189.227H190.474V200.304H201.633V189.227Z" fill="black"/>
<path d="M212.801 189.227H201.641V200.304H212.801V189.227Z" fill="black"/>
<path d="M223.943 189.227H212.783V200.304H223.943V189.227Z" fill="black"/>
<path d="M235.11 189.227H223.95V200.304H235.11V189.227Z" fill="black"/>
<path d="M246.25 189.227H235.091V200.304H246.25V189.227Z" fill="black"/>
<path d="M268.587 189.227H257.427V200.304H268.587V189.227Z" fill="black"/>
<path d="M112.343 200.305H101.184V211.382H112.343V200.305Z" fill="black"/>
<path d="M123.511 200.305H112.351V211.382H123.511V200.305Z" fill="black"/>
<path d="M134.679 200.305H123.519V211.382H134.679V200.305Z" fill="black"/>
<path d="M179.324 200.305H168.164V211.382H179.324V200.305Z" fill="black"/>
<path d="M201.633 200.305H190.474V211.382H201.633V200.305Z" fill="black"/>
<path d="M246.25 200.305H235.091V211.382H246.25V200.305Z" fill="black"/>
<path d="M268.587 200.305H257.427V211.382H268.587V200.305Z" fill="black"/>
<path d="M23.0523 211.383H11.8921V222.46H23.0523V211.383Z" fill="black"/>
<path d="M34.2482 211.383H23.0884V222.46H34.2482V211.383Z" fill="black"/>
<path d="M45.3884 211.383H34.2285V222.46H45.3884V211.383Z" fill="black"/>
<path d="M56.5576 211.383H45.3977V222.46H56.5576V211.383Z" fill="black"/>
<path d="M67.6977 211.383H56.5378V222.46H67.6977V211.383Z" fill="black"/>
<path d="M78.8944 211.383H67.7341V222.46H78.8944V211.383Z" fill="black"/>
<path d="M90.0345 211.383H78.8743V222.46H90.0345V211.383Z" fill="black"/>
<path d="M112.343 211.383H101.184V222.46H112.343V211.383Z" fill="black"/>
<path d="M123.511 211.383H112.351V222.46H123.511V211.383Z" fill="black"/>
<path d="M134.679 211.383H123.519V222.46H134.679V211.383Z" fill="black"/>
<path d="M156.988 211.383H145.828V222.46H156.988V211.383Z" fill="black"/>
<path d="M168.157 211.383H156.997V222.46H168.157V211.383Z" fill="black"/>
<path d="M201.633 211.383H190.474V222.46H201.633V211.383Z" fill="black"/>
<path d="M223.943 211.383H212.783V222.46H223.943V211.383Z" fill="black"/>
<path d="M246.25 211.383H235.091V222.46H246.25V211.383Z" fill="black"/>
<path d="M257.447 211.383H246.287V222.46H257.447V211.383Z" fill="black"/>
<path d="M290.897 211.383H279.736V222.46H290.897V211.383Z" fill="black"/>
<path d="M23.0523 222.458H11.8921V233.534H23.0523V222.458Z" fill="black"/>
<path d="M90.0345 222.458H78.8743V233.534H90.0345V222.458Z" fill="black"/>
<path d="M112.343 222.458H101.184V233.534H112.343V222.458Z" fill="black"/>
<path d="M134.679 222.458H123.519V233.534H134.679V222.458Z" fill="black"/>
<path d="M145.821 222.458H134.66V233.534H145.821V222.458Z" fill="black"/>
<path d="M190.466 222.458H179.306V233.534H190.466V222.458Z" fill="black"/>
<path d="M201.633 222.458H190.474V233.534H201.633V222.458Z" fill="black"/>
<path d="M246.25 222.458H235.091V233.534H246.25V222.458Z" fill="black"/>
<path d="M290.897 222.458H279.736V233.534H290.897V222.458Z" fill="black"/>
<path d="M23.0523 233.539H11.8921V244.615H23.0523V233.539Z" fill="black"/>
<path d="M45.3884 233.539H34.2285V244.615H45.3884V233.539Z" fill="black"/>
<path d="M56.5576 233.539H45.3977V244.615H56.5576V233.539Z" fill="black"/>
<path d="M67.6977 233.539H56.5378V244.615H67.6977V233.539Z" fill="black"/>
<path d="M90.0345 233.539H78.8743V244.615H90.0345V233.539Z" fill="black"/>
<path d="M145.821 233.539H134.66V244.615H145.821V233.539Z" fill="black"/>
<path d="M156.988 233.539H145.828V244.615H156.988V233.539Z" fill="black"/>
<path d="M168.157 233.539H156.997V244.615H168.157V233.539Z" fill="black"/>
<path d="M179.324 233.539H168.164V244.615H179.324V233.539Z" fill="black"/>
<path d="M190.466 233.539H179.306V244.615H190.466V233.539Z" fill="black"/>
<path d="M201.633 233.539H190.474V244.615H201.633V233.539Z" fill="black"/>
<path d="M212.801 233.539H201.641V244.615H212.801V233.539Z" fill="black"/>
<path d="M223.943 233.539H212.783V244.615H223.943V233.539Z" fill="black"/>
<path d="M235.11 233.539H223.95V244.615H235.11V233.539Z" fill="black"/>
<path d="M246.25 233.539H235.091V244.615H246.25V233.539Z" fill="black"/>
<path d="M257.447 233.539H246.287V244.615H257.447V233.539Z" fill="black"/>
<path d="M268.587 233.539H257.427V244.615H268.587V233.539Z" fill="black"/>
<path d="M23.0523 244.613H11.8921V255.69H23.0523V244.613Z" fill="black"/>
<path d="M45.3884 244.613H34.2285V255.69H45.3884V244.613Z" fill="black"/>
<path d="M56.5576 244.613H45.3977V255.69H56.5576V244.613Z" fill="black"/>
<path d="M67.6977 244.613H56.5378V255.69H67.6977V244.613Z" fill="black"/>
<path d="M90.0345 244.613H78.8743V255.69H90.0345V244.613Z" fill="black"/>
<path d="M123.511 244.613H112.351V255.69H123.511V244.613Z" fill="black"/>
<path d="M134.679 244.613H123.519V255.69H134.679V244.613Z" fill="black"/>
<path d="M156.988 244.613H145.828V255.69H156.988V244.613Z" fill="black"/>
<path d="M179.324 244.613H168.164V255.69H179.324V244.613Z" fill="black"/>
<path d="M212.801 244.613H201.641V255.69H212.801V244.613Z" fill="black"/>
<path d="M223.943 244.613H212.783V255.69H223.943V244.613Z" fill="black"/>
<path d="M257.447 244.613H246.287V255.69H257.447V244.613Z" fill="black"/>
<path d="M279.756 244.613H268.596V255.69H279.756V244.613Z" fill="black"/>
<path d="M290.897 244.613H279.736V255.69H290.897V244.613Z" fill="black"/>
<path d="M23.0523 255.691H11.8921V266.768H23.0523V255.691Z" fill="black"/>
<path d="M45.3884 255.691H34.2285V266.768H45.3884V255.691Z" fill="black"/>
<path d="M56.5576 255.691H45.3977V266.768H56.5576V255.691Z" fill="black"/>
<path d="M67.6977 255.691H56.5378V266.768H67.6977V255.691Z" fill="black"/>
<path d="M90.0345 255.691H78.8743V266.768H90.0345V255.691Z" fill="black"/>
<path d="M134.679 255.691H123.519V266.768H134.679V255.691Z" fill="black"/>
<path d="M168.157 255.691H156.997V266.768H168.157V255.691Z" fill="black"/>
<path d="M179.324 255.691H168.164V266.768H179.324V255.691Z" fill="black"/>
<path d="M201.633 255.691H190.474V266.768H201.633V255.691Z" fill="black"/>
<path d="M235.11 255.691H223.95V266.768H235.11V255.691Z" fill="black"/>
<path d="M268.587 255.691H257.427V266.768H268.587V255.691Z" fill="black"/>
<path d="M290.897 255.691H279.736V266.768H290.897V255.691Z" fill="black"/>
<path d="M23.0523 266.766H11.8921V277.843H23.0523V266.766Z" fill="black"/>
<path d="M90.0345 266.766H78.8743V277.843H90.0345V266.766Z" fill="black"/>
<path d="M112.343 266.766H101.184V277.843H112.343V266.766Z" fill="black"/>
<path d="M134.679 266.766H123.519V277.843H134.679V266.766Z" fill="black"/>
<path d="M156.988 266.766H145.828V277.843H156.988V266.766Z" fill="black"/>
<path d="M179.324 266.766H168.164V277.843H179.324V266.766Z" fill="black"/>
<path d="M201.633 266.766H190.474V277.843H201.633V266.766Z" fill="black"/>
<path d="M235.11 266.766H223.95V277.843H235.11V266.766Z" fill="black"/>
<path d="M246.25 266.766H235.091V277.843H246.25V266.766Z" fill="black"/>
<path d="M290.897 266.766H279.736V277.843H290.897V266.766Z" fill="black"/>
<path d="M23.0523 277.844H11.8921V288.92H23.0523V277.844Z" fill="black"/>
<path d="M34.2482 277.844H23.0884V288.92H34.2482V277.844Z" fill="black"/>
<path d="M45.3884 277.844H34.2285V288.92H45.3884V277.844Z" fill="black"/>
<path d="M56.5576 277.844H45.3977V288.92H56.5576V277.844Z" fill="black"/>
<path d="M67.6977 277.844H56.5378V288.92H67.6977V277.844Z" fill="black"/>
<path d="M78.8944 277.844H67.7341V288.92H78.8944V277.844Z" fill="black"/>
<path d="M90.0345 277.844H78.8743V288.92H90.0345V277.844Z" fill="black"/>
<path d="M112.343 277.844H101.184V288.92H112.343V277.844Z" fill="black"/>
<path d="M123.511 277.844H112.351V288.92H123.511V277.844Z" fill="black"/>
<path d="M201.633 277.844H190.474V288.92H201.633V277.844Z" fill="black"/>
<path d="M223.943 277.844H212.783V288.92H223.943V277.844Z" fill="black"/>
<path d="M257.447 277.844H246.287V288.92H257.447V277.844Z" fill="black"/>
<path d="M290.897 277.844H279.736V288.92H290.897V277.844Z" fill="black"/>
</svg>
