<svg width="16" height="16" viewBox="0 0 16 16" fill="none" xmlns="http://www.w3.org/2000/svg">
<g clip-path="url(#clip0_194_250)">
<path fill-rule="evenodd" clip-rule="evenodd" d="M15.6988 14.2929L10.8798 9.47086C11.6508 8.37928 12.0313 7.06138 11.9604 5.72861C11.8895 4.39585 11.3712 3.12542 10.4887 2.12113C9.60621 1.11684 8.41066 0.436948 7.0938 0.190406C5.77695 -0.0561359 4.41512 0.14499 3.22677 0.761573C2.03841 1.37816 1.09241 2.37445 0.540501 3.59061C-0.0114107 4.80677 -0.137268 6.17233 0.183167 7.46824C0.503603 8.76415 1.25174 9.91529 2.30756 10.737C3.36338 11.5588 4.66568 12.0035 6.00559 11.9999C7.2497 11.9999 8.46227 11.6098 9.47126 10.8849L14.2902 15.7068C14.3827 15.7997 14.4927 15.8734 14.6139 15.9237C14.7352 15.974 14.8652 15.9999 14.9965 15.9999C15.1278 15.9999 15.2578 15.974 15.379 15.9237C15.5003 15.8734 15.6103 15.7997 15.7028 15.7068C15.8905 15.5188 15.9955 15.2642 15.9947 14.999C15.994 14.7338 15.8875 14.4799 15.6988 14.2929ZM6.00559 9.99985C5.21041 10.0042 4.43184 9.77333 3.76854 9.33646C3.10525 8.89959 2.58711 8.27638 2.27977 7.54587C1.97243 6.81536 1.88975 6.01044 2.0422 5.23307C2.19465 4.4557 2.57535 3.74091 3.13608 3.1793C3.69681 2.61768 4.41231 2.23454 5.1919 2.07841C5.97149 1.92227 6.78009 2.00019 7.51517 2.30228C8.25025 2.60438 8.87874 3.11704 9.32098 3.77531C9.76323 4.43357 9.9993 5.20779 9.99931 5.99985C10.0008 6.5237 9.89864 7.04268 9.69872 7.5272C9.49881 8.01172 9.20503 8.45227 8.83417 8.82371C8.46332 9.19514 8.02265 9.49019 7.53732 9.69199C7.05199 9.89379 6.53151 9.99841 6.00559 9.99985Z" fill="#8C8D96"/>
</g>
<defs>
<clipPath id="clip0_194_250">
<rect width="16" height="16" fill="white"/>
</clipPath>
</defs>
</svg>
