<svg width="51" height="22" viewBox="0 0 51 22" fill="none" xmlns="http://www.w3.org/2000/svg">
<path fill-rule="evenodd" clip-rule="evenodd" d="M27.6106 3.28385L24.0547 4.04698V1.16404L27.6106 0.415039V3.28385ZM13.1604 2.05434L9.70368 2.7892L9.68951 14.109C9.68951 16.2005 11.262 17.7409 13.3587 17.7409C14.5204 17.7409 15.3704 17.529 15.8379 17.2746V14.4058C15.3845 14.5895 13.1462 15.2396 13.1462 13.148V8.13113H15.8379V5.121H13.1462L13.1604 2.05434ZM50.9995 11.3533C50.9995 7.73545 49.2429 4.88077 45.8854 4.88077C42.5137 4.88077 40.4737 7.73545 40.4737 11.325C40.4737 15.5787 42.882 17.7268 46.3387 17.7268C48.0245 17.7268 49.2995 17.3453 50.2629 16.8082V13.9818C49.2995 14.4623 48.1945 14.7591 46.792 14.7591C45.4179 14.7591 44.1995 14.2786 44.0437 12.611H50.9712C50.9712 12.5331 50.9763 12.3563 50.9822 12.1525V12.1524V12.1523V12.1523C50.9901 11.8753 50.9995 11.5486 50.9995 11.3533ZM44.0011 10.0107C44.0011 8.41379 44.9786 7.74959 45.8711 7.74959C46.7353 7.74959 47.6561 8.41379 47.6561 10.0107H44.0011ZM4.78836 7.94745C4.03752 7.94745 3.58418 8.15943 3.58418 8.71058C3.58418 9.31235 4.36438 9.57707 5.3323 9.90547C6.91024 10.4409 8.98709 11.1455 8.99588 13.7557C8.99588 16.2854 6.97003 17.741 4.02335 17.741C2.80501 17.741 1.47334 17.5007 0.155834 16.9355V13.572C1.34584 14.2221 2.84751 14.7026 4.02335 14.7026C4.81669 14.7026 5.38336 14.4906 5.38336 13.8405C5.38336 13.174 4.53761 12.8693 3.51656 12.5015C1.96157 11.9413 0 11.2346 0 8.88017C0 6.37879 1.91251 4.88079 4.78836 4.88079C5.96419 4.88079 7.12587 5.06451 8.30171 5.53087V8.85191C7.22503 8.27249 5.86503 7.94745 4.78836 7.94745ZM20.2447 6.1668L20.0181 5.12102H16.9581V17.4866H20.4997V9.10627C21.3356 8.0181 22.7523 8.21595 23.1914 8.3714V5.12102C22.7381 4.95144 21.0806 4.64053 20.2447 6.1668ZM24.0548 5.12104H27.6107V17.4866H24.0548V5.12104ZM32.2286 5.98307C32.7245 5.53084 33.617 4.88077 35.0053 4.88077C37.4845 4.88077 39.822 7.11364 39.8362 11.2119C39.8362 15.6918 37.527 17.7268 34.9911 17.7268C33.7445 17.7268 32.9936 17.2039 32.4836 16.8365L32.4695 20.8359L28.9278 21.5849V5.10688H32.0445L32.2286 5.98307ZM32.484 13.9535C32.824 14.321 33.3198 14.6177 34.1556 14.6177C35.459 14.6177 36.3373 13.2045 36.3373 11.3108C36.3373 9.45955 35.4448 8.01808 34.1556 8.01808C33.3481 8.01808 32.8381 8.30072 32.4698 8.71055L32.484 13.9535Z" fill="#6461FC"/>
</svg>
