<svg width="221" height="51" viewBox="0 0 221 51" fill="none" xmlns="http://www.w3.org/2000/svg">
<path d="M90.3936 11.4209H95.8645L90.0691 40.6763H83.0682L77.2727 11.4209H82.79L86.5454 35.0663L90.3936 11.4209Z" fill="black"/>
<path d="M98.3721 11.4209H109.129C112.498 11.4209 114.182 12.9509 114.182 16.0109V25.33C114.182 28.39 112.498 29.92 109.129 29.92H103.704V40.6763H98.3721V11.4209ZM108.85 24.5882V16.7527C108.85 16.2581 108.758 15.9336 108.572 15.7791C108.387 15.5936 108.047 15.5009 107.552 15.5009H103.704V25.84H107.552C108.047 25.84 108.387 25.7627 108.572 25.6082C108.758 25.4227 108.85 25.0827 108.85 24.5882Z" fill="black"/>
<path d="M128.928 11.4209H133.796V40.6763H128.789L122.529 21.2963V40.6763H117.615V11.4209H122.761L128.928 30.5227V11.4209Z" fill="black"/>
<path d="M151.109 36.5963H158.898V40.6763H145.777V11.4209H151.109V36.5963Z" fill="black"/>
<path d="M165.759 17.9118H170.998C174.275 17.9118 175.913 19.4418 175.913 22.5018V36.0863C175.913 39.1463 174.275 40.6763 170.998 40.6763H165.759C162.452 40.6763 160.798 39.1463 160.798 36.0863V22.5018C160.798 19.4418 162.452 17.9118 165.759 17.9118ZM170.766 35.4836V23.1045C170.766 22.61 170.674 22.2854 170.488 22.1309C170.303 21.9454 169.947 21.8527 169.422 21.8527H167.289C166.764 21.8527 166.408 21.9454 166.223 22.1309C166.037 22.2854 165.945 22.61 165.945 23.1045V35.4836C165.945 35.9782 166.037 36.3182 166.223 36.5036C166.408 36.6582 166.764 36.7354 167.289 36.7354H169.422C169.947 36.7354 170.303 36.6582 170.488 36.5036C170.674 36.3182 170.766 35.9782 170.766 35.4836Z" fill="black"/>
<path d="M194.011 25.5618H188.864V23.2436C188.864 22.7491 188.771 22.4245 188.586 22.27C188.401 22.0845 188.061 21.9918 187.566 21.9918H185.897C185.402 21.9918 185.062 22.0845 184.877 22.27C184.691 22.4245 184.599 22.7491 184.599 23.2436V35.3445C184.599 35.8391 184.691 36.1791 184.877 36.3645C185.062 36.5191 185.402 36.5963 185.897 36.5963H187.566C188.061 36.5963 188.401 36.5191 188.586 36.3645C188.771 36.1791 188.864 35.8391 188.864 35.3445V32.98H194.011V36.0863C194.011 39.1463 192.326 40.6763 188.957 40.6763H184.413C181.044 40.6763 179.36 39.1463 179.36 36.0863V22.5018C179.36 19.4418 181.044 17.9118 184.413 17.9118H188.957C192.326 17.9118 194.011 19.4418 194.011 22.5018V25.5618Z" fill="black"/>
<path d="M206.431 17.9118H211.623V40.6763H206.338V38.7291C205.874 40.0272 204.808 40.6763 203.139 40.6763H201.701C198.549 40.6763 196.972 39.1463 196.972 36.0863V22.5018C196.972 19.4418 198.549 17.9118 201.701 17.9118H203.139C204.962 17.9118 206.06 18.6536 206.431 20.1372V17.9118ZM203.51 36.5963H204.901C205.859 36.5963 206.338 36.0863 206.338 35.0663V23.5218C206.338 22.5018 205.859 21.9918 204.901 21.9918H203.51C203.015 21.9918 202.675 22.0845 202.49 22.27C202.304 22.4245 202.211 22.7491 202.211 23.2436V35.3445C202.211 35.8391 202.304 36.1791 202.49 36.3645C202.675 36.5191 203.015 36.5963 203.51 36.5963Z" fill="black"/>
<path d="M220.783 40.6763H215.544V9.65906H220.783V40.6763Z" fill="black"/>
<mask id="path-2-inside-1_57_75857" fill="white">
<path d="M25.5 2.70006e-06C22.1513 2.84643e-06 18.8354 0.659579 15.7416 1.94107C12.6478 3.22257 9.83667 5.10089 7.46877 7.46878C5.10088 9.83667 3.22256 12.6478 1.94107 15.7416C0.659575 18.8354 -1.40739e-06 22.1513 -1.11464e-06 25.5C-8.21887e-07 28.8487 0.659576 32.1646 1.94107 35.2584C3.22257 38.3522 5.10088 41.1633 7.46878 43.5312C9.83667 45.8991 12.6478 47.7774 15.7416 49.0589C18.8354 50.3404 22.1513 51 25.5 51L25.5 38.25C23.8256 38.25 22.1677 37.9202 20.6208 37.2795C19.0739 36.6387 17.6683 35.6996 16.4844 34.5156C15.3004 33.3317 14.3613 31.9261 13.7205 30.3792C13.0798 28.8323 12.75 27.1744 12.75 25.5C12.75 23.8256 13.0798 22.1677 13.7205 20.6208C14.3613 19.0739 15.3004 17.6683 16.4844 16.4844C17.6683 15.3004 19.0739 14.3613 20.6208 13.7205C22.1677 13.0798 23.8256 12.75 25.5 12.75L25.5 2.70006e-06Z"/>
</mask>
<path d="M25.5 2.70006e-06C22.1513 2.84643e-06 18.8354 0.659579 15.7416 1.94107C12.6478 3.22257 9.83667 5.10089 7.46877 7.46878C5.10088 9.83667 3.22256 12.6478 1.94107 15.7416C0.659575 18.8354 -1.40739e-06 22.1513 -1.11464e-06 25.5C-8.21887e-07 28.8487 0.659576 32.1646 1.94107 35.2584C3.22257 38.3522 5.10088 41.1633 7.46878 43.5312C9.83667 45.8991 12.6478 47.7774 15.7416 49.0589C18.8354 50.3404 22.1513 51 25.5 51L25.5 38.25C23.8256 38.25 22.1677 37.9202 20.6208 37.2795C19.0739 36.6387 17.6683 35.6996 16.4844 34.5156C15.3004 33.3317 14.3613 31.9261 13.7205 30.3792C13.0798 28.8323 12.75 27.1744 12.75 25.5C12.75 23.8256 13.0798 22.1677 13.7205 20.6208C14.3613 19.0739 15.3004 17.6683 16.4844 16.4844C17.6683 15.3004 19.0739 14.3613 20.6208 13.7205C22.1677 13.0798 23.8256 12.75 25.5 12.75L25.5 2.70006e-06Z" stroke="#4467FB" stroke-width="18.5455" mask="url(#path-2-inside-1_57_75857)"/>
<mask id="path-3-inside-2_57_75857" fill="white">
<path d="M32.5 2.70006e-06C35.8487 2.84643e-06 39.1646 0.659579 42.2584 1.94107C45.3522 3.22257 48.1633 5.10089 50.5312 7.46878C52.8991 9.83667 54.7774 12.6478 56.0589 15.7416C57.3404 18.8354 58 22.1513 58 25.5C58 28.8487 57.3404 32.1646 56.0589 35.2584C54.7774 38.3522 52.8991 41.1633 50.5312 43.5312C48.1633 45.8991 45.3522 47.7774 42.2584 49.0589C39.1646 50.3404 35.8487 51 32.5 51L32.5 38.25C34.1744 38.25 35.8323 37.9202 37.3792 37.2795C38.9261 36.6387 40.3317 35.6996 41.5156 34.5156C42.6996 33.3317 43.6387 31.9261 44.2795 30.3792C44.9202 28.8323 45.25 27.1744 45.25 25.5C45.25 23.8256 44.9202 22.1677 44.2795 20.6208C43.6387 19.0739 42.6996 17.6683 41.5156 16.4844C40.3317 15.3004 38.9261 14.3613 37.3792 13.7205C35.8323 13.0798 34.1744 12.75 32.5 12.75L32.5 2.70006e-06Z"/>
</mask>
<path d="M32.5 2.70006e-06C35.8487 2.84643e-06 39.1646 0.659579 42.2584 1.94107C45.3522 3.22257 48.1633 5.10089 50.5312 7.46878C52.8991 9.83667 54.7774 12.6478 56.0589 15.7416C57.3404 18.8354 58 22.1513 58 25.5C58 28.8487 57.3404 32.1646 56.0589 35.2584C54.7774 38.3522 52.8991 41.1633 50.5312 43.5312C48.1633 45.8991 45.3522 47.7774 42.2584 49.0589C39.1646 50.3404 35.8487 51 32.5 51L32.5 38.25C34.1744 38.25 35.8323 37.9202 37.3792 37.2795C38.9261 36.6387 40.3317 35.6996 41.5156 34.5156C42.6996 33.3317 43.6387 31.9261 44.2795 30.3792C44.9202 28.8323 45.25 27.1744 45.25 25.5C45.25 23.8256 44.9202 22.1677 44.2795 20.6208C43.6387 19.0739 42.6996 17.6683 41.5156 16.4844C40.3317 15.3004 38.9261 14.3613 37.3792 13.7205C35.8323 13.0798 34.1744 12.75 32.5 12.75L32.5 2.70006e-06Z" stroke="#4467FB" stroke-width="18.5455" mask="url(#path-3-inside-2_57_75857)"/>
<circle cx="29.5" cy="25.5" r="9.5" fill="#00A1FF"/>
</svg>
