<svg width="18" height="18" viewBox="0 0 18 18" fill="none" xmlns="http://www.w3.org/2000/svg">
<path d="M9 1.5C4.8645 1.5 1.5 4.8645 1.5 9C1.5 13.1355 4.8645 16.5 9 16.5C13.1355 16.5 16.5 13.1355 16.5 9C16.5 4.8645 13.1355 1.5 9 1.5ZM3 9C3 8.32575 3.117 7.6785 3.32325 7.07325L4.5 8.25L6 9.75V11.25L7.5 12.75L8.25 13.5V14.9482C5.29575 14.577 3 12.054 3 9ZM13.7475 12.6547C13.2577 12.2602 12.5153 12 12 12V11.25C12 10.422 11.328 9.75 10.5 9.75H7.5V8.25V7.5C8.328 7.5 9 6.828 9 6V5.25H9.75C10.578 5.25 11.25 4.578 11.25 3.75V3.44175C13.446 4.3335 15 6.4875 15 9C15 10.3763 14.5297 11.6415 13.7475 12.6547Z" fill="#8C8D96"/>
</svg>
