<svg width="85" height="23" viewBox="0 0 85 23" fill="none" xmlns="http://www.w3.org/2000/svg">
<path d="M13.3801 10.4711C13.3577 7.98359 15.4169 6.77339 15.5111 6.71705C14.3449 5.01676 12.5373 4.78444 11.9021 4.76592C10.384 4.60616 8.91137 5.67434 8.13801 5.67434C7.34923 5.67434 6.15833 4.78136 4.87481 4.8076C3.22314 4.83307 1.67798 5.78934 0.830539 7.2743C-0.918377 10.3021 0.385978 14.7516 2.06157 17.199C2.89976 18.3976 3.87918 19.7359 5.16115 19.6888C6.41534 19.6371 6.88383 18.8892 8.39734 18.8892C9.89696 18.8892 10.3369 19.6888 11.6443 19.6587C12.9904 19.6371 13.8378 18.4547 14.6467 17.2453C15.6153 15.8715 16.0043 14.5185 16.0197 14.449C15.9881 14.4382 13.4056 13.4526 13.3801 10.4711Z" fill="white"/>
<path d="M10.9104 3.15592C11.5849 2.31234 12.0465 1.16466 11.9183 0C10.942 0.0432212 9.721 0.675332 9.01788 1.50039C8.3958 2.22744 7.8401 3.41911 7.98366 4.53977C9.08039 4.62158 10.2065 3.98639 10.9104 3.15592Z" fill="white"/>
<path d="M31.5305 19.5166H29.7778L28.8176 16.4996H25.4803L24.5657 19.5166H22.8593L26.1657 9.24542H28.2079L31.5305 19.5166ZM28.5282 15.2339L27.6599 12.5518C27.5681 12.2779 27.396 11.6326 27.142 10.6169H27.1112C27.01 11.0538 26.8472 11.699 26.6234 12.5518L25.7705 15.2339H28.5282Z" fill="white"/>
<path d="M40.0333 15.7224C40.0333 16.982 39.693 17.9776 39.0122 18.7085C38.4025 19.3592 37.6454 19.6841 36.7416 19.6841C35.766 19.6841 35.0652 19.3337 34.6384 18.6329H34.6075V22.5344H32.962V14.5485C32.962 13.7566 32.9412 12.9439 32.9011 12.1104H34.3482L34.44 13.2843H34.4709C35.0197 12.3998 35.8525 11.9583 36.97 11.9583C37.8437 11.9583 38.5731 12.3033 39.1566 12.9941C39.7416 13.6856 40.0333 14.5948 40.0333 15.7224ZM38.357 15.7826C38.357 15.0618 38.1949 14.4675 37.8692 13.9997C37.5134 13.512 37.0356 13.2681 36.4367 13.2681C36.0307 13.2681 35.6618 13.4039 35.3323 13.6717C35.0019 13.9419 34.7858 14.2946 34.6847 14.7314C34.6338 14.9352 34.6083 15.1019 34.6083 15.2331V16.468C34.6083 17.0067 34.7735 17.4613 35.1038 17.8325C35.4341 18.2038 35.8633 18.389 36.3912 18.389C37.0109 18.389 37.4933 18.1498 37.8383 17.6728C38.1841 17.195 38.357 16.5652 38.357 15.7826Z" fill="white"/>
<path d="M48.5519 15.7224C48.5519 16.982 48.2116 17.9776 47.5301 18.7085C46.9211 19.3592 46.164 19.6841 45.2602 19.6841C44.2846 19.6841 43.5838 19.3337 43.1578 18.6329H43.1269V22.5344H41.4814V14.5485C41.4814 13.7566 41.4606 12.9439 41.4204 12.1104H42.8676L42.9594 13.2843H42.9903C43.5383 12.3998 44.3711 11.9583 45.4894 11.9583C46.3623 11.9583 47.0917 12.3033 47.6767 12.9941C48.2594 13.6856 48.5519 14.5948 48.5519 15.7224ZM46.8756 15.7826C46.8756 15.0618 46.7127 14.4675 46.387 13.9997C46.0312 13.512 45.555 13.2681 44.9553 13.2681C44.5486 13.2681 44.1804 13.4039 43.8501 13.6717C43.5198 13.9419 43.3044 14.2946 43.2033 14.7314C43.1531 14.9352 43.1269 15.1019 43.1269 15.2331V16.468C43.1269 17.0067 43.2921 17.4613 43.6209 17.8325C43.9512 18.203 44.3803 18.389 44.9098 18.389C45.5295 18.389 46.0119 18.1498 46.3569 17.6728C46.7027 17.195 46.8756 16.5652 46.8756 15.7826Z" fill="white"/>
<path d="M58.0761 16.6362C58.0761 17.5099 57.7728 18.2208 57.1638 18.7695C56.4947 19.3692 55.5631 19.6687 54.366 19.6687C53.2608 19.6687 52.3748 19.4557 51.7041 19.0288L52.0853 17.6573C52.8078 18.0942 53.6004 18.3134 54.4641 18.3134C55.0838 18.3134 55.5662 18.1729 55.9127 17.8935C56.2577 17.6141 56.4299 17.239 56.4299 16.7713C56.4299 16.3545 56.2878 16.0034 56.003 15.7186C55.7198 15.4338 55.2467 15.169 54.586 14.9244C52.7877 14.2537 51.8893 13.2712 51.8893 11.9792C51.8893 11.1348 52.2042 10.4425 52.8348 9.90376C53.463 9.36427 54.3012 9.09491 55.3493 9.09491C56.284 9.09491 57.0604 9.25776 57.6802 9.58269L57.2688 10.9241C56.6899 10.6092 56.0355 10.4517 55.303 10.4517C54.7242 10.4517 54.2719 10.5945 53.9477 10.8786C53.6737 11.1325 53.5363 11.442 53.5363 11.8086C53.5363 12.2146 53.693 12.5503 54.0079 12.8143C54.2819 13.0581 54.7797 13.3221 55.5021 13.6069C56.3859 13.9627 57.035 14.3787 57.4525 14.8557C57.8685 15.3311 58.0761 15.9262 58.0761 16.6362Z" fill="white"/>
<path d="M63.5165 13.3452H61.7027V16.9411C61.7027 17.8557 62.0223 18.3126 62.6629 18.3126C62.9569 18.3126 63.2008 18.2871 63.3938 18.2362L63.4393 19.4857C63.1151 19.6069 62.6883 19.6679 62.1596 19.6679C61.5098 19.6679 61.0019 19.4695 60.6353 19.0736C60.2703 18.6769 60.0866 18.0116 60.0866 17.0769V13.3437H59.006V12.1088H60.0866V10.7527L61.7027 10.265V12.1088H63.5165V13.3452Z" fill="white"/>
<path d="M71.7 15.7526C71.7 16.891 71.3743 17.8257 70.7244 18.5566C70.0429 19.3091 69.1384 19.6842 68.0108 19.6842C66.924 19.6842 66.0588 19.3238 65.4136 18.6029C64.7684 17.882 64.4458 16.9721 64.4458 15.8753C64.4458 14.7276 64.7776 13.7876 65.4437 13.0567C66.1082 12.325 67.0051 11.9592 68.1327 11.9592C69.2194 11.9592 70.0939 12.3196 70.7538 13.0412C71.3851 13.7413 71.7 14.6451 71.7 15.7526ZM69.9927 15.8059C69.9927 15.1228 69.8469 14.537 69.5513 14.0485C69.2063 13.4572 68.7131 13.1624 68.074 13.1624C67.4126 13.1624 66.9102 13.458 66.5652 14.0485C66.2696 14.5378 66.1237 15.1328 66.1237 15.8367C66.1237 16.5198 66.2696 17.1056 66.5652 17.5934C66.921 18.1846 67.418 18.4794 68.0594 18.4794C68.6876 18.4794 69.1808 18.1784 69.5366 17.5779C69.8399 17.0801 69.9927 16.4881 69.9927 15.8059Z" fill="white"/>
<path d="M77.0485 13.5575C76.8856 13.5274 76.712 13.512 76.5298 13.512C75.951 13.512 75.5033 13.7304 75.1884 14.168C74.9144 14.5539 74.7771 15.0417 74.7771 15.6306V19.5166H73.1323L73.1478 14.4428C73.1478 13.5891 73.1269 12.8119 73.086 12.1111H74.5193L74.5795 13.5282H74.625C74.7987 13.0412 75.0727 12.6491 75.4478 12.355C75.8144 12.0903 76.2103 11.9583 76.6371 11.9583C76.7892 11.9583 76.9265 11.9691 77.0485 11.9884V13.5575Z" fill="white"/>
<path d="M84.4077 15.4631C84.4077 15.7579 84.3884 16.0064 84.3475 16.2094H79.411C79.4303 16.9411 79.6688 17.5006 80.1272 17.8865C80.5433 18.2315 81.0812 18.4044 81.7419 18.4044C82.4728 18.4044 83.1396 18.2879 83.7393 18.054L83.9971 19.1963C83.2963 19.5019 82.4689 19.654 81.5142 19.654C80.3657 19.654 79.4643 19.3159 78.8082 18.6406C78.1537 17.9653 77.8257 17.0584 77.8257 15.9207C77.8257 14.8039 78.1306 13.8739 78.7411 13.1322C79.3801 12.3403 80.2438 11.9444 81.3305 11.9444C82.3979 11.9444 83.206 12.3403 83.7547 13.1322C84.1893 13.7612 84.4077 14.5392 84.4077 15.4631ZM82.8386 15.0363C82.8494 14.5485 82.7421 14.1271 82.5191 13.7713C82.2343 13.3136 81.7967 13.0851 81.2078 13.0851C80.6698 13.0851 80.2322 13.3082 79.898 13.7558C79.624 14.1116 79.4612 14.5384 79.411 15.0355H82.8386V15.0363Z" fill="white"/>
<path d="M27.9843 2.9267C27.9843 3.83512 27.7119 4.51894 27.1677 4.97817C26.6638 5.40189 25.9475 5.61413 25.0198 5.61413C24.5598 5.61413 24.1662 5.59407 23.8366 5.55393V0.590439C24.2665 0.520977 24.7296 0.485474 25.2297 0.485474C26.1135 0.485474 26.7795 0.677654 27.2287 1.06201C27.7319 1.49654 27.9843 2.11785 27.9843 2.9267ZM27.1315 2.94908C27.1315 2.36019 26.9756 1.90869 26.6638 1.59379C26.3519 1.27966 25.8966 1.12221 25.2969 1.12221C25.0422 1.12221 24.8253 1.13919 24.6455 1.1747V4.94806C24.745 4.9635 24.9272 4.97045 25.1919 4.97045C25.8109 4.97045 26.2887 4.79833 26.6252 4.45411C26.9617 4.10988 27.1315 3.60821 27.1315 2.94908Z" fill="white"/>
<path d="M32.5064 3.72014C32.5064 4.2797 32.3466 4.73815 32.0271 5.09781C31.6921 5.46751 31.2483 5.65197 30.6942 5.65197C30.1601 5.65197 29.7348 5.47523 29.4176 5.1202C29.1012 4.76594 28.9429 4.31906 28.9429 3.78034C28.9429 3.21692 29.1058 2.75461 29.433 2.39572C29.7603 2.03683 30.2002 1.85699 30.7544 1.85699C31.2885 1.85699 31.7176 2.03374 32.0425 2.388C32.3512 2.73222 32.5064 3.17679 32.5064 3.72014ZM31.6674 3.74638C31.6674 3.41064 31.5949 3.12276 31.4506 2.88273C31.2808 2.59253 31.0392 2.44743 30.7251 2.44743C30.4001 2.44743 30.1531 2.59253 29.9833 2.88273C29.8382 3.12276 29.7665 3.41527 29.7665 3.76104C29.7665 4.09678 29.839 4.38466 29.9833 4.6247C30.1585 4.9149 30.4024 5.06 30.7173 5.06C31.0261 5.06 31.2684 4.91258 31.4428 4.61698C31.5926 4.37232 31.6674 4.08212 31.6674 3.74638Z" fill="white"/>
<path d="M38.5697 1.93103L37.4313 5.56933H36.6904L36.2188 3.98944C36.0992 3.59505 36.0019 3.20297 35.9263 2.81398H35.9116C35.8414 3.21377 35.7441 3.60508 35.6191 3.98944L35.1182 5.56933H34.3688L33.2983 1.93103H34.1295L34.5409 3.66065C34.6405 4.06971 34.7223 4.45947 34.7879 4.8284H34.8025C34.8627 4.5243 34.9623 4.13686 35.1028 3.66837L35.6191 1.9318H36.2782L36.773 3.63132C36.8926 4.04578 36.9898 4.44481 37.0647 4.82917H37.0871C37.1419 4.45484 37.2245 4.05582 37.3341 3.63132L37.7755 1.9318H38.5697V1.93103Z" fill="white"/>
<path d="M42.7629 5.56926H41.954V3.48538C41.954 2.84324 41.7101 2.52217 41.2208 2.52217C40.9808 2.52217 40.787 2.61015 40.6365 2.7869C40.4876 2.96364 40.4119 3.17203 40.4119 3.41052V5.56849H39.6031V2.97059C39.6031 2.65106 39.5931 2.30452 39.5738 1.92942H40.2846L40.3224 2.49824H40.3448C40.439 2.3215 40.5794 2.17563 40.7639 2.05908C40.9831 1.92324 41.2285 1.85455 41.4971 1.85455C41.8367 1.85455 42.1192 1.96415 42.3438 2.18412C42.6232 2.45348 42.7629 2.85559 42.7629 3.38968V5.56926Z" fill="white"/>
<path d="M44.9933 5.56932H44.1852V0.261597H44.9933V5.56932Z" fill="white"/>
<path d="M49.7555 3.72014C49.7555 4.2797 49.5958 4.73815 49.2762 5.09781C48.9413 5.46751 48.4967 5.65197 47.9433 5.65197C47.4085 5.65197 46.9832 5.47523 46.6667 5.1202C46.3503 4.76594 46.1921 4.31906 46.1921 3.78034C46.1921 3.21692 46.3549 2.75461 46.6822 2.39572C47.0094 2.03683 47.4494 1.85699 48.0027 1.85699C48.5376 1.85699 48.966 2.03374 49.2917 2.388C49.6004 2.73222 49.7555 3.17679 49.7555 3.72014ZM48.9158 3.74638C48.9158 3.41064 48.8432 3.12276 48.6989 2.88273C48.5299 2.59253 48.2875 2.44743 47.9742 2.44743C47.6485 2.44743 47.4015 2.59253 47.2325 2.88273C47.0874 3.12276 47.0156 3.41527 47.0156 3.76104C47.0156 4.09678 47.0881 4.38466 47.2325 4.6247C47.4077 4.9149 47.6516 5.06 47.9665 5.06C48.2752 5.06 48.5168 4.91258 48.6912 4.61698C48.8417 4.37232 48.9158 4.08212 48.9158 3.74638Z" fill="white"/>
<path d="M53.67 5.56939H52.9438L52.8836 5.1503H52.8612C52.6127 5.48449 52.2584 5.65197 51.7984 5.65197C51.4549 5.65197 51.1771 5.5416 50.9679 5.32241C50.7781 5.12328 50.6831 4.87553 50.6831 4.58148C50.6831 4.13691 50.8684 3.79809 51.2412 3.56346C51.6132 3.32883 52.1365 3.21383 52.8102 3.21923V3.15132C52.8102 2.67202 52.5586 2.43276 52.0546 2.43276C51.6957 2.43276 51.3793 2.52306 51.1061 2.70212L50.9417 2.17112C51.2797 1.96196 51.6973 1.85699 52.1897 1.85699C53.1406 1.85699 53.6176 2.35867 53.6176 3.36202V4.70188C53.6176 5.0654 53.6353 5.35483 53.67 5.56939ZM52.8303 4.31906V3.75796C51.9381 3.74252 51.492 3.98718 51.492 4.49117C51.492 4.68104 51.5429 4.82305 51.6471 4.91798C51.7513 5.01292 51.8841 5.06 52.0423 5.06C52.2198 5.06 52.3857 5.00365 52.537 4.89174C52.6891 4.77906 52.7825 4.63627 52.8172 4.46107C52.8257 4.42171 52.8303 4.37386 52.8303 4.31906Z" fill="white"/>
<path d="M58.266 5.56932H57.5482L57.5104 4.98506H57.488C57.2588 5.42962 56.8682 5.6519 56.3195 5.6519C55.8811 5.6519 55.516 5.47979 55.2266 5.13556C54.9372 4.79134 54.7928 4.34446 54.7928 3.7957C54.7928 3.20681 54.9495 2.72984 55.2644 2.36554C55.5693 2.02595 55.9428 1.85615 56.3874 1.85615C56.876 1.85615 57.2179 2.02055 57.4124 2.35011H57.4278V0.261597H58.2374V4.58912C58.2374 4.94338 58.2467 5.26986 58.266 5.56932ZM57.4278 4.03496V3.42832C57.4278 3.32336 57.4201 3.23846 57.4054 3.17363C57.3599 2.97913 57.2619 2.81551 57.1129 2.68353C56.9624 2.55155 56.781 2.48517 56.5719 2.48517C56.2701 2.48517 56.0339 2.6048 55.8603 2.84484C55.6881 3.08487 55.6009 3.39128 55.6009 3.7656C55.6009 4.12527 55.6835 4.41701 55.8494 4.6416C56.0246 4.88087 56.2608 5.0005 56.5564 5.0005C56.8219 5.0005 57.0342 4.90093 57.1955 4.70103C57.3514 4.51657 57.4278 4.29429 57.4278 4.03496Z" fill="white"/>
<path d="M65.1839 3.72014C65.1839 4.2797 65.0242 4.73815 64.7046 5.09781C64.3697 5.46751 63.9266 5.65197 63.3717 5.65197C62.8384 5.65197 62.4131 5.47523 62.0951 5.1202C61.7787 4.76594 61.6205 4.31906 61.6205 3.78034C61.6205 3.21692 61.7833 2.75461 62.1106 2.39572C62.4378 2.03683 62.8778 1.85699 63.4327 1.85699C63.966 1.85699 64.3959 2.03374 64.7201 2.388C65.0288 2.73222 65.1839 3.17679 65.1839 3.72014ZM64.3457 3.74638C64.3457 3.41064 64.2732 3.12276 64.1289 2.88273C63.9583 2.59253 63.7175 2.44743 63.4026 2.44743C63.0784 2.44743 62.8314 2.59253 62.6609 2.88273C62.5158 3.12276 62.444 3.41527 62.444 3.76104C62.444 4.09678 62.5166 4.38466 62.6609 4.6247C62.8361 4.9149 63.08 5.06 63.3949 5.06C63.7036 5.06 63.9467 4.91258 64.1211 4.61698C64.2701 4.37232 64.3457 4.08212 64.3457 3.74638Z" fill="white"/>
<path d="M69.5329 5.56926H68.7248V3.48538C68.7248 2.84324 68.4809 2.52217 67.9908 2.52217C67.7508 2.52217 67.5571 2.61015 67.4073 2.7869C67.2576 2.96364 67.1827 3.17203 67.1827 3.41052V5.56849H66.3731V2.97059C66.3731 2.65106 66.3638 2.30452 66.3445 1.92942H67.0546L67.0924 2.49824H67.1148C67.2097 2.3215 67.3502 2.17563 67.5339 2.05908C67.7539 1.92324 67.9985 1.85455 68.2679 1.85455C68.6067 1.85455 68.8892 1.96415 69.1138 2.18412C69.394 2.45348 69.5329 2.85559 69.5329 3.38968V5.56926Z" fill="white"/>
<path d="M74.9764 2.53693H74.0857V4.30437C74.0857 4.75357 74.2439 4.97816 74.5573 4.97816C74.7024 4.97816 74.8228 4.96581 74.9177 4.94034L74.9386 5.55393C74.7788 5.61413 74.5689 5.64423 74.3103 5.64423C73.9908 5.64423 73.7423 5.54699 73.5624 5.35249C73.3818 5.15799 73.2923 4.83075 73.2923 4.37152V2.53693H72.7605V1.93107H73.2923V1.26422L74.0849 1.02496V1.93029H74.9756V2.53693H74.9764Z" fill="white"/>
<path d="M79.2586 5.56932H78.449V3.50087C78.449 2.8487 78.2051 2.52222 77.7165 2.52222C77.3414 2.52222 77.0852 2.71131 76.9447 3.0895C76.9208 3.169 76.9069 3.26624 76.9069 3.38047V5.56855H76.0988V0.261597H76.9069V2.4543H76.9223C77.177 2.05528 77.5421 1.85615 78.0152 1.85615C78.3502 1.85615 78.6273 1.96575 78.8472 2.18571C79.1212 2.4597 79.2586 2.86722 79.2586 3.40594V5.56932Z" fill="white"/>
<path d="M83.6757 3.57811C83.6757 3.72321 83.6649 3.84516 83.6456 3.94472H81.2198C81.2306 4.30438 81.3464 4.57838 81.571 4.76824C81.7763 4.93804 82.041 5.02294 82.3652 5.02294C82.7241 5.02294 83.0513 4.96582 83.3462 4.85082L83.4727 5.4127C83.1277 5.56243 82.7218 5.6373 82.2517 5.6373C81.6883 5.6373 81.2445 5.47136 80.9235 5.13948C80.6008 4.8076 80.4411 4.36227 80.4411 3.80348C80.4411 3.25473 80.59 2.79782 80.8903 2.43352C81.2036 2.04453 81.6273 1.85004 82.1622 1.85004C82.6855 1.85004 83.083 2.04453 83.3516 2.43352C83.5684 2.74225 83.6757 3.12429 83.6757 3.57811ZM82.9039 3.36895C82.9101 3.12892 82.8568 2.92208 82.7472 2.74765C82.6068 2.52305 82.393 2.41037 82.1035 2.41037C81.8396 2.41037 81.6243 2.51997 81.4599 2.73993C81.3256 2.91513 81.2461 3.12429 81.2198 3.36895H82.9039Z" fill="white"/>
</svg>
