<svg width="135" height="33" viewBox="0 0 135 33" fill="none" xmlns="http://www.w3.org/2000/svg">
<mask id="path-1-inside-1_77_182" fill="white">
<path d="M16.5 4.125C16.5 1.84682 14.6252 -0.0506827 12.4178 0.51295C11.6587 0.706775 10.9128 0.954841 10.1857 1.25599C8.18385 2.08519 6.3649 3.30057 4.83274 4.83274C3.30057 6.3649 2.08519 8.18385 1.25599 10.1857C0.426784 12.1876 -9.10667e-07 14.3332 -7.21238e-07 16.5C-5.31809e-07 18.6668 0.426785 20.8124 1.25599 22.8143C2.08519 24.8161 3.30057 26.6351 4.83274 28.1673C6.36491 29.6994 8.18385 30.9148 10.1857 31.744C10.9128 32.0452 11.6587 32.2932 12.4178 32.487C14.6252 33.0507 16.5 31.1532 16.5 28.875L16.5 27.9897C16.5 26.2005 14.9959 24.8067 13.3429 24.122C12.3419 23.7074 11.4325 23.0997 10.6664 22.3336C9.90029 21.5675 9.2926 20.6581 8.87799 19.6571C8.46339 18.6562 8.25 17.5834 8.25 16.5C8.25 15.4166 8.46339 14.3438 8.87799 13.3429C9.29259 12.3419 9.90028 11.4325 10.6664 10.6664C11.4325 9.90029 12.3419 9.29259 13.3429 8.87799C14.9959 8.19327 16.5 6.79951 16.5 5.01025L16.5 4.125Z"/>
</mask>
<path d="M16.5 4.125C16.5 1.84682 14.6252 -0.0506827 12.4178 0.51295C11.6587 0.706775 10.9128 0.954841 10.1857 1.25599C8.18385 2.08519 6.3649 3.30057 4.83274 4.83274C3.30057 6.3649 2.08519 8.18385 1.25599 10.1857C0.426784 12.1876 -9.10667e-07 14.3332 -7.21238e-07 16.5C-5.31809e-07 18.6668 0.426785 20.8124 1.25599 22.8143C2.08519 24.8161 3.30057 26.6351 4.83274 28.1673C6.36491 29.6994 8.18385 30.9148 10.1857 31.744C10.9128 32.0452 11.6587 32.2932 12.4178 32.487C14.6252 33.0507 16.5 31.1532 16.5 28.875L16.5 27.9897C16.5 26.2005 14.9959 24.8067 13.3429 24.122C12.3419 23.7074 11.4325 23.0997 10.6664 22.3336C9.90029 21.5675 9.2926 20.6581 8.87799 19.6571C8.46339 18.6562 8.25 17.5834 8.25 16.5C8.25 15.4166 8.46339 14.3438 8.87799 13.3429C9.29259 12.3419 9.90028 11.4325 10.6664 10.6664C11.4325 9.90029 12.3419 9.29259 13.3429 8.87799C14.9959 8.19327 16.5 6.79951 16.5 5.01025L16.5 4.125Z" stroke="white" stroke-width="11.7503" mask="url(#path-1-inside-1_77_182)"/>
<mask id="path-2-inside-2_77_182" fill="white">
<path d="M20.5 4.125C20.5 1.84682 22.3748 -0.0506827 24.5822 0.51295C25.3413 0.706775 26.0872 0.954841 26.8143 1.25599C28.8162 2.08519 30.6351 3.30057 32.1673 4.83274C33.6994 6.3649 34.9148 8.18385 35.744 10.1857C36.5732 12.1876 37 14.3332 37 16.5C37 18.6668 36.5732 20.8124 35.744 22.8143C34.9148 24.8161 33.6994 26.6351 32.1673 28.1673C30.6351 29.6994 28.8161 30.9148 26.8143 31.744C26.0872 32.0452 25.3413 32.2932 24.5822 32.487C22.3748 33.0507 20.5 31.1532 20.5 28.875L20.5 27.9897C20.5 26.2005 22.0041 24.8067 23.6571 24.122C24.6581 23.7074 25.5675 23.0997 26.3336 22.3336C27.0997 21.5675 27.7074 20.6581 28.122 19.6571C28.5366 18.6562 28.75 17.5834 28.75 16.5C28.75 15.4166 28.5366 14.3438 28.122 13.3429C27.7074 12.3419 27.0997 11.4325 26.3336 10.6664C25.5675 9.90029 24.6581 9.29259 23.6571 8.87799C22.0041 8.19327 20.5 6.79951 20.5 5.01025L20.5 4.125Z"/>
</mask>
<path d="M20.5 4.125C20.5 1.84682 22.3748 -0.0506827 24.5822 0.51295C25.3413 0.706775 26.0872 0.954841 26.8143 1.25599C28.8162 2.08519 30.6351 3.30057 32.1673 4.83274C33.6994 6.3649 34.9148 8.18385 35.744 10.1857C36.5732 12.1876 37 14.3332 37 16.5C37 18.6668 36.5732 20.8124 35.744 22.8143C34.9148 24.8161 33.6994 26.6351 32.1673 28.1673C30.6351 29.6994 28.8161 30.9148 26.8143 31.744C26.0872 32.0452 25.3413 32.2932 24.5822 32.487C22.3748 33.0507 20.5 31.1532 20.5 28.875L20.5 27.9897C20.5 26.2005 22.0041 24.8067 23.6571 24.122C24.6581 23.7074 25.5675 23.0997 26.3336 22.3336C27.0997 21.5675 27.7074 20.6581 28.122 19.6571C28.5366 18.6562 28.75 17.5834 28.75 16.5C28.75 15.4166 28.5366 14.3438 28.122 13.3429C27.7074 12.3419 27.0997 11.4325 26.3336 10.6664C25.5675 9.90029 24.6581 9.29259 23.6571 8.87799C22.0041 8.19327 20.5 6.79951 20.5 5.01025L20.5 4.125Z" stroke="white" stroke-width="11.7503" mask="url(#path-2-inside-2_77_182)"/>
<circle cx="18" cy="16" r="6" fill="white"/>
<path d="M49.6548 23V9.85928H58.2227V12.5716H52.7882V15.1469H57.6548V17.8201H52.7882V23H49.6548ZM63.9571 9.85928V20.2583H68.9216V23H60.8237V9.85928H63.9571ZM71.0359 23V9.85928H79.8192V12.5716H74.1693V15.0979H79.4667V17.8201H74.1693V20.2583H79.8192V23H71.0359ZM81.7542 23L86.3956 16.4492L81.7542 9.85928H85.6416L88.5008 13.9915L90.7921 9.85928H94.5718L90.2633 16.3905L95.2964 23H91.3307L88.2071 18.8874L85.5534 23H81.7542ZM105.812 21.825L109.651 10.907H110.875L106.478 23H105.313L100.946 10.907H102.16L105.989 21.825H105.812ZM113.253 23V10.907H116.945C118.257 10.907 119.249 11.2432 119.922 11.9156C120.594 12.588 120.93 13.4757 120.93 14.579C120.93 15.6691 120.594 16.5471 119.922 17.213C119.249 17.8723 118.257 18.202 116.945 18.202H114.409V23H113.253ZM114.409 17.213H116.945C117.865 17.213 118.564 16.9812 119.041 16.5178C119.524 16.0478 119.765 15.4015 119.765 14.579C119.765 13.7434 119.524 13.0841 119.041 12.601C118.564 12.1179 117.865 11.8764 116.945 11.8764H114.409V17.213ZM123.849 10.907H125.318L131.8 21.5606H131.683V10.907H132.818V23H131.438L124.818 12.1212H124.985V23H123.849V10.907Z" fill="white"/>
</svg>
