<svg width="115" height="26" viewBox="0 0 115 26" fill="none" xmlns="http://www.w3.org/2000/svg">
<path d="M46.792 5.912H49.624L46.624 21.056H43L40 5.912H42.856L44.8 18.152L46.792 5.912Z" fill="white"/>
<path d="M50.9221 5.912H56.4901C58.2341 5.912 59.1061 6.704 59.1061 8.288V13.112C59.1061 14.696 58.2341 15.488 56.4901 15.488H53.6821V21.056H50.9221V5.912ZM56.3461 12.728V8.672C56.3461 8.416 56.2981 8.248 56.2021 8.168C56.1061 8.072 55.9301 8.024 55.6741 8.024H53.6821V13.376H55.6741C55.9301 13.376 56.1061 13.336 56.2021 13.256C56.2981 13.16 56.3461 12.984 56.3461 12.728Z" fill="white"/>
<path d="M66.739 5.912H69.259V21.056H66.667L63.427 11.024V21.056H60.883V5.912H63.547L66.739 15.8V5.912Z" fill="white"/>
<path d="M78.2211 18.944H82.2531V21.056H75.4611V5.912H78.2211V18.944Z" fill="white"/>
<path d="M85.8047 9.272H88.5168C90.2127 9.272 91.0607 10.064 91.0607 11.648V18.68C91.0607 20.264 90.2127 21.056 88.5168 21.056H85.8047C84.0927 21.056 83.2367 20.264 83.2367 18.68V11.648C83.2367 10.064 84.0927 9.272 85.8047 9.272ZM88.3967 18.368V11.96C88.3967 11.704 88.3488 11.536 88.2528 11.456C88.1567 11.36 87.9727 11.312 87.7007 11.312H86.5967C86.3247 11.312 86.1408 11.36 86.0448 11.456C85.9487 11.536 85.9007 11.704 85.9007 11.96V18.368C85.9007 18.624 85.9487 18.8 86.0448 18.896C86.1408 18.976 86.3247 19.016 86.5967 19.016H87.7007C87.9727 19.016 88.1567 18.976 88.2528 18.896C88.3488 18.8 88.3967 18.624 88.3967 18.368Z" fill="white"/>
<path d="M100.429 13.232H97.765V12.032C97.765 11.776 97.717 11.608 97.621 11.528C97.525 11.432 97.349 11.384 97.093 11.384H96.229C95.973 11.384 95.797 11.432 95.701 11.528C95.605 11.608 95.557 11.776 95.557 12.032V18.296C95.557 18.552 95.605 18.728 95.701 18.824C95.797 18.904 95.973 18.944 96.229 18.944H97.093C97.349 18.944 97.525 18.904 97.621 18.824C97.717 18.728 97.765 18.552 97.765 18.296V17.072H100.429V18.68C100.429 20.264 99.557 21.056 97.813 21.056H95.461C93.717 21.056 92.845 20.264 92.845 18.68V11.648C92.845 10.064 93.717 9.272 95.461 9.272H97.813C99.557 9.272 100.429 10.064 100.429 11.648V13.232Z" fill="white"/>
<path d="M106.858 9.272H109.546V21.056H106.81V20.048C106.57 20.72 106.018 21.056 105.154 21.056H104.41C102.778 21.056 101.962 20.264 101.962 18.68V11.648C101.962 10.064 102.778 9.272 104.41 9.272H105.154C106.098 9.272 106.666 9.656 106.858 10.424V9.272ZM105.346 18.944H106.066C106.562 18.944 106.81 18.68 106.81 18.152V12.176C106.81 11.648 106.562 11.384 106.066 11.384H105.346C105.09 11.384 104.914 11.432 104.818 11.528C104.722 11.608 104.674 11.776 104.674 12.032V18.296C104.674 18.552 104.722 18.728 104.818 18.824C104.914 18.904 105.09 18.944 105.346 18.944Z" fill="white"/>
<path d="M114.288 21.056H111.576V5H114.288V21.056Z" fill="white"/>
<mask id="path-2-inside-1_66_1261" fill="white">
<path d="M13 -5.68248e-07C11.2928 -4.93625e-07 9.60235 0.336254 8.02511 0.989566C6.44788 1.64288 5.01477 2.60045 3.80761 3.80761C2.60045 5.01477 1.64288 6.44788 0.989565 8.02512C0.336254 9.60235 -7.17495e-07 11.2928 -5.68248e-07 13C-4.19001e-07 14.7072 0.336255 16.3977 0.989566 17.9749C1.64288 19.5521 2.60045 20.9852 3.80761 22.1924C5.01477 23.3996 6.44788 24.3571 8.02512 25.0104C9.60235 25.6637 11.2928 26 13 26L13 19.5C12.1464 19.5 11.3012 19.3319 10.5126 19.0052C9.72394 18.6786 9.00739 18.1998 8.40381 17.5962C7.80022 16.9926 7.32144 16.2761 6.99478 15.4874C6.66813 14.6988 6.5 13.8536 6.5 13C6.5 12.1464 6.66813 11.3012 6.99478 10.5126C7.32144 9.72394 7.80022 9.00739 8.4038 8.40381C9.00739 7.80022 9.72394 7.32144 10.5126 6.99478C11.3012 6.66813 12.1464 6.5 13 6.5L13 -5.68248e-07Z"/>
</mask>
<path d="M13 -5.68248e-07C11.2928 -4.93625e-07 9.60235 0.336254 8.02511 0.989566C6.44788 1.64288 5.01477 2.60045 3.80761 3.80761C2.60045 5.01477 1.64288 6.44788 0.989565 8.02512C0.336254 9.60235 -7.17495e-07 11.2928 -5.68248e-07 13C-4.19001e-07 14.7072 0.336255 16.3977 0.989566 17.9749C1.64288 19.5521 2.60045 20.9852 3.80761 22.1924C5.01477 23.3996 6.44788 24.3571 8.02512 25.0104C9.60235 25.6637 11.2928 26 13 26L13 19.5C12.1464 19.5 11.3012 19.3319 10.5126 19.0052C9.72394 18.6786 9.00739 18.1998 8.40381 17.5962C7.80022 16.9926 7.32144 16.2761 6.99478 15.4874C6.66813 14.6988 6.5 13.8536 6.5 13C6.5 12.1464 6.66813 11.3012 6.99478 10.5126C7.32144 9.72394 7.80022 9.00739 8.4038 8.40381C9.00739 7.80022 9.72394 7.32144 10.5126 6.99478C11.3012 6.66813 12.1464 6.5 13 6.5L13 -5.68248e-07Z" stroke="#4467FB" stroke-width="9.6" mask="url(#path-2-inside-1_66_1261)"/>
<mask id="path-3-inside-2_66_1261" fill="white">
<path d="M17 -5.68248e-07C18.7072 -4.93625e-07 20.3977 0.336254 21.9749 0.989566C23.5521 1.64288 24.9852 2.60045 26.1924 3.80761C27.3996 5.01477 28.3571 6.44788 29.0104 8.02512C29.6637 9.60235 30 11.2928 30 13C30 14.7072 29.6637 16.3977 29.0104 17.9749C28.3571 19.5521 27.3995 20.9852 26.1924 22.1924C24.9852 23.3996 23.5521 24.3571 21.9749 25.0104C20.3977 25.6637 18.7072 26 17 26L17 19.5C17.8536 19.5 18.6988 19.3319 19.4874 19.0052C20.2761 18.6786 20.9926 18.1998 21.5962 17.5962C22.1998 16.9926 22.6786 16.2761 23.0052 15.4874C23.3319 14.6988 23.5 13.8536 23.5 13C23.5 12.1464 23.3319 11.3012 23.0052 10.5126C22.6786 9.72394 22.1998 9.00739 21.5962 8.40381C20.9926 7.80022 20.2761 7.32144 19.4874 6.99478C18.6988 6.66813 17.8536 6.5 17 6.5L17 -5.68248e-07Z"/>
</mask>
<path d="M17 -5.68248e-07C18.7072 -4.93625e-07 20.3977 0.336254 21.9749 0.989566C23.5521 1.64288 24.9852 2.60045 26.1924 3.80761C27.3996 5.01477 28.3571 6.44788 29.0104 8.02512C29.6637 9.60235 30 11.2928 30 13C30 14.7072 29.6637 16.3977 29.0104 17.9749C28.3571 19.5521 27.3995 20.9852 26.1924 22.1924C24.9852 23.3996 23.5521 24.3571 21.9749 25.0104C20.3977 25.6637 18.7072 26 17 26L17 19.5C17.8536 19.5 18.6988 19.3319 19.4874 19.0052C20.2761 18.6786 20.9926 18.1998 21.5962 17.5962C22.1998 16.9926 22.6786 16.2761 23.0052 15.4874C23.3319 14.6988 23.5 13.8536 23.5 13C23.5 12.1464 23.3319 11.3012 23.0052 10.5126C22.6786 9.72394 22.1998 9.00739 21.5962 8.40381C20.9926 7.80022 20.2761 7.32144 19.4874 6.99478C18.6988 6.66813 17.8536 6.5 17 6.5L17 -5.68248e-07Z" stroke="#4467FB" stroke-width="9.6" mask="url(#path-3-inside-2_66_1261)"/>
<circle cx="15" cy="13" r="5" fill="#00A1FF"/>
</svg>
