<svg width="120" height="40" viewBox="0 0 120 40" fill="none" xmlns="http://www.w3.org/2000/svg">
<path d="M51.792 12.912H54.624L51.624 28.056H48L45 12.912H47.856L49.8 25.152L51.792 12.912Z" fill="black"/>
<path d="M55.9221 12.912H61.4901C63.2341 12.912 64.1061 13.704 64.1061 15.288V20.112C64.1061 21.696 63.2341 22.488 61.4901 22.488H58.6821V28.056H55.9221V12.912ZM61.3461 19.728V15.672C61.3461 15.416 61.2981 15.248 61.2021 15.168C61.1061 15.072 60.9301 15.024 60.6741 15.024H58.6821V20.376H60.6741C60.9301 20.376 61.1061 20.336 61.2021 20.256C61.2981 20.16 61.3461 19.984 61.3461 19.728Z" fill="black"/>
<path d="M71.739 12.912H74.259V28.056H71.667L68.427 18.024V28.056H65.883V12.912H68.547L71.739 22.8V12.912Z" fill="black"/>
<path d="M83.2211 25.944H87.2531V28.056H80.4611V12.912H83.2211V25.944Z" fill="black"/>
<path d="M90.8047 16.272H93.5168C95.2127 16.272 96.0607 17.064 96.0607 18.648V25.68C96.0607 27.264 95.2127 28.056 93.5168 28.056H90.8047C89.0927 28.056 88.2367 27.264 88.2367 25.68V18.648C88.2367 17.064 89.0927 16.272 90.8047 16.272ZM93.3967 25.368V18.96C93.3967 18.704 93.3488 18.536 93.2528 18.456C93.1567 18.36 92.9727 18.312 92.7007 18.312H91.5967C91.3247 18.312 91.1408 18.36 91.0448 18.456C90.9487 18.536 90.9007 18.704 90.9007 18.96V25.368C90.9007 25.624 90.9487 25.8 91.0448 25.896C91.1408 25.976 91.3247 26.016 91.5967 26.016H92.7007C92.9727 26.016 93.1567 25.976 93.2528 25.896C93.3488 25.8 93.3967 25.624 93.3967 25.368Z" fill="black"/>
<path d="M105.429 20.232H102.765V19.032C102.765 18.776 102.717 18.608 102.621 18.528C102.525 18.432 102.349 18.384 102.093 18.384H101.229C100.973 18.384 100.797 18.432 100.701 18.528C100.605 18.608 100.557 18.776 100.557 19.032V25.296C100.557 25.552 100.605 25.728 100.701 25.824C100.797 25.904 100.973 25.944 101.229 25.944H102.093C102.349 25.944 102.525 25.904 102.621 25.824C102.717 25.728 102.765 25.552 102.765 25.296V24.072H105.429V25.68C105.429 27.264 104.557 28.056 102.813 28.056H100.461C98.717 28.056 97.845 27.264 97.845 25.68V18.648C97.845 17.064 98.717 16.272 100.461 16.272H102.813C104.557 16.272 105.429 17.064 105.429 18.648V20.232Z" fill="black"/>
<path d="M111.858 16.272H114.546V28.056H111.81V27.048C111.57 27.72 111.018 28.056 110.154 28.056H109.41C107.778 28.056 106.962 27.264 106.962 25.68V18.648C106.962 17.064 107.778 16.272 109.41 16.272H110.154C111.098 16.272 111.666 16.656 111.858 17.424V16.272ZM110.346 25.944H111.066C111.562 25.944 111.81 25.68 111.81 25.152V19.176C111.81 18.648 111.562 18.384 111.066 18.384H110.346C110.09 18.384 109.914 18.432 109.818 18.528C109.722 18.608 109.674 18.776 109.674 19.032V25.296C109.674 25.552 109.722 25.728 109.818 25.824C109.914 25.904 110.09 25.944 110.346 25.944Z" fill="black"/>
<path d="M119.288 28.056H116.576V12H119.288V28.056Z" fill="black"/>
<mask id="path-2-inside-1_3_69" fill="white">
<path d="M27.8943 25.2791C29.1635 26.5483 31.2651 26.5609 32.1809 25.0171C32.4958 24.4863 32.7732 23.9325 33.0104 23.3597C33.6638 21.7824 34 20.092 34 18.3848C34 16.6776 33.6638 14.9871 33.0104 13.4099C32.3571 11.8327 31.3996 10.3996 30.1924 9.19239C28.9852 7.98523 27.5521 7.02765 25.9749 6.37434C24.3977 5.72103 22.7072 5.38478 21 5.38478C19.2928 5.38478 17.6024 5.72103 16.0251 6.37434C15.4523 6.61161 14.8985 6.88901 14.3676 7.20392C12.8239 8.11966 12.8365 10.2213 14.1057 11.4905L14.5989 11.9837C15.5957 12.9805 17.2102 12.919 18.5126 12.3796C19.3012 12.0529 20.1464 11.8848 21 11.8848C21.8536 11.8848 22.6988 12.0529 23.4874 12.3796C24.2761 12.7062 24.9926 13.185 25.5962 13.7886C26.1998 14.3922 26.6786 15.1087 27.0052 15.8973C27.3319 16.686 27.5 17.5312 27.5 18.3848C27.5 19.2384 27.3319 20.0836 27.0052 20.8722C26.4657 22.1746 26.4043 23.7891 27.4011 24.7859L27.8943 25.2791Z"/>
</mask>
<path d="M27.8943 25.2791C29.1635 26.5483 31.2651 26.5609 32.1809 25.0171C32.4958 24.4863 32.7732 23.9325 33.0104 23.3597C33.6638 21.7824 34 20.092 34 18.3848C34 16.6776 33.6638 14.9871 33.0104 13.4099C32.3571 11.8327 31.3996 10.3996 30.1924 9.19239C28.9852 7.98523 27.5521 7.02765 25.9749 6.37434C24.3977 5.72103 22.7072 5.38478 21 5.38478C19.2928 5.38478 17.6024 5.72103 16.0251 6.37434C15.4523 6.61161 14.8985 6.88901 14.3676 7.20392C12.8239 8.11966 12.8365 10.2213 14.1057 11.4905L14.5989 11.9837C15.5957 12.9805 17.2102 12.919 18.5126 12.3796C19.3012 12.0529 20.1464 11.8848 21 11.8848C21.8536 11.8848 22.6988 12.0529 23.4874 12.3796C24.2761 12.7062 24.9926 13.185 25.5962 13.7886C26.1998 14.3922 26.6786 15.1087 27.0052 15.8973C27.3319 16.686 27.5 17.5312 27.5 18.3848C27.5 19.2384 27.3319 20.0836 27.0052 20.8722C26.4657 22.1746 26.4043 23.7891 27.4011 24.7859L27.8943 25.2791Z" stroke="#4467FB" stroke-width="9.6" mask="url(#path-2-inside-1_3_69)"/>
<mask id="path-3-inside-2_3_69" fill="white">
<path d="M25.2791 27.8943C26.5483 29.1635 26.5609 31.2651 25.0172 32.1809C24.4863 32.4958 23.9325 32.7732 23.3597 33.0104C21.7824 33.6637 20.092 34 18.3848 34C16.6776 34 14.9871 33.6637 13.4099 33.0104C11.8327 32.3571 10.3996 31.3996 9.19239 30.1924C7.98523 28.9852 7.02766 27.5521 6.37435 25.9749C5.72104 24.3977 5.38478 22.7072 5.38478 21C5.38478 19.2928 5.72104 17.6023 6.37435 16.0251C6.61162 15.4523 6.88901 14.8985 7.20392 14.3676C8.11966 12.8239 10.2213 12.8365 11.4905 14.1057L11.9837 14.5989C12.9805 15.5957 12.919 17.2101 12.3796 18.5126C12.0529 19.3012 11.8848 20.1464 11.8848 21C11.8848 21.8536 12.0529 22.6988 12.3796 23.4874C12.7062 24.2761 13.185 24.9926 13.7886 25.5962C14.3922 26.1998 15.1087 26.6786 15.8973 27.0052C16.686 27.3319 17.5312 27.5 18.3848 27.5C19.2384 27.5 20.0836 27.3319 20.8722 27.0052C22.1746 26.4657 23.7891 26.4043 24.7859 27.4011L25.2791 27.8943Z"/>
</mask>
<path d="M25.2791 27.8943C26.5483 29.1635 26.5609 31.2651 25.0172 32.1809C24.4863 32.4958 23.9325 32.7732 23.3597 33.0104C21.7824 33.6637 20.092 34 18.3848 34C16.6776 34 14.9871 33.6637 13.4099 33.0104C11.8327 32.3571 10.3996 31.3996 9.19239 30.1924C7.98523 28.9852 7.02766 27.5521 6.37435 25.9749C5.72104 24.3977 5.38478 22.7072 5.38478 21C5.38478 19.2928 5.72104 17.6023 6.37435 16.0251C6.61162 15.4523 6.88901 14.8985 7.20392 14.3676C8.11966 12.8239 10.2213 12.8365 11.4905 14.1057L11.9837 14.5989C12.9805 15.5957 12.919 17.2101 12.3796 18.5126C12.0529 19.3012 11.8848 20.1464 11.8848 21C11.8848 21.8536 12.0529 22.6988 12.3796 23.4874C12.7062 24.2761 13.185 24.9926 13.7886 25.5962C14.3922 26.1998 15.1087 26.6786 15.8973 27.0052C16.686 27.3319 17.5312 27.5 18.3848 27.5C19.2384 27.5 20.0836 27.3319 20.8722 27.0052C22.1746 26.4657 23.7891 26.4043 24.7859 27.4011L25.2791 27.8943Z" stroke="#4467FB" stroke-width="9.6" mask="url(#path-3-inside-2_3_69)"/>
<circle cx="20" cy="20" r="2.6" stroke="#44B9FB" stroke-width="4.8"/>
</svg>
