<svg width="197" height="256" viewBox="0 0 197 256" fill="none" xmlns="http://www.w3.org/2000/svg">
<g clip-path="url(#clip0_57_43416)">
<path d="M0 0H177C188.046 0 197 8.95431 197 20V236C197 247.046 188.046 256 177 256H0V0Z" fill="#FBA744"/>
<path d="M44.0554 87.973L44.2407 87.7878C44.2407 87.7878 44.0554 87.973 44.0554 87.973Z" fill="#D27200"/>
<path d="M20.8196 58.6039C20.6337 58.9756 21.749 60.6486 22.4926 62.6933C23.422 64.738 23.7938 66.9687 23.9796 68.2699C23.422 67.7122 22.6785 67.5263 22.1208 67.1546C21.3773 66.7828 20.8196 66.411 20.0761 66.2251L18.9608 65.8534C18.7749 65.8534 18.589 65.8534 18.4031 65.6675L17.2878 65.2957C15.0572 64.9239 12.6407 64.9239 10.4101 65.4816C8.17944 66.0392 5.94882 66.9687 4.08997 68.2699C2.23113 69.5711 0.744061 71.4299 -0.371248 73.4746C-2.60187 77.3782 -3.15953 82.0253 -2.41599 86.3007C-1.85834 90.576 0.37229 94.6655 3.34645 97.4538C6.3206 100.428 10.2242 102.287 13.9419 103.216C17.8454 104.146 21.9349 104.146 25.6526 103.216C29.3703 102.287 32.9021 100.614 35.6904 98.3832C41.4528 93.922 45.5423 87.6019 47.2152 81.0959C49.0741 74.5899 48.8882 67.8981 47.587 61.9498C46.0999 56.0015 43.4975 50.6108 39.7798 46.3355C36.248 42.0601 31.7868 38.9001 27.5115 36.4836C18.589 31.8365 9.48063 31.0929 2.04524 32.2082C-5.39014 33.3235 -11.1526 36.2977 -15.4279 39.086C-19.7033 41.8742 -22.3057 44.6625 -23.9786 46.7072C-25.6516 48.752 -26.2092 49.8673 -26.2092 49.8673C-26.0233 50.0532 -25.6516 49.8673 -24.908 49.1237C-23.9786 48.3802 -22.4915 46.7072 -19.7033 44.4766C-16.7291 42.246 -12.4538 38.9001 -5.20426 36.4836C-1.67245 35.3683 2.6029 34.4388 7.62178 34.4388C12.4548 34.4388 18.2172 35.3683 23.9796 37.9707C32.1586 41.5025 38.8504 47.8226 42.3822 55.6297C46.0999 63.4369 46.6576 72.1734 44.6128 80.1665C42.5681 87.9736 37.1775 94.6655 30.6715 98.3832C24.1655 102.101 15.9866 101.915 9.85241 98.755C6.87825 97.2679 4.27587 94.8514 2.6029 92.249C0.929941 89.4607 0.186398 86.3007 0.186398 83.3265C0.186398 80.3524 0.929945 77.3782 2.41702 74.9617C3.9041 72.5452 5.94883 70.6864 8.36533 69.7569C10.7818 68.8275 13.3842 68.4558 15.8007 68.6416C16.3584 68.6416 16.916 68.8275 17.6596 69.0134L18.2172 69.1993C18.589 69.3852 18.9608 69.3852 19.1466 69.5711C19.7043 69.7569 20.2619 70.1287 20.8196 70.3146C21.3773 70.6864 21.749 70.8722 22.3067 71.244C21.1914 71.6158 19.7043 72.5452 18.589 73.4746C17.4737 74.4041 16.7301 75.5194 16.7301 76.077C17.6596 75.5194 18.9608 74.5899 20.8196 73.8464C22.4926 73.1029 24.5373 72.917 26.3961 73.1029C26.3961 72.917 27.1397 70.6864 26.3961 67.7122C25.6526 63.8086 23.422 60.2768 20.8196 58.6039Z" fill="#D27200"/>
<path d="M119.896 -1.99452C120.082 -1.80863 121.569 -1.25098 123.428 -1.06509C125.101 -0.879207 127.332 -0.693317 128.447 -0.879203C127.332 0.79376 126.216 2.28084 124.915 3.58203C120.454 8.04327 114.877 11.0174 109.115 12.8763C103.353 14.5492 97.4043 15.1069 91.6419 14.5492C80.3029 13.6198 69.8934 9.53034 60.785 5.62676C51.4908 1.5373 43.126 -2.55217 35.1329 -5.71221C27.1399 -8.87225 19.3327 -10.917 12.455 -11.4746C5.39138 -12.2182 -0.928686 -11.2888 -5.94757 -9.98756C-11.1523 -8.50048 -15.2418 -6.45575 -18.216 -4.41102C-21.1901 -2.36628 -23.049 -0.135667 -24.1643 1.16553C-25.2796 2.6526 -25.6514 3.39615 -25.6514 3.58203C-25.4655 3.76792 -25.0937 3.76791 -24.536 3.02437C-23.7925 2.46672 -22.6772 1.16553 -20.4466 -0.69332C-18.216 -2.36628 -14.87 -4.96867 -9.2935 -6.82752C-3.71696 -8.68636 3.90431 -10.1734 13.9421 -8.87225C27.8834 -7.0134 40.7095 -0.69332 52.792 4.88322C64.8745 10.4598 76.957 15.4787 89.0395 16.9657C94.9878 17.7093 100.936 17.5234 106.141 16.4081C111.532 15.2928 116.365 13.248 120.454 10.8315C122.499 9.53033 124.358 8.22915 126.031 6.55619C126.402 6.18442 126.774 5.81265 127.146 5.44088L127.518 4.88322C127.889 4.51145 128.075 4.32557 128.261 3.9538C128.819 3.39614 129.191 2.6526 129.562 2.09495C129.934 1.5373 130.306 0.979639 130.678 0.421985C131.049 1.72318 131.607 3.58202 131.979 5.25499C132.351 6.92795 132.722 8.41503 132.908 8.7868C133.28 7.85737 133.466 6.55619 133.652 5.44088C133.838 4.32557 133.652 3.02438 133.466 1.90907C133.28 -0.507433 132.351 -2.73806 131.793 -4.22513C131.421 -4.22513 129.377 -3.48159 126.96 -3.10982C125.659 -2.92394 124.358 -2.73805 123.242 -2.55217C121.941 -2.1804 120.826 -2.1804 119.896 -1.99452Z" fill="#D27200"/>
<path d="M25.8384 192.069C25.6525 192.441 26.3961 194.114 26.9537 195.973C27.6973 197.832 28.2549 199.876 28.6267 201.178C27.8831 200.806 27.3255 200.62 26.582 200.248C25.8384 200.062 25.2807 199.69 24.5372 199.505L23.6078 199.133C23.4219 199.133 23.236 198.947 23.0501 198.947L21.7489 198.575C18.9607 197.832 16.1724 197.274 13.3841 196.902C7.80759 196.345 2.23106 196.716 -2.97372 198.017C-8.17848 199.319 -13.1974 201.363 -17.6586 204.152C-22.1198 206.94 -25.8375 210.286 -30.2988 211.587C-32.5294 212.145 -34.76 212.145 -36.6189 211.215C-37.5483 210.844 -38.4777 210.1 -39.0354 209.356C-39.7789 208.613 -40.3365 207.683 -40.7083 206.568C-42.3813 202.479 -42.1954 197.646 -40.1507 193.928C-38.2918 190.024 -35.1318 186.678 -32.1576 183.333C-29.1835 180.173 -26.0234 176.827 -23.7928 172.923C-21.5622 169.019 -20.261 164.558 -21.0045 160.097C-21.7481 155.636 -24.9081 151.918 -28.4399 149.873C-32.1576 147.829 -36.2471 146.899 -40.1507 147.085C-44.2401 147.271 -47.7719 148.758 -51.1179 150.617C-54.2779 152.476 -57.2521 154.706 -59.6686 157.123C-64.6875 161.956 -68.591 167.161 -72.8664 171.436C-77.1417 175.711 -81.9747 179.057 -86.9936 179.615C-92.0125 180.358 -97.2173 178.871 -100.006 175.525C-101.307 173.852 -102.236 171.808 -102.422 169.763C-102.608 167.718 -102.422 165.859 -101.679 164.001C-100.563 160.469 -98.3326 157.495 -95.9161 155.636C-93.4996 153.591 -91.0831 152.29 -89.0384 151.36C-86.8077 150.245 -84.9489 149.687 -83.4618 149.13C-80.4877 148.014 -78.8147 147.457 -78.8147 147.271C-78.8147 147.085 -79.1865 146.899 -80.8594 147.271C-82.3465 147.643 -85.1348 148.2 -89.7819 150.059C-92.0125 150.989 -94.8008 152.476 -97.7749 154.892C-100.749 157.309 -103.537 161.212 -104.467 166.603C-104.839 169.205 -104.653 172.365 -103.166 175.34C-101.679 178.314 -98.8902 180.73 -95.3584 181.845C-92.0125 182.961 -88.1089 183.147 -84.2053 182.217C-80.3018 181.288 -76.5841 179.057 -73.2382 176.269C-68.591 172.365 -65.0592 167.532 -61.1556 163.443C-57.2521 159.353 -53.1626 155.45 -48.5155 153.033C-46.099 151.918 -43.6825 150.989 -41.0801 150.617C-38.4777 150.245 -35.8753 150.431 -33.4588 151.175C-28.6258 152.476 -24.3505 156.008 -23.421 160.655C-22.4916 165.302 -24.5363 170.135 -27.3246 174.224C-30.1129 178.314 -34.0165 181.846 -37.3624 185.749C-39.0354 187.794 -40.7083 189.839 -41.8236 192.255C-43.1248 194.672 -44.0542 197.274 -44.0542 200.062C-44.2401 202.85 -43.8684 205.453 -42.753 208.055C-41.6377 210.472 -39.9648 212.888 -37.3624 214.189C-34.9459 215.491 -31.9717 215.677 -29.3693 215.119C-26.767 214.561 -24.5363 213.446 -22.6775 212.145C-20.6328 210.844 -18.7739 209.542 -17.101 208.427C-16.1715 207.869 -15.428 207.312 -14.4986 206.754C-13.5692 206.196 -12.8256 205.639 -11.8962 205.267C-4.64668 201.549 3.16048 200.062 10.2241 200.248C13.7559 200.248 17.2877 200.806 20.4478 201.549C21.3772 201.735 22.4925 202.107 23.4219 202.293C23.7937 202.479 24.1654 202.479 24.5372 202.665C25.2807 202.85 25.8384 203.036 26.3961 203.408C26.9537 203.594 27.5114 203.966 28.069 204.152C25.8384 205.267 22.1207 208.241 21.9348 209.171C24.909 208.241 29.3702 206.011 32.7161 204.895C32.7161 204.709 32.3444 202.479 31.2291 199.876C30.6714 198.575 30.1138 197.274 29.1843 195.973C27.6973 194.114 26.7678 192.999 25.8384 192.069Z" fill="#D27200"/>
<path d="M108.556 123.106H108.371H108.556C108.371 123.291 108.371 123.291 108.556 123.106Z" fill="#D27200"/>
<path d="M171.386 98.9409C171.386 99.3127 172.501 100.614 173.617 102.287C174.732 103.96 176.033 105.633 176.777 106.748C175.29 106.562 173.988 106.562 172.501 106.376H171.386H170.828H170.457H168.969C165.066 106.562 161.348 106.934 157.445 107.863C150.009 109.536 142.946 112.696 136.811 116.972C133.837 119.202 131.049 121.619 128.818 124.779C126.588 127.753 125.101 131.285 124.543 135.003C123.985 138.72 124.357 142.624 126.216 145.97C127.889 149.316 130.863 151.918 133.837 153.591C135.324 154.52 136.997 155.264 138.67 155.822C140.157 156.379 142.016 157.123 143.875 157.495C145.734 157.866 147.593 157.866 149.452 157.309C151.125 156.751 152.798 155.45 153.541 153.777C155.028 150.431 154.099 146.342 152.612 143.181C151.31 140.021 149.452 137.233 147.221 134.817C142.76 129.984 137.183 126.452 131.235 124.407C125.287 122.362 118.967 121.805 113.018 122.362C107.07 122.92 101.307 124.407 95.9168 126.452C90.5262 128.497 85.5073 131.099 80.8601 134.259C76.3989 137.419 72.3094 141.509 70.2647 146.713C68.22 151.732 68.22 157.68 70.6365 162.328C71.9377 164.744 73.7965 166.603 76.0271 167.904C78.2578 169.205 80.6743 169.949 83.0908 170.135C87.9238 170.878 92.7568 170.321 97.0321 168.276C99.0768 167.346 101.122 166.045 102.609 164.186C104.096 162.328 105.025 160.097 105.397 157.866C105.955 153.219 103.538 148.944 100.75 146.156C97.7756 143.181 93.8721 141.509 90.3403 140.579C86.6226 139.65 83.0908 139.092 79.559 138.72C76.0271 138.348 72.6812 138.163 69.5212 138.163C56.5092 138.163 45.542 141.88 38.8502 147.643C31.9725 153.405 29.1842 159.725 28.0689 164.001C27.5112 166.231 27.5112 167.904 27.5112 169.019C27.5112 170.135 27.6971 170.692 27.6971 170.692C27.883 170.692 28.0689 170.321 28.4407 168.276C28.6265 167.718 28.6265 167.161 28.8124 166.417C28.9983 165.674 29.1842 164.93 29.556 164.001C30.1136 162.142 31.043 159.725 32.9019 157.123C34.5748 154.52 37.1772 151.546 40.8949 148.572C44.6126 145.784 49.6315 143.181 56.1375 141.88C62.4575 140.393 70.2647 140.207 79.0013 141.137C83.2766 141.694 88.1096 142.252 92.5709 143.925C94.8015 144.854 96.8462 145.97 98.7051 147.643C100.378 149.316 101.865 151.36 102.609 153.777C103.166 155.45 103.166 157.123 102.795 158.796C102.423 160.469 101.493 161.956 100.378 163.071C97.9615 165.488 94.4297 166.975 90.712 167.346C87.1802 167.904 83.2766 167.532 79.9307 166.417C78.2578 165.859 76.7707 164.93 75.4695 163.815C74.1683 162.699 73.2389 161.212 72.6812 159.725C71.38 156.565 71.38 152.847 72.3094 149.502C73.2389 146.156 75.2836 143.181 77.886 140.579C82.9049 135.56 89.7826 132.214 96.4744 129.426C103.166 126.824 110.23 125.151 117.294 125.337C124.171 125.337 131.049 127.01 136.811 130.355C142.574 133.701 147.407 138.534 150.009 144.297C150.567 145.598 151.125 146.713 151.31 148.2C151.496 149.502 151.496 150.803 151.125 152.104C150.567 153.405 149.637 154.335 148.336 154.706C147.035 155.078 145.734 155.078 144.619 154.706C144.061 154.52 143.317 154.335 142.76 154.149L141.83 153.777L140.715 153.405C139.228 152.847 137.927 152.29 136.626 151.546C134.023 150.245 131.793 148.386 130.12 146.156C126.96 141.694 127.145 135.56 129.376 130.727C131.607 125.894 135.51 121.991 139.786 119.016C144.061 116.042 148.894 113.812 153.541 112.325C158.188 110.838 163.021 109.908 167.482 109.722C168.598 109.536 169.713 109.722 170.828 109.536H171.386C171.758 109.536 172.13 109.536 172.501 109.536C173.988 109.536 175.29 109.722 176.405 109.722C174.546 111.581 171.944 115.299 171.944 116.414C174.546 114.741 178.264 111.023 181.052 108.979C180.866 108.793 179.751 106.748 178.078 104.703C176.219 102.287 173.617 100.056 171.386 98.9409Z" fill="#D27200"/>
<path d="M219.531 183.518C219.345 183.704 218.415 185.005 218.044 186.678C217.486 188.351 217.3 190.396 217.486 191.511C216.371 190.768 215.441 190.024 214.512 189.095C214.326 188.909 214.14 188.537 213.954 188.351L213.582 187.98L213.396 187.794C213.211 187.608 213.025 187.236 212.839 187.05C211.538 185.191 210.608 182.961 210.051 180.73C208.749 176.269 208.935 171.622 210.422 167.161C211.723 162.885 213.954 158.796 216.371 155.078C221.389 147.643 227.71 141.323 232.543 134.073C234.959 130.541 237.004 126.638 238.305 122.548C239.606 118.459 240.164 114.183 239.792 110.094C239.42 101.915 236.26 94.2937 232.171 88.1596C227.895 82.0254 222.319 77.0065 216.371 73.6605C210.422 70.3146 204.102 68.2699 197.968 67.3405C191.834 66.2251 186.071 66.2251 180.495 66.411C169.528 67.1546 160.048 69.9428 152.24 72.7311C144.433 75.5194 138.113 78.6794 133.094 81.0959C128.075 83.6983 124.358 85.743 121.755 87.0442C119.339 88.5313 118.038 89.2749 118.038 89.4607C118.223 89.8325 119.525 89.6466 127.146 85.9289C131.05 84.0701 136.626 81.4677 144.619 78.1218C148.709 76.4488 153.356 74.7758 158.746 73.1029C164.137 71.4299 170.457 69.9428 177.707 69.3852C187.744 68.4558 197.968 69.3852 207.076 72.7311C211.723 74.4041 215.999 76.6347 219.717 79.423C223.434 82.2112 226.78 85.743 229.383 89.4607C234.587 97.082 237.376 106.19 236.632 114.741C235.889 123.292 231.241 130.727 226.223 137.233C221.204 143.739 215.627 149.687 211.723 156.379C209.679 159.725 208.192 163.257 207.076 166.789C206.519 168.648 206.333 170.321 206.147 172.179C205.961 174.038 205.961 175.897 206.333 177.57C206.705 181.102 208.006 184.262 209.679 187.236C210.051 187.98 210.608 188.537 210.98 189.281L211.352 189.838C211.723 190.21 211.909 190.582 212.095 190.768C213.211 191.883 214.326 192.999 215.441 193.556C214.14 193.928 212.281 194.3 210.422 194.486C208.563 194.671 206.891 194.671 206.519 194.857C208.749 195.973 211.538 196.716 214.14 196.344C215.441 196.344 216.742 195.973 217.672 195.601C218.787 195.229 219.717 194.671 220.274 194.3C220.088 194.114 219.159 192.069 218.787 189.653C218.973 187.422 219.345 185.006 219.531 183.518Z" fill="#D27200"/>
<path d="M197.41 275.903C197.224 276.089 197.038 277.948 196.853 279.807C196.667 281.851 196.295 283.896 196.109 285.197C195.18 284.082 194.25 282.967 193.135 282.037L192.391 281.294L192.02 280.922L191.834 280.736C191.648 280.55 191.462 280.364 191.276 280.179C190.347 279.435 189.603 278.877 188.674 278.134C187.744 277.576 186.815 276.833 185.885 276.275C178.45 271.628 170.085 269.211 161.72 268.84C157.631 268.654 153.541 269.211 149.638 270.141C145.734 271.07 142.017 272.557 138.671 274.23C131.793 277.576 125.845 281.851 119.896 285.569C116.922 287.428 113.948 289.101 110.974 290.588C108 292.075 105.026 293.19 102.051 293.934C95.9172 295.607 89.783 295.421 84.3924 293.934C78.8158 292.447 73.9828 289.845 69.8933 286.499C65.8039 283.153 62.6438 279.249 60.5991 275.16C56.3238 266.795 56.3238 258.058 58.1826 251.181C59.112 247.649 60.4132 244.675 61.7144 241.886C63.2015 239.284 64.6886 237.053 66.3615 235.194C69.5216 231.477 72.4957 229.246 74.5405 227.759C76.5852 226.458 77.8864 225.714 77.7005 225.528C77.7005 225.343 77.3287 225.343 76.2134 225.714C75.0981 226.086 72.8675 227.015 69.7075 229.246C68.9639 229.804 68.0345 230.547 67.1051 231.291C66.1757 232.034 65.2462 232.964 64.3168 234.079C62.458 236.31 60.4132 238.912 58.5544 242.63C56.6955 246.162 55.2085 250.623 54.4649 255.828C53.7214 261.032 54.279 267.352 56.6955 273.673C64.1309 291.518 84.95 301.555 102.237 296.722C110.788 294.492 118.038 289.845 124.729 285.569C131.421 281.294 137.927 277.204 144.433 274.602C147.779 273.301 151.125 272.557 154.471 272C157.817 271.628 161.163 271.628 164.323 271.814C170.643 272.557 176.591 274.416 181.424 277.018C182.725 277.762 183.841 278.32 184.956 279.063C185.514 279.435 186.071 279.807 186.629 280.179C187.187 280.55 187.744 280.922 188.116 281.294C188.674 281.666 189.231 282.037 189.603 282.409L189.975 282.781C190.347 282.967 190.533 283.339 190.718 283.524C191.834 284.454 192.577 285.383 193.507 286.313C192.206 286.499 190.533 286.684 189.045 287.056C187.558 287.428 186.257 287.986 185.885 288.357C187.372 288.543 189.417 288.543 191.462 288.729C193.507 288.729 195.737 288.915 197.41 289.101C197.41 288.915 197.968 286.684 198.154 283.896C198.154 282.595 198.154 280.922 197.968 279.435C198.34 278.506 197.968 277.018 197.41 275.903Z" fill="#D27200"/>
<path d="M133.094 249.136C132.908 249.322 132.908 249.322 133.094 249.136V249.136Z" fill="#D27200"/>
<path d="M196.109 214.004C195.923 214.375 196.481 216.048 197.038 217.907C197.596 219.766 197.968 221.997 198.154 223.298C196.481 222.182 194.436 221.253 192.763 220.509C180.123 215.676 165.996 218.279 156.515 225.9C151.682 229.618 148.708 234.637 145.362 238.912C143.689 240.957 142.016 243.002 140.158 244.674C138.299 246.347 136.254 247.649 133.837 248.392C129.376 250.065 124.543 250.437 120.268 249.508C115.993 248.578 112.275 246.162 109.487 243.187C106.698 240.213 105.211 236.496 104.839 232.964C104.468 229.432 105.583 225.9 107.07 222.926C110.416 217.164 115.621 213.632 120.268 211.587C125.101 209.542 129.376 208.799 132.908 208.241C139.972 207.312 143.689 206.94 143.689 206.568C143.689 206.196 142.76 205.825 136.812 206.01C133.838 206.196 129.376 206.382 123.428 207.869C120.454 208.799 116.922 209.914 113.39 212.331C109.858 214.747 106.141 218.093 103.91 223.112C102.237 226.644 101.679 230.733 102.423 234.637C103.167 238.54 105.025 242.072 107.628 244.86C110.044 247.649 113.39 249.879 116.736 251.18C120.268 252.482 123.8 253.039 127.517 252.668C131.049 252.482 134.581 251.552 137.741 249.879C140.901 248.206 143.503 245.976 145.734 243.373C150.009 238.354 152.798 232.964 156.887 229.432C160.791 225.714 165.81 223.298 170.643 221.997C175.476 220.695 180.309 220.509 184.584 221.067C185.699 221.253 186.815 221.253 187.744 221.625C188.673 221.811 189.789 221.997 190.718 222.368C191.462 222.554 192.019 222.74 192.577 223.112C192.949 223.298 193.321 223.484 193.507 223.484C194.25 223.855 194.808 224.041 195.365 224.227C195.923 224.599 196.481 224.785 196.852 225.157C195.737 225.714 194.064 226.458 192.763 227.387C191.462 228.317 190.532 229.246 190.346 229.618C191.09 229.432 191.834 229.246 192.763 228.874C193.692 228.503 194.622 228.317 195.551 227.945C197.596 227.201 199.455 226.83 201.314 226.458C201.314 226.272 201.314 224.041 200.57 221.253C200.198 219.952 199.641 218.465 198.897 216.978C197.968 216.234 197.038 214.933 196.109 214.004Z" fill="#D27200"/>
<path d="M310.614 6.18445C310.614 6.92798 314.332 11.5751 316.005 13.6198C293.141 13.9916 272.136 14.1775 253.362 14.3634C246.856 14.3634 240.535 14.5493 234.215 14.5493H232.914H232.357C232.171 14.5493 231.799 14.3634 231.799 14.7352C231.427 15.4787 231.241 16.4081 230.869 17.1516C230.312 18.6387 229.754 20.1258 229.197 21.7988C228.267 24.2153 227.338 26.8176 226.594 29.2342C225.293 32.9518 223.992 36.6695 222.691 40.0155L222.133 41.3167V41.5025V41.3167L221.947 40.9449L221.575 40.3872C221.203 39.6437 220.832 38.7143 220.46 37.9707C219.716 36.2978 218.973 34.8107 218.229 33.1377C217.486 31.6507 216.742 29.9777 215.813 28.4906C215.441 27.7471 215.069 27.0035 214.697 26.26C214.14 25.3306 213.768 24.587 213.396 23.8435C211.537 20.4976 209.679 17.3375 207.82 14.3634C206.89 12.8763 205.961 11.3892 205.031 10.088C203.916 8.60096 202.987 6.928 202.057 5.44092C200.013 2.46676 197.968 -0.135627 196.109 -2.73801C194.25 -5.3404 192.391 -7.57102 190.532 -9.80164C190.347 -9.98752 190.347 -10.1734 190.161 -10.1734V-9.61575L189.975 -8.50044C189.975 -7.7569 189.789 -7.01336 189.789 -6.45571C189.603 -5.15451 189.603 -3.66744 189.417 -2.36625C188.86 2.83852 188.488 7.48565 188.116 11.2033C187.744 14.921 187.558 17.8952 187.372 20.4976C187.001 25.3306 187.001 27.933 187.187 27.933C187.558 27.933 188.116 27.0035 189.045 19.5682C189.231 17.7093 189.603 15.6646 189.789 13.0622C189.975 10.8316 190.347 8.22918 190.718 5.06914C190.904 3.58206 191.09 1.9091 191.276 0.23614C191.462 -0.693283 191.462 -1.43682 191.648 -2.36625V-3.10978V-3.29567C191.648 -3.29567 191.648 -3.48156 191.648 -3.29567L191.834 -2.9239C192.205 -2.55213 192.391 -2.18036 192.763 -1.62271C195.18 1.72322 197.968 5.44091 200.756 9.71626L201.686 11.2033L202.801 12.8763C203.544 14.1775 204.474 15.4787 205.217 16.7799C206.704 19.3823 208.192 21.9847 209.679 24.4012C210.422 25.7023 211.166 27.0035 211.723 28.1188C212.467 29.6059 213.396 31.093 214.14 32.5801C215.627 35.5542 217.114 38.5284 218.415 41.3167C219.159 42.8037 219.716 44.1049 220.274 45.4061C220.646 46.1497 220.832 46.7073 221.203 47.4509L221.575 48.3803L221.761 48.9379L221.947 49.1238H222.133C222.319 49.4956 222.319 48.9379 222.505 48.5662L222.876 47.6367C223.062 47.0791 223.248 46.3355 223.62 45.7779C223.992 44.6626 224.549 43.3614 224.921 42.432C226.594 38.1566 227.895 34.4389 228.639 32.0224C230.312 27.7471 231.799 23.4717 233.1 19.5682C233.286 19.1964 233.286 18.8246 233.472 18.4528L233.658 17.8952C233.658 17.7093 234.03 17.8952 234.215 17.8952C234.959 17.8952 235.702 17.8952 236.446 17.8952C238.119 17.8952 239.606 17.8952 241.093 17.8952C247.599 17.7093 252.06 17.7093 252.99 17.7093C273.623 17.3375 289.051 17.1516 301.134 16.9658C305.223 16.9658 308.941 16.7799 311.915 16.7799C313.216 16.7799 314.518 16.7799 315.633 16.594C314.146 18.6387 311.358 22.5423 311.172 23.6576C314.332 21.9846 317.863 17.8952 320.094 15.2928C320.094 14.3634 314.518 8.22918 310.614 6.18445Z" fill="#D27200"/>
<path d="M142.575 41.1307C142.575 41.8743 146.106 46.7073 147.593 48.9379C145.549 48.752 143.504 48.5661 141.645 48.5661C127.89 48.0085 115.435 49.6814 105.212 52.4697C100.007 53.7709 95.3599 55.4439 91.2704 57.3027C87.181 59.1616 83.6491 61.5781 80.8609 64.1804C75.4702 69.3852 73.4255 75.1476 73.0537 78.8653C72.6819 82.7689 73.4255 84.6278 73.7972 84.6278C73.9831 84.6278 74.169 84.4419 74.3549 83.8842C74.5408 83.3266 74.5408 82.583 74.7267 81.096C74.9126 79.6089 75.2843 77.5641 76.3996 74.7759C77.5149 72.1735 79.7456 68.6417 83.4633 65.4816C88.2963 61.3922 94.2446 58.7898 100.007 56.9309C105.769 55.0721 111.532 53.7709 116.737 52.8415C127.332 51.1685 136.069 50.9826 141.459 51.1685C144.991 51.3544 146.106 51.3544 147.222 51.5403C145.549 53.3991 142.575 57.1168 142.389 58.0462C145.363 56.3733 149.266 52.8415 151.869 50.6109C151.683 50.425 150.568 48.5661 148.709 46.5214C146.85 44.4767 144.619 42.246 142.575 41.1307Z" fill="#D27200"/>
<path d="M117.852 184.634C117.852 185.377 121.012 190.396 122.313 192.627C120.268 192.441 118.41 192.069 116.365 191.883C106.885 190.768 98.1482 190.582 90.7128 191.883C83.2774 193.184 77.3291 195.787 73.0537 198.761C68.7784 201.735 65.9901 204.709 64.503 206.94C63.0159 209.171 62.6442 210.472 62.8301 210.658C63.2018 210.844 63.5736 210.844 65.0607 209.171C65.8042 208.427 66.7336 207.312 68.2207 205.825C69.7078 204.338 71.9384 202.665 74.9126 200.806C78.8161 198.389 82.9056 196.902 86.9951 195.787C91.0845 194.672 95.174 194.3 98.7058 194.114C106.141 193.742 112.275 194.486 115.993 194.857C119.525 195.229 120.64 195.415 121.756 195.601C119.897 197.274 116.737 200.992 116.551 201.921C119.711 200.62 123.8 197.088 126.403 194.857C126.217 194.3 121.756 187.236 117.852 184.634Z" fill="#D27200"/>
<path d="M17.8452 134.445L17.6599 134.63H17.8452V134.445Z" fill="#D27200"/>
<path d="M36.434 118.087C36.6199 118.645 41.8247 121.805 44.0553 123.292C42.1965 124.035 40.3376 124.593 38.4788 125.337C22.6786 131.285 11.3396 137.605 3.71832 142.252C-3.71707 146.899 -7.43477 150.059 -7.063 150.617C-6.87711 150.989 -6.31945 151.175 -4.64649 150.245C-2.97353 149.316 0.000626564 147.643 5.76305 144.297C19.7044 135.932 33.4599 130.355 39.5941 127.939C42.94 126.638 44.0553 126.266 44.9847 125.894C44.2412 128.311 42.94 132.958 43.3118 133.887C45.5424 131.285 47.5871 126.266 48.8883 123.106C48.1448 122.734 41.0812 118.459 36.434 118.087Z" fill="#D27200"/>
<path d="M30.8579 248.206C31.2297 248.392 32.9026 247.835 34.7615 247.277C36.6203 246.719 38.851 246.162 39.9663 245.976C39.0368 247.835 38.2933 249.693 37.5498 251.552C32.5309 265.122 33.2744 278.691 36.9921 289.287C40.7098 299.882 46.844 307.318 52.6064 312.337C58.3689 317.355 63.5736 319.958 67.2913 321.445C71.009 322.932 72.8679 323.118 73.0538 322.932C73.2396 322.56 72.8679 322.003 70.0796 320.701C68.5925 319.958 66.5478 319.028 63.9454 317.355C61.1571 315.682 57.8112 313.266 53.9076 309.734C49.0746 305.087 45.171 299.696 42.3828 294.12C39.5945 288.543 38.1074 282.781 37.5498 277.39C36.4344 266.609 38.6651 257.686 40.5239 252.668C41.8251 249.507 42.1969 248.392 42.7545 247.463C43.8698 249.693 46.4722 253.597 47.4017 253.969C46.6581 250.809 44.6134 246.162 43.684 242.816C43.4981 242.816 41.2675 243.187 38.6651 244.117C35.6909 244.86 32.7168 246.347 30.8579 248.206Z" fill="#D27200"/>
<path d="M-39.4071 63.9945C-39.593 64.3663 -39.7789 65.8534 -39.7789 67.5263C-39.7789 69.1993 -39.2212 71.244 -38.6636 72.5452C-40.5224 71.9876 -42.1954 71.244 -43.6824 70.1287C-47.2143 67.8981 -50.0025 64.7381 -51.6755 61.2063C-53.3484 57.6744 -53.9061 53.7709 -53.3485 50.0532C-52.419 42.6178 -48.5154 36.2977 -43.6824 31.8365C-38.8494 27.3752 -33.4588 24.2152 -28.254 21.7987C-23.0492 19.3822 -18.2162 17.5233 -13.9409 16.2221C-5.20431 13.6198 1.85931 12.8762 6.69232 12.5044C11.5253 12.3186 13.9418 12.3186 13.9418 11.9468C13.9418 11.575 13.3842 11.0174 9.48059 10.6456C7.43586 10.4597 4.46169 10.4597 0.372231 10.8315C-3.71724 11.2033 -9.10789 11.9468 -15.7997 13.9915C-24.1645 16.5939 -31.9717 19.9398 -39.0353 24.4011C-42.5671 26.6317 -45.5413 29.2341 -48.1437 32.2082C-50.7461 35.1824 -52.7908 38.5283 -54.092 41.8742C-56.8803 48.752 -56.6944 56.0015 -54.2779 61.3921C-51.8614 66.7828 -47.9578 70.1287 -44.9836 72.1734C-44.2401 72.7311 -43.4966 73.1029 -42.9389 73.2888C-42.3812 73.6605 -41.8236 73.8464 -41.4518 74.0323C-40.5224 74.4041 -39.9648 74.5899 -39.4071 74.7758C-40.5224 75.5194 -42.1954 76.4488 -43.8683 77.1923C-45.5413 77.9359 -47.0284 78.4935 -47.2143 78.8653C-44.7978 79.2371 -42.1954 78.8653 -39.9647 77.75C-37.7341 76.8206 -35.8753 75.3335 -34.5741 74.2182C-34.76 74.0323 -36.0612 72.1734 -37.1765 69.9428C-38.2918 68.084 -39.0353 65.4816 -39.4071 63.9945Z" fill="#D27200"/>
<path d="M117.108 -16.3076C117.108 -17.0512 113.39 -21.5124 111.531 -23.3713C113.576 -23.5571 115.435 -23.5571 117.48 -23.743C127.146 -23.9289 136.44 -22.9995 144.247 -19.8394C148.151 -18.3524 151.683 -16.3076 154.843 -13.7052C158.003 -11.2887 160.419 -8.31459 162.65 -5.34044C166.925 0.793758 169.156 7.29972 170.271 13.4339C171.386 19.5681 171.386 25.3305 170.829 30.3494C169.713 40.5731 167.111 48.0085 165.438 53.0274C163.579 58.0462 162.65 60.6486 162.836 60.8345C163.207 61.0204 163.765 60.6486 165.81 56.5592C166.739 54.5144 168.04 51.5403 169.713 47.2649C171.2 42.9896 172.873 37.0413 173.803 29.2341C174.732 19.3822 173.245 9.53034 169.527 1.16553C167.669 -3.10982 165.252 -7.0134 162.464 -10.3593C159.676 -13.7053 156.33 -16.4935 152.984 -18.5382C149.638 -20.7689 145.92 -22.2559 142.574 -23.3713C139.042 -24.4866 135.882 -25.2301 132.722 -25.6019C126.588 -26.5313 121.383 -26.5313 117.48 -26.3454C113.762 -26.1595 112.647 -26.1595 111.717 -25.9736C113.204 -28.0184 115.807 -32.1078 115.993 -33.2231C112.647 -31.3643 109.301 -27.089 107.256 -24.3007C107.628 -24.1148 113.576 -18.3524 117.108 -16.3076Z" fill="#D27200"/>
<path d="M180.123 198.575C179.937 198.389 178.078 198.203 176.034 197.646C173.989 197.274 171.944 196.53 170.643 195.973C172.502 195.043 174.175 193.742 175.848 192.441C181.796 187.05 184.584 179.801 185.7 172.923C186.815 166.045 186.629 159.725 186.443 153.963C186.257 148.2 186.257 142.81 186.629 137.977C187.187 133.144 188.302 128.868 189.789 125.337C193.135 118.273 198.154 114.369 201.686 112.882C205.403 111.209 207.634 111.209 207.634 110.838C207.634 110.652 207.448 110.466 206.89 110.28C206.333 110.094 205.217 110.094 203.359 110.466C201.5 110.838 198.897 111.581 195.923 113.812C192.949 116.042 189.417 119.574 186.815 125.337C183.655 132.586 183.283 140.207 183.283 147.085C183.283 154.149 183.655 160.469 183.283 166.417C182.911 172.179 181.982 177.384 180.123 181.474C178.264 185.563 176.034 188.537 173.989 190.396C171.572 192.627 170.457 192.999 169.713 193.556C169.899 192.255 169.899 190.582 169.713 189.095C169.528 187.608 169.156 186.307 168.784 185.935C168.598 187.236 168.412 189.095 168.04 190.954C167.669 192.813 166.925 194.857 166.182 196.344C166.368 196.53 168.226 197.832 171.015 198.761C173.617 199.505 177.521 199.505 180.123 198.575Z" fill="#D27200"/>
<path d="M88.8535 74.0324C89.0394 74.2183 90.8982 74.7759 92.9429 75.3336C94.9877 75.8912 97.0324 76.8206 98.1477 77.5642C96.103 78.3077 94.2441 79.2371 92.757 80.5383C89.7829 82.769 87.5523 85.5572 85.8793 88.7173C84.2063 91.6914 83.091 95.0374 82.9052 98.3833C82.5334 101.729 82.9052 104.889 83.8346 107.863C84.764 110.838 86.437 113.626 88.6676 115.485C91.0841 117.344 94.0582 118.087 96.6606 118.273C99.263 118.459 101.68 117.901 104.096 117.715C108.743 116.972 112.833 115.856 116.364 114.555C123.428 111.953 128.447 108.793 131.607 106.562C134.767 104.332 136.068 102.845 136.068 102.659C135.882 102.287 135.325 102.287 132.536 103.96C131.235 104.703 129.19 105.819 126.402 107.306C123.614 108.793 119.71 110.466 114.691 112.139C111.531 113.254 108.185 113.998 105.025 114.555C101.865 115.113 98.5195 115.485 95.7312 115.299C92.9429 114.927 90.5264 113.626 89.0394 111.581C87.3664 109.536 86.6229 106.934 86.2511 104.332C85.5076 99.3127 86.8087 94.4797 88.4817 90.762C90.3405 87.0443 92.7571 84.6278 94.8018 83.1407C96.103 82.2113 97.0324 81.6536 97.776 81.2819C98.5195 80.9101 98.8912 80.7242 99.4489 80.5383C99.0771 81.6536 98.8912 83.5125 98.8912 84.9996C98.8912 86.4866 99.263 87.7879 99.6348 88.1596C100.007 86.8584 100.192 85.1855 100.75 83.3266C101.122 82.3972 101.494 81.4678 101.865 80.5383C102.237 79.6089 102.795 78.8654 103.352 78.1218C103.167 77.936 101.68 76.263 98.8912 75.1477C95.5453 73.8465 91.6417 73.2888 88.8535 74.0324Z" fill="#D27200"/>
<path d="M50.7474 40.3872C51.1192 39.8295 50.7474 33.6954 50.9333 31.093C52.6063 32.3942 54.0933 33.5095 55.7663 34.8107C61.1569 38.7142 67.1053 41.8743 73.2395 42.8037C76.2136 43.3614 79.3736 43.1755 82.1619 42.8037C84.9502 42.2461 87.5526 41.5025 89.9691 40.5731C94.8021 38.7142 99.0774 36.4836 102.981 34.9965C106.885 33.5095 110.788 32.58 114.134 32.2083C121.012 31.2788 126.402 31.8365 129.934 32.3942C133.466 32.9518 135.325 33.3236 135.511 33.1377C135.697 32.7659 135.325 32.2083 132.351 31.2788C130.864 30.7212 128.633 30.1635 125.473 29.7918C122.313 29.42 118.224 29.0482 112.833 29.7918C109.487 30.1635 106.327 31.093 103.167 32.0224C100.007 33.1377 97.2186 34.4389 94.4303 35.5542C88.8538 37.9707 83.649 40.2013 78.816 40.3872C73.983 40.759 69.5218 39.4578 65.9899 37.7848C62.4581 36.1118 59.6699 34.253 57.4393 32.7659C54.651 30.7212 53.7216 29.9777 52.7921 29.42C55.2086 28.8623 59.6699 27.3753 60.4134 26.4458C57.0675 26.0741 51.8627 27.0035 48.5168 27.5612C48.3309 27.747 48.3309 36.1119 50.7474 40.3872Z" fill="#D27200"/>
<path d="M52.2345 224.971C51.8627 224.785 50.1897 225.342 48.3309 225.714C46.2862 226.086 44.2414 226.458 42.9402 226.644C44.0555 224.971 44.985 223.112 45.9144 221.253C48.7026 214.561 49.2603 207.683 48.145 201.363C46.8438 195.043 43.8696 189.653 40.152 185.749C36.4343 181.66 31.973 178.871 27.6977 177.198C23.2364 175.525 19.147 174.968 15.2434 174.968C7.808 174.968 2.23147 176.641 -1.30033 177.756C-4.83214 178.871 -6.691 179.801 -6.50511 180.172C-6.31923 180.544 -5.76157 180.73 -2.78742 179.987C-1.30034 179.615 0.93027 179.057 4.09031 178.685C7.25035 178.128 11.1539 177.57 16.3587 177.756C22.8647 177.942 28.9989 180.172 33.646 183.704C38.479 187.236 42.0108 192.069 43.8696 196.716C45.9144 201.549 46.2861 206.382 45.9144 210.286C45.5426 214.375 44.6132 217.721 43.4979 220.138C42.1967 223.298 41.4531 224.041 40.8955 224.971C40.5237 223.855 39.7802 222.182 38.8508 220.881C38.1072 219.58 37.1778 218.465 36.6201 218.279C36.9919 219.766 37.5496 221.439 38.1072 223.484C38.2931 224.413 38.6649 225.528 38.8508 226.458C39.0366 227.387 39.2225 228.317 39.2225 229.246C39.4084 229.246 41.639 229.246 44.4273 228.688C46.8438 228.317 50.1897 226.83 52.2345 224.971Z" fill="#D27200"/>
<path d="M-75.8405 282.409C-75.8405 281.666 -79.7441 277.018 -81.2312 274.974C-79.1864 274.974 -77.1417 274.974 -75.2828 274.974C-65.6168 274.788 -56.5085 273.858 -47.9578 272.185C-43.6824 271.442 -39.593 270.327 -35.8753 268.654C-34.0164 267.724 -32.1576 266.795 -30.4846 265.494C-28.8117 264.378 -27.5105 262.891 -26.2093 261.404C-23.7928 258.43 -22.1198 255.084 -20.6327 251.924C-19.1457 248.764 -18.0303 245.604 -16.7292 242.816C-14.3127 237.053 -11.3385 232.22 -7.6208 229.246C-3.90311 226.086 0.186356 224.227 3.71816 223.112C7.43586 221.997 10.5959 221.811 13.1983 221.811C18.4031 221.811 21.0054 222.926 21.1913 222.554C21.1913 222.368 21.1913 222.182 20.6337 221.811C20.2619 221.625 19.8901 221.439 19.1466 221.067C18.4031 220.881 17.6595 220.509 16.5442 220.324C14.3136 219.952 10.9677 219.394 6.32055 220.138C4.08994 220.51 1.30166 221.253 -1.48662 222.368C-4.27489 223.67 -7.43492 225.343 -10.4091 228.131C-12.2679 229.804 -13.755 231.848 -15.2421 233.893C-16.5433 235.938 -17.6586 238.169 -18.588 240.213C-20.4469 244.489 -22.1198 248.764 -23.9787 252.482C-24.9081 254.341 -26.0234 256.199 -27.1387 257.872C-28.254 259.545 -29.5552 261.032 -31.0423 262.148C-33.8306 264.564 -37.3624 266.237 -40.8942 267.352C-44.426 268.468 -47.9578 269.025 -51.3037 269.583C-54.6496 270.141 -57.8097 270.513 -60.7838 270.884C-66.7321 271.628 -71.5651 271.814 -75.2828 271.814C-78.8147 271.814 -79.93 271.814 -81.0453 271.814C-79.3723 269.769 -76.7699 265.865 -76.7699 264.936C-79.7441 266.609 -83.2759 270.698 -85.6924 273.115C-85.3206 274.044 -80.1158 280.55 -75.8405 282.409Z" fill="#D27200"/>
</g>
<defs>
<clipPath id="clip0_57_43416">
<rect width="197" height="256" fill="white"/>
</clipPath>
</defs>
</svg>
