<svg width="413" height="172" viewBox="0 0 413 172" fill="none" xmlns="http://www.w3.org/2000/svg">
<g clip-path="url(#clip0_57_43689)">
<path d="M0 20C0 8.95431 8.95431 0 20 0H393C404.046 0 413 8.95431 413 20V173H0V20Z" fill="#FB7044"/>
<rect x="67" y="-61" width="95" height="61" rx="15.2115" transform="rotate(15 67 -61)" fill="#FF784E"/>
<rect x="67.3536" y="-60.3876" width="94" height="60" rx="14.7115" transform="rotate(15 67.3536 -60.3876)" stroke="white" stroke-opacity="0.2"/>
<rect x="75" y="-53" width="95" height="61" rx="15.2115" transform="rotate(15 75 -53)" fill="#FF784E"/>
<rect x="75.3536" y="-52.3876" width="94" height="60" rx="14.7115" transform="rotate(15 75.3536 -52.3876)" stroke="white" stroke-opacity="0.2"/>
<rect x="83" y="-45" width="95" height="61" rx="15.2115" transform="rotate(15 83 -45)" fill="#FF784E"/>
<rect x="83.3536" y="-44.3876" width="94" height="60" rx="14.7115" transform="rotate(15 83.3536 -44.3876)" stroke="white" stroke-opacity="0.2"/>
<rect x="91" y="-37" width="95" height="61" rx="15.2115" transform="rotate(15 91 -37)" fill="#FF784E"/>
<rect x="91.3536" y="-36.3876" width="94" height="60" rx="14.7115" transform="rotate(15 91.3536 -36.3876)" stroke="white" stroke-opacity="0.2"/>
<rect x="99" y="-29" width="95" height="61" rx="15.2115" transform="rotate(15 99 -29)" fill="#FF784E"/>
<rect x="99.3536" y="-28.3876" width="94" height="60" rx="14.7115" transform="rotate(15 99.3536 -28.3876)" stroke="white" stroke-opacity="0.2"/>
<rect x="107" y="-21" width="95" height="61" rx="15.2115" transform="rotate(15 107 -21)" fill="#FF784E"/>
<rect x="107.354" y="-20.3876" width="94" height="60" rx="14.7115" transform="rotate(15 107.354 -20.3876)" stroke="white" stroke-opacity="0.2"/>
<rect x="115" y="-13" width="95" height="61" rx="15.2115" transform="rotate(15 115 -13)" fill="#FF784E"/>
<rect x="115.354" y="-12.3876" width="94" height="60" rx="14.7115" transform="rotate(15 115.354 -12.3876)" stroke="white" stroke-opacity="0.2"/>
<rect x="123" y="-5" width="95" height="61" rx="15.2115" transform="rotate(15 123 -5)" fill="#FF784E"/>
<rect x="123.354" y="-4.38763" width="94" height="60" rx="14.7115" transform="rotate(15 123.354 -4.38763)" stroke="white" stroke-opacity="0.2"/>
<rect x="131" y="3" width="95" height="61" rx="15.2115" transform="rotate(15 131 3)" fill="#FF784E"/>
<rect x="131.354" y="3.61237" width="94" height="60" rx="14.7115" transform="rotate(15 131.354 3.61237)" stroke="white" stroke-opacity="0.2"/>
<rect x="139" y="11" width="95" height="61" rx="15.2115" transform="rotate(15 139 11)" fill="#FF784E"/>
<rect x="139.354" y="11.6124" width="94" height="60" rx="14.7115" transform="rotate(15 139.354 11.6124)" stroke="white" stroke-opacity="0.2"/>
<rect x="147" y="19" width="95" height="61" rx="15.2115" transform="rotate(15 147 19)" fill="#FF784E"/>
<rect x="147.354" y="19.6124" width="94" height="60" rx="14.7115" transform="rotate(15 147.354 19.6124)" stroke="white" stroke-opacity="0.2"/>
<rect x="155" y="27" width="95" height="61" rx="15.2115" transform="rotate(15 155 27)" fill="#FF784E"/>
<rect x="155.354" y="27.6124" width="94" height="60" rx="14.7115" transform="rotate(15 155.354 27.6124)" stroke="white" stroke-opacity="0.2"/>
<rect x="163" y="35" width="95" height="61" rx="15.2115" transform="rotate(15 163 35)" fill="#FF784E"/>
<rect x="163.354" y="35.6124" width="94" height="60" rx="14.7115" transform="rotate(15 163.354 35.6124)" stroke="white" stroke-opacity="0.2"/>
<rect x="171" y="43" width="95" height="61" rx="15.2115" transform="rotate(15 171 43)" fill="white"/>
<path d="M193.879 73.7915L186.003 71.6812L184.436 77.5291L191.312 79.3716L190.501 82.3984L183.625 80.5559L181.507 88.4608L177.775 87.4608L183.082 67.6544L194.69 70.7647L193.879 73.7915ZM200.63 75.6321L198.898 82.0971L201.366 82.7585C202.503 83.0629 203.431 83.0072 204.151 82.5913C204.877 82.1558 205.379 81.4189 205.657 80.3806C205.93 79.3619 205.836 78.4969 205.376 77.7856C204.935 77.0796 204.157 76.577 203.04 76.2777L200.63 75.6321ZM202.666 94.1303L200.107 85.6965L198.079 85.1532L196.142 92.3823L192.439 91.3901L197.746 71.5838L203.859 73.2216C206.112 73.8252 207.723 74.8658 208.692 76.3433C209.68 77.826 209.92 79.5175 209.411 81.4179C209.013 82.8232 208.35 83.9263 207.421 84.7274C206.498 85.5089 205.396 85.9798 204.114 86.1403L207.103 95.3193L202.666 94.1303ZM214.287 94.0001L222.368 96.1655L221.557 99.1923L209.744 96.0269L215.051 76.2205L226.747 79.3544L225.936 82.3812L217.972 80.2473L216.531 85.625L223.613 87.5227L222.81 90.5201L215.728 88.6224L214.287 94.0001ZM229.812 98.1601L237.894 100.325L237.083 103.352L225.269 100.187L230.576 80.3805L242.272 83.5144L241.461 86.5412L233.497 84.4073L232.057 89.785L239.139 91.6827L238.335 94.6801L231.253 92.7824L229.812 98.1601Z" fill="#FB7044"/>
</g>
<defs>
<clipPath id="clip0_57_43689">
<rect width="413" height="172" fill="white"/>
</clipPath>
</defs>
</svg>
